<?xml version="1.0" encoding="utf-8"?>
<!-- Generator: Adobe Illustrator 16.0.0, SVG Export Plug-In . SVG Version: 6.00 Build 0)  -->
<!DOCTYPE svg PUBLIC "-//W3C//DTD SVG 1.1//EN" "http://www.w3.org/Graphics/SVG/1.1/DTD/svg11.dtd">
<svg version="1.1" id="Layer_1" xmlns="http://www.w3.org/2000/svg" xmlns:xlink="http://www.w3.org/1999/xlink" x="0px" y="0px"
	 width="432px" height="144px" viewBox="0 0 432 144" enable-background="new 0 0 432 144" xml:space="preserve">
<g>
	<path fill="#4c4c4c" d="M67.665,87.624c-9.331,0-15.461-6.641-15.461-15.371c0-8.391,6.388-15.461,15.371-15.461
		c5.194,0,8.392,1.448,11.456,4.043l-3.324,3.962c-2.293-1.954-4.549-3.191-8.343-3.191c-5.501,0-9.665,4.772-9.665,10.559
		c0,6.176,4.043,10.694,10.135,10.694c2.812,0,5.363-0.898,7.197-2.262v-5.58h-7.625v-4.555h12.688V82.98
		C77.161,85.495,72.943,87.624,67.665,87.624z"/>
	<path fill="#4c4c4c" d="M100.949,57.3v29.812h-5.236V57.3H100.949z"/>
	<path fill="#4c4c4c" d="M139.607,62.076h-16.945v8.128H137.7v4.771h-15.038v12.137h-5.236V57.3h22.182V62.076z"/>
	<path fill="#4c4c4c" d="M166.468,87.111h-5.275V62.155h-9.458V57.3h24.191v4.855h-9.458V87.111z"/>
	<path fill="#4c4c4c" d="M240.587,87.624c-9.337,0-15.462-6.641-15.462-15.371c0-8.391,6.394-15.461,15.371-15.461
		c5.2,0,8.396,1.448,11.462,4.043l-3.324,3.962c-2.299-1.954-4.555-3.191-8.338-3.191c-5.506,0-9.68,4.772-9.68,10.559
		c0,6.176,4.046,10.694,10.139,10.694c2.812,0,5.364-0.898,7.197-2.262v-5.58h-7.625v-4.555h12.692V82.98
		C250.087,85.495,245.865,87.624,240.587,87.624z"/>
	<path fill="#4c4c4c" d="M287.457,87.111l-7.319-10.388h-6.567v10.388h-5.231V57.3h13.289c6.854,0,11.064,3.619,11.064,9.458
		c0,4.936-2.938,7.916-7.107,9.067l8.048,11.286H287.457z M281.2,62.076h-7.63v10.002h7.677c3.735,0,6.13-1.954,6.13-5.024
		C287.377,63.777,285.072,62.076,281.2,62.076z"/>
	<path fill="#4c4c4c" d="M336.158,87.111h-5.531l-4.688-10.388h-10.831l-4.662,10.388h-5.373l13.115-30.023h4.855L336.158,87.111z
		 M320.54,63.35l-3.515,8.729h7.002L320.54,63.35z"/>
	<path fill="#4c4c4c" d="M214.663,87.111h-5.538l-4.682-10.388H193.61l-4.67,10.388h-5.358l13.109-30.023h4.856L214.663,87.111z
		 M199.032,63.35l-3.503,8.729h6.99L199.032,63.35z"/>
	<path fill="#4c4c4c" d="M364.43,87.111h-0.175l-9.326-21.295v21.295h-5.151V57.3h7.365l7.287,17.568L372.07,57.3h7.006v29.812
		h-5.236V65.738L364.43,87.111z"/>
</g>
</svg>
