<?xml version="1.0" encoding="utf-8"?>
<!-- Generator: Adobe Illustrator 16.0.0, SVG Export Plug-In . SVG Version: 6.00 Build 0)  -->
<!DOCTYPE svg PUBLIC "-//W3C//DTD SVG 1.1//EN" "http://www.w3.org/Graphics/SVG/1.1/DTD/svg11.dtd">
<svg version="1.1" id="Layer_1" xmlns="http://www.w3.org/2000/svg" xmlns:xlink="http://www.w3.org/1999/xlink" x="0px" y="0px"
	 width="450px" height="450px" viewBox="275 0 450 450" enable-background="new 275 0 450 450" xml:space="preserve">
<g transform="scale(1 -1)">
	<g transform="translate(0 -75)">
		<g>
			<path marker-end="none" marker-start="none" d="M545.737-298.457c-1.311,1.008-2.597,2.16-3.868,3.227
				c-5.155,4.32-10.277,8.678-15.403,13.031c-0.053,0.043-0.105,0.088-0.158,0.131c-0.562-1.479-1.119-2.963-1.671-4.445
				c-0.062-0.174-0.264-0.26-0.437-0.197s-0.26,0.264-0.197,0.438c0.581,1.559,1.167,3.115,1.757,4.67
				c-1.435,1.215-2.865,2.434-4.296,3.652c-0.715-0.887-1.449-1.766-2.198-2.615c1.19-0.705,2.443-1.521,3.672-2.111
				c0.83-0.477,1.118-1.541,0.644-2.373c-0.476-0.83-1.541-1.117-2.371-0.643c-2.396,1.363-4.699,2.785-7.032,4.244
				c-1.311,0.82-2.679,1.689-3.937,2.586c-2.885,2.045-5.712,4.119-8.5,6.27c2.284-2.559,4.588-5.098,6.893-7.637
				c0.629-0.721,0.562-1.824-0.158-2.453c-0.721-0.629-1.824-0.561-2.453,0.158c-2.688,3.023-5.241,6.174-7.781,9.322
				c-2.049,2.543-4.099,5.098-6.115,7.67c-0.7,0.893-1.406,1.781-2.106,2.674c-2.952,2.611-5.842,5.275-8.727,8.012
				c-5.271,4.982-10.344,10.199-15.25,15.547c-0.259-0.254-0.519-0.504-0.772-0.754c-0.02-0.154-0.087-0.303-0.192-0.422
				c-0.067-0.072-0.144-0.131-0.254-0.016c-0.015-0.014-0.034-0.033-0.048-0.047c-1.402-1.369-2.766-2.785-4.172-4.146
				c-1.349-1.311-2.692-2.621-4.036-3.941c0.23-0.254,0.465-0.5,0.7-0.74c0.23-0.264,0.207-0.672-0.058-0.902
				c-0.264-0.23-0.672-0.205-0.902,0.059c-0.216,0.23-0.427,0.461-0.638,0.695c-1.719-1.699-3.433-3.412-5.127-5.135
				c-0.639-0.898-1.233-1.83-1.742-2.857c-0.072-0.135-0.25-0.188-0.384-0.115c-0.135,0.072-0.188,0.25-0.115,0.385
				c0.101,0.207,0.206,0.408,0.312,0.609c-0.7-0.725-1.401-1.455-2.098-2.189c-2.107-2.223-4.258-4.416-6.336-6.662
				c-6.364-6.889-12.687-13.854-18.854-20.932c-0.178-0.846-0.369-1.686-0.576-2.531c-0.297-1.223-0.681-2.424-1.036-3.629
				c-0.326-1.123-0.749-2.213-1.162-3.307c-0.076-0.197-0.384-1.123-0.514-1.199c-0.359-0.217-0.557,0.662-0.638,0.85
				c-0.11,0.244-0.207,0.494-0.308,0.738c-0.403,0.941-0.772,1.887-1.128,2.838c-0.927-1.096-1.853-2.199-2.77-3.299
				c-0.293-0.346-0.816-0.389-1.162-0.096c-0.345,0.293-0.389,0.816-0.096,1.162c0.255,0.307,0.509,0.613,0.769,0.922
				c-1.244,0.402-1.234,2.006-1.483,3.09c-0.058,0.23-0.092,0.48-0.135,0.721c-0.12-0.096-0.24-0.188-0.355-0.279
				c-0.234-0.619-0.796-1.088-1.492-1.156c-0.02-0.004-0.039-0.004-0.053,0.016c-2.208-1.762-4.483-3.418-6.754-5.088
				c-0.298-0.217-0.725-0.154-0.94,0.143c-0.217,0.299-0.154,0.725,0.144,0.941c2.05,1.492,4.075,3.02,6.072,4.578
				c-0.245,0.275-0.403,0.621-0.441,1.01c-0.461,3.178-0.639,6.508-0.927,9.705c-0.398,4.367-0.696,8.75-1.018,13.123
				c-0.644,0.527-1.268,1.047-1.829,1.607c0.082-0.859,0.163-1.723,0.255-2.576c0.571-5.549,1.2-11.027,1.953-16.551
				c0.11-0.859-0.494-1.656-1.354-1.768c-0.859-0.109-1.656,0.494-1.767,1.354c-0.504,3.783-1.018,7.58-1.396,11.377
				c-0.715,7.186-1.315,14.322-1.829,21.533c-0.604,8.52-0.983,17.072-1.675,25.584c-0.418,5.145-0.845,10.242-1.388,15.379
				c-0.201,1.881-0.46,3.764-0.681,5.645c-0.049,0.369-0.092,0.725-0.135,1.08c-0.11,0.207-0.221,0.412-0.331,0.619
				c-0.533,0.941-1.09,1.873-1.608,2.818c-0.058,0.105-0.019,0.248,0.086,0.307c0.106,0.057,0.25,0.02,0.307-0.086
				c0.466-0.85,0.95-1.686,1.431-2.525c-0.029,0.336-0.048,0.678-0.053,1.037c-0.02,0.715-0.043,1.436-0.082,2.16l-0.206,2.078
				c-0.14,0-0.25,0.109-0.25,0.244c-0.005,0.432-0.01,0.869-0.015,1.307c-0.192-0.467-0.446-0.955-0.658-1.383
				c-0.441-0.889-0.869-1.781-1.325-2.664c-0.345-0.701-1.205-0.984-1.905-0.639c-0.701,0.346-0.984,1.205-0.639,1.906
				c0.528,1.123,1.114,2.266,1.694,3.365l0.451,0.834l-0.609,0.197c-1.094-0.754-2.203-1.498-3.312-2.217
				c-0.384-0.25-0.912-0.145-1.162,0.238c-0.25,0.385-0.144,0.912,0.24,1.162c0.725,0.5,1.45,0.998,2.17,1.492
				c-10.373,3.77-20.362,9.201-30.02,14.473l-7.588,4.232l-1.982,0.975c-1.916,0.98-3.821,1.979-5.703,2.947
				c-3.288,1.494-6.542,2.977-9.787,4.479c-0.571,0.26-0.931,0.787-1.003,1.369c-1.642,0.926-3.278,1.861-4.91,2.798
				c-1.282,0.729-2.535,1.497-3.802,2.251c-0.254,0.149-0.653,0.365-1.032,0.596l-0.327,0.244l-0.101,0.062l-0.485,0.38
				c-0.648,0.772,0.096,2.083,1.075,1.958c0.519-0.066,2.088-0.926,2.645-1.205c0.552-0.277,1.104-0.561,1.651-0.84
				c0.024-0.004,0.048-0.01,0.077-0.014c0.365-0.125,0.874-0.52,1.234-0.721c0.235-0.129,0.47-0.269,0.701-0.427
				c2.275-1.037,6.178-3.149,10.065-5.3c6.797-3.125,13.646-6.148,20.453-9.25c0.59-0.273,1.186-0.547,1.781-0.814
				c-0.403,0.234-0.807,0.469-1.209,0.709c-6.159,3.586-12.355,7.129-18.696,10.387c-4.675,2.401-9.37,4.676-14.141,6.879
				c-0.202,0.087-0.36,0.24-0.202,0.533c-0.062-0.043-0.086-0.004-0.101,0.033c-0.029,0.044-0.048,0.097,0.038,0.131
				c-0.35,0.354-0.321,0.522-0.25,0.682c0.086,0.196,0.24,0.354,0.533,0.196c-0.034,0.067,0,0.087,0.034,0.105
				c2.515,1.291,4.935,2.722,7.368,4.151c-0.183,0.23-0.365,0.467-0.547,0.701c-3.11-2.016-6.207-4.046-9.302-6.091
				c-0.115-0.077-0.283-0.044-0.36,0.071c-0.077,0.115-0.043,0.283,0.072,0.361c3.086,2.035,6.173,4.061,9.273,6.071
				c-0.538,0.706-1.07,1.426-1.584,2.15c-0.149,0.202-0.105,0.495,0.096,0.643c0.202,0.149,0.494,0.106,0.643-0.096
				c0.533-0.744,1.08-1.469,1.637-2.184c3.211,2.074,6.432,4.133,9.677,6.168c2.294,1.44,4.623,2.827,6.931,4.243
				c13.296,8.15,26.909,15.883,40.637,23.29c13.747,7.411,27.629,14.52,41.654,21.441c0.778,0.447,1.594,0.917,2.41,1.388
				c6.47,3.715,12.854,7.512,19.469,10.949c2.271,1.181,4.56,2.323,6.97,3.206c0.043,0.024,0.081,0.048,0.125,0.072
				c2.765,1.531,5.572,2.995,8.347,4.507c8.15,4.435,16.454,8.597,24.609,13.027c11.822,6.417,23.559,12.97,35.3,19.546
				c21.859,12.245,43.689,24.509,65.985,35.952c17.467,8.962,35.462,17.4,53.856,24.283c0.604,0.226,1.257,0.144,1.775-0.168
				c0.408,0.192,0.83,0.336,1.233,0.298c0.677-0.072,1.483-1.143,1.964-1.627c0.868-0.883,1.68-1.93,2.213-3.077
				c1.416,0.782,2.827,1.574,4.238,2.376c3.647,2.064,7.257,4.205,10.905,6.273c-4.968-3.024-10.037-5.899-15.082-8.779
				c0.317-0.72,0.528-1.483,0.581-2.266c0.01-0.149,0.005-0.293,0-0.432c2.952-0.322,6.163-1.704,8.817-2.583
				c0.601-0.202,1.2-0.432,1.806-0.614c0.441-0.134,1.07-0.235,1.473-0.403c0.438-0.187,0.788-0.595,0.907-1.056
				c0.077-0.288,0.02-0.581,0-0.869c-0.124-1.742-1.276-3.23-2.102-4.699c-0.159-0.283-0.423-0.643-0.538-0.936
				c-0.148-0.379-0.471-0.921-0.441-1.339c0.048-0.648,0.293-1.109-0.082-1.795c-0.173-0.317-0.456-0.533-0.667-0.807
				c-0.321-0.417-0.629-0.85-0.912-1.301c-1.2-1.91-2.251-3.845-3.638-5.64c-0.994-1.287-2.247-2.611-3.466-3.691
				c-0.398-0.351-0.879-0.696-1.248-1.056c0.053,0.197,0.125,0.398,0.196,0.605c-1.176-2.122-2.347-4.243-3.514-6.365
				c0.648-0.461,0.85-1.354,0.442-2.05c-4.205-7.2-8.554-14.313-12.941-21.403c-2.947-5.626-5.89-11.266-8.722-16.939
				c-4.204-8.424-8.447-16.824-12.647-25.248c-6.202-12.437-12.255-24.95-18.433-37.397c-3.84-7.742-7.646-15.504-11.539-23.217
				c-5.587-11.073-11.236-22.095-17.001-33.077c-1.373-2.615-2.751-5.227-4.167-7.887c-1.66-3.811-3.336-7.68-4.992-11.553
				c-2.913-6.797-5.822-13.646-8.572-20.506c-3.043-7.594-6.043-15.178-9.015-22.799c-0.048-0.135-0.201-0.203-0.336-0.154
				c-0.135,0.047-0.201,0.201-0.153,0.336c6.139,15.916,12.624,31.699,19.368,47.375c-5.794-12.619-11.554-25.252-17.28-37.9
				c-0.058-0.129-0.211-0.188-0.341-0.129c-0.13,0.057-0.188,0.211-0.13,0.34c5.15,11.381,10.33,22.758,15.528,34.1
				c-3.375-6.1-6.749-12.207-10.243-18.234c-2.674-4.609-5.453-9.148-8.16-13.738c-0.312-0.537-0.629-1.07-0.95-1.604
				c-6.937-15.764-13.561-31.621-19.685-47.727c0.484-0.408,0.969-0.811,1.459-1.209c2.659-2.189,5.256-4.488,7.881-6.721
				c2.098-1.781,4.225-3.527,6.308-5.318c1.042-0.896,2.141-1.746,3.173-2.648c0.557-0.486,1.166-0.994,1.752-1.436
				C546.707-299.377,545.949-298.619,545.737-298.457z M417.918-296.248l0.553,1.41c0.326,0.918,0.624,1.834,0.921,2.762
				c0.514,1.598,0.961,3.277,1.354,4.996c-0.326-0.379-0.657-0.758-0.983-1.139c0.015-0.469,0.033-0.93,0.062-1.391
				c0.005-0.158-0.125-0.299-0.283-0.303c-0.158-0.006-0.298,0.125-0.303,0.283c-0.019,0.25-0.028,0.504-0.043,0.758
				c-0.965-1.123-1.925-2.246-2.885-3.373L417.918-296.248z M410.757-288.568c-0.02,0.092-0.038,0.182-0.058,0.279
				c0.01-0.102,0.02-0.203,0.028-0.303C410.737-288.582,410.747-288.578,410.757-288.568z M419.171-286.326
				c0.015,0.58,0.039,1.166,0.072,1.756c-0.451-0.557-0.893-1.117-1.325-1.68c0.23-0.359,0.293-0.82,0.135-1.238
				c-0.067-0.129-0.13-0.254-0.192-0.379C418.298-287.354,418.734-286.84,419.171-286.326z M413.781-286.072
				c-0.058,0.188-0.11,0.375-0.164,0.566l0.11-0.562l0.01-0.037C413.752-286.096,413.767-286.082,413.781-286.072z M414.309-285.625
				l0.01,0.023l0.02,0.043l0.316,0.764c0.36,0.906,0.759,1.805,1.113,2.711c0.317,0.816,0.639,1.633,0.96,2.449
				c-1.031,2.395-2.021,4.809-3.091,7.18c-0.922,2.035-1.862,4.156-2.697,6.25c-0.308,0.279-0.61,0.557-0.917,0.83
				c0.269-1.877,0.562-3.748,0.878-5.611c0.13-0.355,0.235-0.715,0.341-1.031c0.062-0.211,0.034-0.422-0.058-0.605
				c0.788-4.426,1.743-8.803,2.986-13.123C414.213-285.703,414.261-285.664,414.309-285.625z M419.281-283.922
				c0.01,0.191,0.024,0.389,0.039,0.58c-0.255-0.215-0.509-0.432-0.764-0.646c-0.235-0.582-0.479-1.158-0.71-1.719
				C418.308-285.121,418.792-284.521,419.281-283.922z M421.456-283.652c0.135,0.715,0.259,1.439,0.379,2.16
				c-0.662-0.76-1.314-1.527-1.953-2.301c-0.048-0.613-0.082-1.219-0.101-1.828C420.338-284.963,420.895-284.311,421.456-283.652z
				 M421.01-281.863c-0.331-0.293-0.687-0.609-1.047-0.922c-0.009-0.119-0.023-0.234-0.028-0.35
				C420.294-282.703,420.664-282.271,421.01-281.863z M423.501-281.268c2.208,2.582,4.421,5.16,6.643,7.732
				c-1.79-1.703-3.604-3.379-5.442-5.016c-0.418-0.375-0.831-0.744-1.248-1.119c-0.38-0.416-0.759-0.844-1.133-1.266
				c-0.11-0.711-0.226-1.412-0.346-2.113C422.483-282.457,422.992-281.863,423.501-281.268z M542.248-241.182
				c-1.186-2.348-2.275-4.715-3.384-7.076c-0.701-1.492-1.354-3.023-2.107-4.488c-2.554-4.973-5.107-9.975-8.016-14.75
				c-2.132-3.494-4.488-6.951-7.037-10.152c-0.038-0.047-0.072-0.092-0.11-0.135c0.336-0.287,0.667-0.576,1.003-0.863
				c1.061-0.932,2.141-1.867,3.226-2.793C530.978-267.881,536.483-254.479,542.248-241.182z M422.272-278.521
				c0.129,0.959,0.249,1.91,0.354,2.846c0.039,0.389,0.082,0.783,0.12,1.162c-0.744-1.666-1.497-3.342-2.266-5.006l-0.188-0.398
				l-0.009-0.025c-0.024-0.158-0.044-0.32-0.062-0.479C420.909-279.793,421.595-279.16,422.272-278.521z M419.56-272.393
				c-0.451,0.168-0.897,0.365-1.334,0.582c-0.476-0.971-0.955-1.936-1.431-2.9c-0.191-0.393-0.682-0.557-1.075-0.365
				c-0.394,0.193-0.557,0.682-0.364,1.076c0.484,0.994,0.97,1.992,1.459,2.984c-1.694,1.062-3.255,2.41-4.762,3.783
				c0-0.004,0.005-0.02,0.015-0.033c0.715-1.811,1.497-3.652,2.294-5.43c0.917-2.059,1.752-4.166,2.641-6.234
				C417.856-276.75,418.71-274.572,419.56-272.393z M519.847-276.572c-0.566,0.475-1.128,0.955-1.689,1.434
				c-0.456-0.725-0.917-1.449-1.373-2.174c0.504-0.389,1.018-0.777,1.531-1.152C518.834-277.846,519.343-277.217,519.847-276.572z
				 M427.211-273.717c0.485,0.49,0.975,0.979,1.46,1.473c-0.168,0.01-0.332,0.078-0.456,0.207c-0.889,0.758-1.862,2.434-2.641,3.994
				c-0.777-1.801-1.56-3.596-2.347-5.387c-0.149-1.512-0.312-3.02-0.495-4.521c-0.009-0.053-0.014-0.105-0.023-0.158
				C424.23-276.67,425.728-275.205,427.211-273.717z M520.878-275.229c0.442,0.59,0.854,1.229,1.268,1.838
				c4.556,6.721,7.795,14.117,10.819,21.625c0.005,0.008,0.01,0.023,0.015,0.037c-4.849-7.781-9.807-15.484-14.707-23.232
				c0.57-0.479,1.137-0.965,1.708-1.443C520.278-276.021,520.576-275.633,520.878-275.229z M516.938-274.102
				c-7.612,6.486-15.235,12.961-22.939,19.316c-2.649,2.178-5.304,4.338-7.958,6.514c-0.812,0.656-1.661,1.363-2.516,2.035
				c-0.542,0.283-1.084,0.57-1.612,0.854c1.724-1.871,3.441-3.758,5.155-5.645c3.173-3.5,6.398-6.979,9.715-10.363
				c3.701-3.023,7.426-6.004,11.193-8.928c2.521-1.973,5.012-4.033,7.541-6.016C515.992-275.59,516.467-274.846,516.938-274.102z
				 M517.797-272.723c2.913,4.742,5.789,9.498,8.592,14.303c0.864,1.479,1.714,2.973,2.563,4.465
				c-0.384,0.221-0.725,0.432-0.897,0.543c-1.92,1.18-3.821,2.408-5.544,3.873c-5.525,4.703-9.533,10.229-13.521,16.232
				c-1.119,1.686-2.271,3.381-3.341,5.098c-0.097,0.154-0.058,0.365,0.096,0.461c0.153,0.098,0.364,0.059,0.461-0.096
				c0.945-1.521,1.973-3.027,2.961-4.521c2.021-3.043,4.124-6.23,6.438-9.053c1.396-1.703,2.77-3.24,4.291-4.828
				c0.772-0.807,1.661-1.555,2.491-2.299c1.905-1.699,4.041-3.322,6.144-4.777c0.183-0.129,0.375-0.258,0.562-0.383
				c2.77,4.895,5.463,9.824,8.295,14.684c3.475,5.971,6.869,12.027,10.209,18.1c-3.835,2.855-6.494,6.783-9.057,10.762
				c-1.277,1.979-2.535,3.975-3.821,5.947c-1.373,2.107-2.832,3.951-4.454,5.855c-0.365,0.428-0.826,0.955-1.243,1.32
				c-0.423,0.369-0.812,0.797-1.229,1.172c-0.514,0.461-1.133,0.879-1.665,1.334c-0.105,0.086-0.125,0.25-0.038,0.355
				c0.086,0.105,0.249,0.125,0.354,0.039c0.596-0.52,1.248-0.971,1.829-1.508c0.998-0.922,2.055-1.926,2.918-2.971
				c0.677-0.816,1.306-1.646,1.959-2.479c0.254-0.32,0.557-0.719,0.782-1.061c1.44-2.203,2.899-4.396,4.329-6.609
				c2.861-4.43,5.463-8.414,9.533-11.793c1.819,3.307,3.624,6.623,5.424,9.936c9.25,17.051,18.23,34.295,26.837,51.677
				c6.188,12.499,12.278,25.018,18.25,37.623c1.655,3.489,3.269,7.003,4.91,10.498c1.008,2.146,1.982,4.311,3.048,6.427
				c1.027,2.045,2.007,4.128,3.087,6.144c1.953,3.648,3.893,7.281,5.903,10.901c3.912,7.051,8.074,14.011,12.288,20.914
				c1.123,2.27,2.242,4.545,3.341,6.825c2.664,5.53,5.386,11.045,8.002,16.599c5.328,11.309,10.651,22.627,16.032,33.912
				c-2.646-6.23-5.261-12.48-8.084-18.634c-1.555-3.394-3.129-6.777-4.713-10.157h0.009c0.125-0.058,0.178-0.216,0.12-0.341
				c-3.048-6.365-6.096-12.725-9.129-19.075c5.625,11.05,11.327,22.085,17.284,32.981c0.49,0.979,0.989,1.968,1.488,2.961
				c4.219,8.391,8.376,16.819,12.596,25.209l0.148,0.053l0.053-0.148c-3.807-7.599-7.599-15.197-11.357-22.733
				c1.69,3.072,3.413,6.216,5.175,9.341c0.015,0.413,0.168,0.826,0.466,1.162c0.168,0.187,0.346,0.384,0.523,0.585
				c1.056,1.862,2.131,3.715,3.226,5.554c0.326,0.576,0.883,0.936,1.492,1.042c0.255,0.557,0.466,1.123,0.624,1.699
				c0.135,0.48,0.355,1.094,0.394,1.589c0.02,0.273,0.097,0.585,0.13,0.864c0.033,0.298,0.038,0.605,0.072,0.903l0.014,0.931
				l-0.168,0.029c-2.078,0.192-4.354,0.125-6.455,0.115c-0.927-0.005-1.987,0.096-3.01,0.34l-0.029-0.129
				c-0.125-0.211-0.321-0.485-0.499-0.667c-0.576-0.6-1.133-1.186-1.805-1.685l-0.581-0.417l-0.394-0.389
				c-0.303-0.293-0.609-0.576-0.922-0.84c-0.234-0.197-0.46-0.302-0.729-0.36l-0.293-0.235c-0.297-0.273-0.57-0.557-0.796-0.845
				c-0.639-0.706-1.704-0.787-2.453-0.211c-0.082-0.183-0.192-0.36-0.331-0.514c-0.26-0.283-0.519-0.566-0.778-0.845
				c-0.009-0.015-0.019-0.029-0.023-0.043c-0.12-0.211-0.283-0.379-0.48-0.509c-5.822-6.355-11.572-12.816-17.539-19.037
				c-5.534-5.77-11.021-11.578-16.569-17.338c-4.949-5.141-9.97-10.214-14.98-15.292c1.757,1.694,3.509,3.394,5.261,5.103
				c1.996,1.949,4.022,3.878,5.995,5.851c2.842,2.846,5.717,5.664,8.554,8.515c3.153,3.173,6.254,6.389,9.374,9.59l0.197,0.005
				l0.004-0.197c-3.124-3.202-6.221-6.427-9.374-9.6c-7.872-7.925-15.902-15.691-23.957-23.429
				c-1.151-1.109-2.304-2.213-3.456-3.312c-3.85-3.854-7.723-7.689-11.558-11.554c-7.268-7.32-14.621-14.568-21.941-21.835
				c-11.361-11.275-22.68-22.589-33.936-33.965c-6.653-6.72-13.272-13.45-19.829-20.256c-4.195-4.876-8.318-9.815-12.298-14.876
				c-4.113-5.23-8.073-10.525-11.976-15.916l-0.173-0.029l-0.029,0.174c1.397,1.91,2.771,3.844,4.187,5.74
				c2.429,3.244,4.9,6.451,7.387,9.652c3.23,4.158,6.609,8.229,10.018,12.25c-0.576-0.6-1.152-1.205-1.724-1.805
				c-6.374-6.787-12.522-13.723-18.6-20.76c0.058-0.135,0.11-0.273,0.168-0.408c0.067-0.191-0.033-0.418-0.226-0.484
				c-0.168-0.062-0.365,0.01-0.427,0.195c-1.215-1.271-2.367-2.615-3.514-3.955c-0.221-0.254-0.438-0.508-0.653-0.762
				c0.192-0.807,0.389-1.613,0.596-2.416c0.043-0.186-0.072-0.379-0.26-0.422c-0.187-0.043-0.379,0.072-0.422,0.26
				c-0.163,0.639-0.317,1.287-0.471,1.93c-6.489-7.594-12.979-15.225-19.699-22.598c-2.121-2.328-4.464-4.541-6.772-6.691
				c-0.927-0.865-1.844-1.738-2.756-2.617c0.375-0.436,0.754-0.863,1.138-1.285c0.048-0.033,0.092-0.068,0.14-0.096
				c0.053,0.129,0.11,0.264,0.168,0.398c-0.105,0.168-0.024,0.287,0.101,0.379c0.024,0.014,0.053,0.033,0.082,0.053
				c0.058,0.139,0.119,0.283,0.182,0.432c0.192,0.471,0.739,0.691,1.21,0.5c0.471-0.193,0.691-0.74,0.499-1.211
				c-0.125-0.283-0.24-0.561-0.359-0.844c0.638-0.902,1.305-1.805,1.978-2.689c3.053-2.438,6.023-5,8.875-7.631
				c3.048-2.822,5.98-5.73,8.855-8.703c0.125,0.125,0.25,0.25,0.38,0.375c0.058,0.057,0.125,0.109,0.191,0.164
				c-1.479,1.449-2.971,2.879-4.479,4.318c-2.654,2.525-5.524,4.729-8.352,7.033c-0.336,0.258-0.394,0.748-0.135,1.084
				c0.26,0.336,0.749,0.395,1.085,0.135c1.358-1.09,2.784-2.121,4.1-3.264c1.195-1.037,2.396-2.064,3.585-3.111
				c3.504-3.072,6.864-6.471,10.104-9.82c1.219-1.268,2.434-2.539,5.875-6.322c0.015-0.01,0.029-0.018,0.043-0.027
				c9.586-5.789,19.776-10.336,30.37-14.104c0.178-0.062,0.269-0.268,0.206-0.445s-0.269-0.27-0.446-0.207
				c-2.491,0.863-5.021,1.828-7.454,2.836c-1.599,0.664-3.202,1.273-4.781,1.979c-0.97,0.432-1.953,0.826-2.918,1.268
				c-3.346,1.531-6.648,3.119-9.907,4.805c0.273-0.221,0.542-0.441,0.807-0.652c1.627-1.33,3.278-2.631,4.891-3.98
				c2.434-2.035,4.954-4.008,7.344-6.086c1.402-1.219,2.871-2.404,4.297-3.596c3.432-2.859,6.868-5.754,10.248-8.684
				c1.593-1.387,3.211-2.75,4.828-4.113C517.298-273.525,517.547-273.127,517.797-272.723z M421.682-266.934
				c-0.178,0.35-0.355,0.699-0.528,1.061c-0.437-0.898-0.873-1.791-1.311-2.68c0.005-0.014,0.01-0.033,0.015-0.047
				c0.029-0.174-0.076-0.342-0.254-0.375c-0.389-0.811-0.778-1.617-1.177-2.424c0.418-0.236,0.846-0.447,1.277-0.629
				C420.366-270.334,421.024-268.639,421.682-266.934z M434.296-266.465c-0.533,0.859-1.051,1.699-1.541,2.602
				c-1.018,1.863-1.92,3.803-2.817,5.727c-0.023,0.049-0.048,0.096-0.072,0.15c-1.209-2.842-2.419-5.693-3.638-8.541
				c0.479-0.906,0.955-1.895,1.531-2.734c0.283-0.418,0.633-0.836,0.897-1.24c0.125-0.186,0.389-0.389,0.547-0.557
				c0.12-0.125,0.188-0.283,0.197-0.441C431.042-269.834,432.674-268.154,434.296-266.465z M418.72-267.102
				c0.029,0.061,0.058,0.123,0.092,0.182c-0.485,2.443-0.773,4.896-0.894,7.354c-1.747,3.322-3.547,6.623-5.179,10.004
				c-1.882,2.318-3.749,4.65-5.645,6.969c0.346-2.404,0.662-4.801,0.945-7.205c0.115-1.027,0.24-2.059,0.369-3.086
				c1.378-1.363,2.789-2.693,4.109-4.119c1.065-1.156,1.848-2.398,2.654-3.744c0.148-0.273,0.043-0.629-0.23-0.777
				s-0.629-0.043-0.777,0.23c-0.355,0.625-0.662,1.287-1.07,1.883c-0.36,0.521-0.792,1.018-1.162,1.531
				c-0.302,0.422-0.772,0.887-1.133,1.275c-0.725,0.773-1.474,1.527-2.213,2.285c0.115-0.932,0.23-1.857,0.351-2.783
				c0.067-0.576,0.14-1.152,0.216-1.729c0.509-0.494,1.013-0.979,1.503-1.455c1.248-1.223,2.457-2.447,3.634-3.748
				c0.619-0.682,1.104-1.465,1.689-2.156c0.244-0.33,0.173-0.805-0.158-1.051c-0.332-0.244-0.807-0.172-1.052,0.158
				c-1.224,1.768-2.717,3.355-4.181,4.93c-0.298,0.312-0.6,0.635-0.902,0.955c0.201-0.551,0.408-1.088,0.619-1.617
				c0.369-0.932,0.734-1.861,1.1-2.783c0.374-0.352,0.743-0.691,1.104-1.033c0.662-0.633,1.368-1.223,2.035-1.842
				c0.754-0.707,1.599-1.416,2.506-2.055C417.606-269.387,418.163-268.25,418.72-267.102z M520.091-266.785l-0.273,0.023
				c-0.753,0.83-1.464,1.703-2.198,2.549c-0.715,0.82-1.488,1.633-2.228,2.434c-2.765,3.01-5.898,5.918-8.875,8.717
				c-3.797,3.566-7.469,7.146-10.978,10.992c-1.78,1.953-3.369,4.008-4.973,6.102c-1.383,1.799-2.559,3.715-3.754,5.629
				c-0.441,0.711-0.94,1.531-1.306,2.281l0.125,0.066c0.696-1.426,1.632-2.809,2.468-4.156c0.633-1.027,1.349-2.012,2.063-2.986
				c4.498-6.115,9.609-11.092,15.163-16.229c1.349-1.248,2.659-2.539,3.994-3.801c2.184-2.074,4.377-4.191,6.432-6.389
				c0.821-0.879,1.752-1.844,2.506-2.771c0.59-0.725,1.229-1.496,1.857-2.188L520.091-266.785z M423.179-263.014
				c-0.081,0.135-0.225,0.365-0.345,0.572c-0.466-0.951-0.932-1.9-1.397-2.855c0.097-0.188,0.192-0.381,0.288-0.572
				c0.067-0.145,0.135-0.283,0.202-0.422C422.349-265.201,422.767-264.107,423.179-263.014z M420.198-263.979
				c-0.446,0.875-0.893,1.748-1.262,2.459c-0.12-1.234,0.076-2.818,0.359-4.383C419.599-265.264,419.896-264.621,420.198-263.979z
				 M440.118-260.301c0.629,0.676,1.258,1.354,1.887,2.035c-0.303,0.307-0.596,0.672-0.859,0.969
				c-1.564,1.719-2.649,4.07-3.59,6.168c-0.749,1.676-1.402,3.428-2.189,5.08c-0.091,0.186-0.183,0.383-0.278,0.584
				c-0.139-0.326-0.273-0.656-0.408-0.982c-0.557-1.354-1.108-2.703-1.665-4.047c1.762-3.428,3.456-6.908,5.266-10.301
				c0.12-0.246,0.023-0.553-0.221-0.672c-0.245-0.121-0.553-0.025-0.672,0.221c-0.625,1.305-1.292,2.611-1.935,3.912
				c-0.955,1.93-1.877,3.893-2.866,5.807c-0.705-1.707-1.421-3.412-2.146-5.111c-0.038-0.086-0.076-0.172-0.11-0.26
				c0.49-0.979,0.975-1.967,1.45-2.961c0.897-1.906,2.016-4.061,3.229-5.855C436.725-263.926,438.424-262.119,440.118-260.301z
				 M409.489-264.891c-0.019,0.01-0.038,0.029-0.062,0.055c0.053-0.246,0.106-0.486,0.159-0.721
				C409.552-265.342,409.523-265.119,409.489-264.891z M496.058-264.068c-2.333,2.002-4.627,3.988-6.907,5.99
				c0.125-0.145,0.245-0.283,0.37-0.422c0.667-0.773,1.329-1.541,2.021-2.338c0.902-0.74,1.838-1.494,2.779-2.238
				c1.041-0.83,2.078-1.65,3.12-2.457C496.965-265.039,496.494-264.539,496.058-264.068z M405.141-264.783
				c-0.24,3.047-0.466,6.096-0.696,9.129c-0.638,0.768-1.238,1.555-1.756,2.322c-0.077,0.105-0.145,0.217-0.212,0.318
				c0.015-0.221,0.034-0.447,0.053-0.668c0.24-3.004,0.461-6.014,0.716-9.023c0.023-0.053,0.048-0.105,0.076-0.158
				c0.317-0.691,1.047-1.451,1.834-2.15C405.15-264.938,405.146-264.861,405.141-264.783z M409.691-262.994
				c0.058-0.422,0.115-0.84,0.173-1.262c0.158-0.129,0.312-0.26,0.465-0.389C410.113-264.098,409.902-263.545,409.691-262.994z
				 M409.015-261.209c-0.145,0.381-0.288,0.764-0.428,1.152c-0.066,0.068-0.134,0.135-0.196,0.207
				c0.259-1.287,0.527-2.568,0.797-3.85c0.058-0.043,0.11-0.086,0.163-0.125C409.235-262.961,409.125-262.092,409.015-261.209z
				 M421.883-260.262c-0.033,0.023-0.066,0.057-0.096,0.09c-1.108,1.201-2.193,2.424-3.259,3.658
				c-0.01-1.074,0.01-2.146,0.066-3.221c0.625-1.209,1.258-2.424,1.877-3.643C420.947-262.342,421.418-261.305,421.883-260.262z
				 M423.707-261.611c-0.071,0.174-0.144,0.346-0.216,0.523c-0.029-0.059-0.053-0.111-0.082-0.164c0.062-0.043,0.12-0.1,0.164-0.162
				c0.043-0.072,0.086-0.145,0.129-0.217C423.702-261.621,423.707-261.615,423.707-261.611z M424.797-258.74
				c0.105,0.33,0.206,0.662,0.312,0.998c-0.292-0.615-0.59-1.225-0.883-1.834c-0.028-0.297-0.053-0.59-0.082-0.889
				C424.36-259.889,424.581-259.316,424.797-258.74z M423.856-260.34c-0.005-0.014-0.01-0.023-0.015-0.033
				c0-0.004,0.005-0.014,0.01-0.023C423.852-260.377,423.852-260.359,423.856-260.34z M492.29-225.4
				c-0.097,0.164-0.049,0.385,0.115,0.48c0.163,0.096,0.384,0.049,0.479-0.115c1.997-3.398,4.243-6.701,6.542-9.898
				c6.495-9.018,14.602-17.793,23.563-24.402c0.153-0.115,0.178-0.342,0.062-0.494c-0.115-0.154-0.341-0.178-0.494-0.062
				C510.544-251.031,499.902-238.188,492.29-225.4z M417.875-255.75c-1.138,1.324-2.261,2.668-3.369,4.021
				c1.056-2.154,2.188-4.285,3.259-6.379c0.034-0.076,0.072-0.148,0.11-0.217C417.856-257.475,417.856-256.615,417.875-255.75z
				 M421.403-256.475c-0.869,1.789-1.729,3.59-2.582,5.391c-0.106-1.062-0.188-2.123-0.235-3.178
				c1.195-1.383,2.414-2.736,3.682-4.057C421.979-257.699,421.691-257.08,421.403-256.475z M424.211-254.963
				c0.115,1.736,0.245,3.475,0.394,5.207c-0.019,0.049-0.038,0.096-0.058,0.148c-0.562,1.316-1.214,2.604-1.775,3.918
				c-0.461,1.07-0.965,2.137-1.445,3.201c-0.076,0.158-0.148,0.322-0.221,0.484c-0.188,0.203-0.374,0.404-0.557,0.605
				c-0.701-2.766-1.238-5.572-1.584-8.4c0.446-0.955,0.897-1.91,1.354-2.855c0.85-1.785,1.714-3.605,2.524-5.43
				C423.299-257.041,423.755-256.004,424.211-254.963z M445.043-254.979c-2.616,2.848-4.449,6-6.148,9.486
				c-0.711,1.453-1.368,2.908-2.002,4.387c-0.475-1.172-0.965-2.338-1.449-3.504c0.101-0.201,0.206-0.404,0.312-0.605
				c1.388-2.77,2.516-5.74,4.138-8.381c0.365-0.59,0.72-1.238,1.138-1.789c0.413-0.549,0.874-1.225,1.358-1.705
				c0.12-0.119,0.245-0.244,0.365-0.365C443.517-256.629,444.28-255.803,445.043-254.979z M408.107-253.826
				c-0.077,0.078-0.149,0.158-0.221,0.23c0.071-0.912,0.144-1.828,0.216-2.746c0.168-0.58,0.346-1.16,0.523-1.742
				C408.453-256.668,408.28-255.252,408.107-253.826z M448.937-250.754c-1.522,2.549-3.149,4.992-4.767,7.502
				c-1.671,2.578-3.504,5.357-4.738,8.186c-0.033,0.07-0.066,0.143-0.101,0.221c-0.527-1.379-1.061-2.756-1.589-4.123
				c-0.158-0.408-0.316-0.812-0.479-1.215c0.863-2.002,1.881-3.975,2.822-5.842c0.321-0.643,0.729-1.254,1.07-1.887
				c1.051-1.953,2.947-4.699,4.637-6.254C446.839-253.029,447.885-251.891,448.937-250.754z M425.531-251.896
				c-0.202,0.451-0.398,0.908-0.591,1.359c-0.096-1.119-0.182-2.238-0.264-3.355C424.965-253.23,425.248-252.562,425.531-251.896z
				 M418.283-249.957c-0.216,0.457-0.432,0.908-0.644,1.363c-2.155,4.535-4.454,9.547-5.692,14.424
				c-0.336,1.32-0.604,2.598-0.821,3.883c-0.57,0.721-1.142,1.445-1.713,2.176c-1.906,2.418-3.701,4.877-5.481,7.371
				c0.307-1.809,0.595-3.623,0.863-5.441c0.461-3.164,0.874-6.322,1.243-9.457c0.039-0.211,0.072-0.393,0.105-0.576
				c0.212-1.176,0.37-2.381,0.548-3.561c0.01-0.096,0.023-0.193,0.038-0.283c1.032-1.211,2.05-2.434,3.077-3.645
				c0.226-0.273,0.451-0.541,0.677-0.807c-1.431,3.48-2.645,6.947-3.418,10.672c-0.191,0.922-0.153,2.059-0.134,3.004
				c0.878-1.604,1.171-4.012,1.689-5.799c0.446-1.525,0.897-3.01,1.411-4.512c0.427-1.242,0.936-2.447,1.392-3.676
				c0.207-0.557,0.441-1.109,0.687-1.652c1.944-2.365,3.864-4.742,5.852-7.064C418.033-252.342,418.14-251.146,418.283-249.957z
				 M403.423-248.215c-0.351,0.547-0.691,1.129-1.018,1.758c-0.097,0.182-0.029,0.412,0.153,0.508s0.413,0.029,0.509-0.152
				c0.005-0.02,0.015-0.035,0.023-0.049c-0.532,3.307-1.056,6.605-1.574,9.912c-0.134,0.148-0.273,0.297-0.408,0.445
				c0.408-4.963,0.787-9.926,1.182-14.889c0.096-0.049,0.177-0.119,0.239-0.217c0.428-0.82,0.946-1.617,1.714-2.312
				C403.97-251.545,403.696-249.881,403.423-248.215z M407.281-247.26c0.168-1.699,0.322-3.264,0.471-4.828
				c0-0.053,0.005-0.102,0.01-0.148c0.058-0.059,0.115-0.115,0.173-0.174C407.724-250.701,407.507-248.986,407.281-247.26z
				 M479.666-249.871c-0.222,0.273-0.438,0.553-0.653,0.816c-3.792,3.428-7.555,6.889-11.271,10.402
				c2.06-2.16,4.172-4.277,6.283-6.342c2.381-2.338,4.8-4.641,7.286-6.932C480.741-251.225,480.193-250.553,479.666-249.871z
				 M476.579-242.268c-0.01,0.006-0.02,0.016-0.023,0.023c-0.701,0.283-1.57,0.797-2.43,1.32c0.749-0.814,1.498-1.637,2.247-2.453
				c0.965-1.064,1.925-2.141,2.88-3.225c1.685-1.459,3.374-2.914,5.073-4.367C481.749-248.037,479.181-245.119,476.579-242.268z
				 M427.033-248.244c-0.066,0.035-0.124,0.078-0.177,0.135c-0.523,0.539-1.042,1.08-1.556,1.623c-0.081-0.83-0.158-1.66-0.23-2.492
				c0.283-0.652,0.566-1.305,0.864-1.947C426.304-250.039,426.669-249.141,427.033-248.244z M453.083-246.285
				c-1.872,2.545-3.537,5.256-5.184,7.93c-1.882,3.039-3.571,6.279-5.203,9.461c-0.197,0.379-0.398,0.768-0.605,1.156
				c-0.734-1.881-1.464-3.762-2.193-5.645c1.791-4.262,4.406-7.939,7.19-11.932c0.999-1.441,1.949-2.871,2.87-4.336
				C451-248.527,452.042-247.402,453.083-246.285z M420.016-240.828c-0.264,0.283-0.527,0.566-0.792,0.855
				c-0.801,0.859-1.555,1.762-2.313,2.654c-1.54,1.809-3.038,3.623-4.521,5.457c0.067-0.287,0.145-0.576,0.216-0.854
				c0.346-1.455,0.725-2.875,1.186-4.301c1.282-3.98,2.909-7.857,4.656-11.664C418.816-246.045,419.349-243.424,420.016-240.828z
				 M424.95-246.117c-0.744,0.783-1.479,1.564-2.208,2.352c0.293-0.672,0.596-1.344,0.907-2c0.379-0.812,0.734-1.633,1.095-2.459
				C424.807-247.518,424.878-246.818,424.95-246.117z M428.862-243.588c-0.71,1.676-1.421,3.355-2.126,5.031
				c-0.154-0.023-0.312-0.006-0.451,0.066c-0.327-2.111-0.591-4.232-0.816-6.363c0.677-0.721,1.363-1.445,2.055-2.16
				C427.975-245.877,428.421-244.734,428.862-243.588z M454.975-244.273c1.78,1.891,3.672,3.695,5.501,5.543
				c0.331,0.332,0.777,0.504,1.219,0.504c-0.351,0.375-0.696,0.76-1.037,1.143c-2.836,3.141-5.309,6.514-7.833,9.902
				c-1.037,1.389-2.069,2.762-3.101,4.115c-1.44,1.266-2.852,2.543-4.234,3.85c-0.302-0.74-0.6-1.479-0.897-2.219
				c1.954-4.574,4.824-8.17,8.06-12.172c1.392-1.729,2.63-3.52,3.955-5.291c0.197-0.283,0.125-0.682-0.158-0.877
				c-0.283-0.197-0.682-0.125-0.879,0.158c-0.58,0.85-1.133,1.752-1.732,2.576c-1.814,2.502-3.777,4.936-5.529,7.471
				c-0.639,0.916-1.488,2.01-2.012,2.994c-0.403,0.764-0.878,1.502-1.281,2.275c-0.312,0.586-0.596,1.182-0.859,1.781
				c-0.552-1.383-1.1-2.77-1.646-4.158c1.651-3.277,3.456-6.537,5.313-9.637c0.648-1.08,1.33-2.133,1.987-3.207
				c0.566-0.926,1.186-1.801,1.8-2.697c0.725-1.061,1.493-2.141,2.295-3.193C454.259-245.031,454.614-244.652,454.975-244.273z
				 M426.122-238.307c-0.034-0.035-0.053-0.016-0.067,0.01c-0.451,0.514-0.879,1.08-1.311,1.617c-0.667,0.82-1.33,1.646-1.992,2.471
				c-0.183-0.512-0.36-1.031-0.532-1.545c-0.442-1.287-0.846-2.588-1.21-3.896c0.096-0.24,0.196-0.48,0.302-0.727
				c1.258-1.371,2.53-2.75,3.816-4.113C425.363-242.412,425.637-240.338,426.122-238.307z M431.584-236.344
				c-0.845,0.955-1.67,1.939-2.477,2.898c-0.519,0.609-1.022,1.219-1.521,1.838c-0.375-1.641-0.706-3.287-0.984-4.938
				c0.043-0.115,0.087-0.23,0.13-0.336c0.144-0.184,0.283-0.361,0.427-0.533c0.173-0.221,0.192-0.52,0.082-0.76
				c0.619-1.578,1.248-3.158,1.882-4.736C429.957-240.727,430.772-238.533,431.584-236.344z M530.263-240.885
				c-5.323,5.486-10.258,11.256-14.818,17.391c-1.396,1.881-2.817,3.807-4.113,5.754c-0.479,0.721-1.008,1.436-1.459,2.17
				c-0.096,0.145-0.058,0.346,0.086,0.441c0.145,0.098,0.346,0.059,0.442-0.086c0.585-0.955,1.276-1.896,1.91-2.822
				c1.186-1.729,2.429-3.494,3.7-5.16c2.17-2.836,4.32-5.611,6.625-8.348c2.562-3.047,5.318-6.037,8.088-8.898
				c0.119-0.125,0.115-0.332-0.01-0.451S530.383-241.01,530.263-240.885z M470.046-235.264c-0.009,0.004-0.014,0.01-0.019,0.014
				c0.028-0.129-0.048-0.221-0.13-0.303c-0.135-0.133-0.269-0.264-0.403-0.393c0.95-1.008,1.896-2.021,2.842-3.043
				c0.696-0.395,1.517-0.85,2.516-1.389C473.272-238.648,471.684-236.926,470.046-235.264z M459.597-237.855
				c0.264-0.318,0.538-0.629,0.807-0.941v-0.004C460.135-238.49,459.865-238.174,459.597-237.855z M422.238-233.564
				c-0.355,0.441-0.705,0.883-1.056,1.33c-1.762,2.207-3.571,4.381-5.371,6.561c0.571-1.9,1.229-3.797,1.886-5.592
				c0.894-2.453,1.867-4.871,2.861-7.287c0.015-0.037,0.028-0.072,0.043-0.109C421.091-236.949,421.644-235.25,422.238-233.564z
				 M416.286-230.367c-0.84,2.273-1.637,4.568-2.299,6.902c-0.148,0.178-0.293,0.354-0.437,0.537
				c-3.495,4.268-7.095,8.602-10.325,13.08c-0.715,0.988-1.436,1.977-2.146,2.971c0.033-0.139,0.067-0.277,0.105-0.418
				c0.975-3.998,1.795-8.006,2.506-12.047c2.299-3.174,4.699-6.26,7.19-9.27c-0.082,0.633-0.149,1.277-0.207,1.939
				c-0.023,0.264,0.173,0.508,0.438,0.533c0.264,0.023,0.509-0.174,0.532-0.438c0.072-0.801,0.135-1.65,0.25-2.447
				c0.048-0.336,0.105-0.668,0.168-1c1.958-2.318,3.97-4.598,6.033-6.834c0.476-0.527,0.955-1.051,1.436-1.574
				C418.379-235.768,417.271-233.061,416.286-230.367z M463.782-236.795c-1.181,1.33-2.347,2.668-3.527,4.002
				c-1.022,1.143-2.012,2.314-2.986,3.49c-1.564,1.215-3.11,2.463-4.627,3.734c1.32-1.68,2.649-3.355,3.994-5.016
				c1.622-2.006,3.307-3.863,5.097-5.723c0.39-0.412,0.812-0.84,1.248-1.266C463.245-237.314,463.514-237.055,463.782-236.795z
				 M427.336-231.299c-0.787,0.975-1.56,1.957-2.313,2.947c-0.288-0.668-0.562-1.334-0.83-2.012c0.72-1.857,1.444-3.721,2.169-5.578
				C426.649-234.385,426.972-232.84,427.336-231.299z M423.89-231.631c-0.033,0.078-0.067,0.158-0.101,0.24
				c-0.168-0.432-0.331-0.869-0.49-1.305c0.673-0.803,1.345-1.609,2.002-2.416C424.825-233.959,424.355-232.797,423.89-231.631z
				 M466.308-234.348c-0.514,0.562-1.032,1.119-1.561,1.67c-1.819,1.887-3.629,3.75-5.477,5.611
				c-2.356,2.371-4.892,4.666-7.479,6.865c0.912-1.166,1.824-2.338,2.755-3.49c0.288-0.287,0.581-0.57,0.874-0.854
				c2.002-1.949,3.96-3.984,6.01-5.881c1.517-1.41,3.033-2.822,4.555-4.234C466.091-234.553,466.202-234.453,466.308-234.348z
				 M401.229-234.395c-0.173,1.117-0.346,2.24-0.519,3.359c0.097-1.146,0.197-2.295,0.293-3.438
				C401.075-234.434,401.152-234.41,401.229-234.395z M428.915-226.969c-0.067-0.098-0.139-0.197-0.206-0.293
				c-0.197-0.672-0.384-1.35-0.557-2.025c1.186-1.465,2.395-2.967,3.643-4.426C430.816-231.473,429.847-229.221,428.915-226.969z
				 M433.955-229.715c0.168,0.451,0.341,0.902,0.509,1.357c0.173,0.639,0.331,1.287,0.504,1.936
				c-0.931,1.354-1.867,2.688-2.822,3.998c-0.936-1.301-1.862-2.607-2.789-3.912c0.994-2.477,2.021-4.939,3.217-7.324
				C433.053-232.355,433.461-231.021,433.955-229.715z M423.409-230.436c-1.161,2.908-2.304,5.852-3.321,8.832
				c-0.479,0.688-0.96,1.373-1.435,2.068c-6.212,8.963-12.062,18.158-18.466,26.99c-0.173,0.246-0.115,0.592,0.129,0.764
				c0.245,0.174,0.591,0.115,0.764-0.129c2.702-3.807,5.419-7.594,8.093-11.424c3.13-4.484,6.216-8.977,9.398-13.416
				c-0.701,2.496-1.277,5.016-1.671,7.574c-0.053,0.316,0.159,0.623,0.476,0.676s0.624-0.158,0.677-0.475
				c0.351-2.227,0.859-4.314,1.383-6.504c0.302-1.277,0.643-2.572,1.013-3.869c1.607-2.193,3.244-4.33,4.92-6.451
				c0.527,1.186,1.085,2.361,1.656,3.529c-1.465,3.682-2.914,7.377-4.124,11.15c-0.071,0.215-0.144,0.432-0.211,0.646
				c-0.734,0.875-1.459,1.758-2.203,2.621c-1.579,1.82-3.144,3.658-4.694,5.502c-3.471,4.133-6.859,8.217-10.003,12.6
				c-0.183,0.25-0.125,0.604,0.125,0.787c0.249,0.182,0.604,0.125,0.787-0.125c4.454-6.236,9.571-11.895,14.645-17.625
				c0.091-0.111,0.188-0.217,0.283-0.322c-0.303,0.998-0.596,1.996-0.884,3.01c-0.374,1.305-0.647,2.674-0.95,4.002
				c-0.316,1.408-0.58,2.756-0.705,4.195c-0.01,0.049-0.015,0.102-0.005,0.15c-2.88,3.781-5.722,7.588-8.511,11.447
				c-0.235,0.32-0.163,0.777,0.158,1.012c0.322,0.236,0.778,0.164,1.013-0.158c2.228-2.99,4.421-5.965,6.696-8.922
				c3.629-4.715,7.401-9.316,11.18-13.916c-0.739,2.006-1.445,4.027-2.05,6.059c-0.494,1.65-1.037,3.336-1.411,5.016
				c-0.058,0.244,0.096,0.494,0.341,0.553c0.244,0.057,0.494-0.098,0.552-0.342c0.874-4.219,2.141-8.371,3.538-12.471
				c0.912-1.109,1.818-2.213,2.726-3.32c1.167-1.436,2.314-2.887,3.456-4.346c0.029,0.043,0.058,0.082,0.092,0.125
				c0.144,0.197,0.293,0.398,0.441,0.6c-1.546,5.4-3.298,10.729-4.483,14.953l-0.01,0.02c-2.529,3.738-4.968,7.535-7.492,11.275
				c-1.147,1.693-2.28,3.396-3.471,5.062c-0.907,1.268-1.872,2.486-2.799,3.734c-0.221,0.293-0.168,0.721,0.125,0.941
				s0.72,0.168,0.941-0.125c0.95-1.271,1.943-2.52,2.875-3.811c1.685-2.344,3.278-4.752,4.925-7.129
				c1.09-1.578,2.16-3.158,3.24-4.727c-0.5,1.717-0.975,3.445-1.416,5.184c-0.37,1.439-0.658,2.885-0.965,4.338
				c-0.062,0.346,0.168,0.691,0.514,0.754s0.69-0.168,0.753-0.514c0.312-2.082,0.807-4.113,1.272-6.162
				c0.461-2.055,1.008-4.086,1.569-6.111c2.808-4.027,5.712-7.949,9.067-11.559c0.441,0.576,0.888,1.158,1.334,1.738
				c-0.201,0.643-0.408,1.287-0.629,1.92c-1.046,2.98-2.121,5.951-3.182,8.928c-1.536,4.291-3.154,9.053-4.004,13.719
				c-1.469,2.035-2.908,4.08-4.354,6.135c-1.454,2.059-2.913,4.127-4.396,6.168c-0.02,0.018-0.033,0.037-0.048,0.057
				c-9.884-7.709-19.623-15.59-29.189-23.688c1.022-0.533,2.079-1.061,3.044-1.65c0.269-0.168,0.619-0.342,0.955-0.533l0.101-0.076
				l0.153-0.092l0.605-0.467l0.124-0.238c0.764-1.383-0.489-2.805-1.823-2.549l-0.566,0.211c-0.519,0.297-1.1,0.57-1.646,0.844
				c0.379-1.113,0.753-2.223,1.09-3.346c0.379-1.295,0.743-2.596,1.089-3.902c1.656-2.391,3.451-4.727,5.198-6.959
				c2.434-3.121,4.987-6.174,7.575-9.193c-0.341,1.398-0.663,2.973-0.677,4.336c-0.034,0.307,0.191,0.59,0.499,0.623
				c0.307,0.033,0.59-0.191,0.624-0.498c0.014-0.404,0.139-0.955,0.211-1.369c0.201-1.18,0.471-2.352,0.72-3.523
				c0.11-0.527,0.235-1.061,0.37-1.594c0.97-1.127,1.943-2.25,2.918-3.369c1.579-1.834,3.168-3.652,4.733-5.496
				C422.982-231.535,423.193-230.982,423.409-230.436z M534.611-229.24c-0.317,0.303-0.619,0.639-0.94,0.932
				c-0.726,0.662-1.469,1.564-2.112,2.318c-1.171,1.373-2.309,2.746-3.384,4.199c-1.796,2.43-3.672,4.824-5.386,7.307
				c-1.406,2.035-2.962,3.969-4.445,5.947c-0.091,0.115-0.067,0.293,0.048,0.383c0.115,0.092,0.293,0.068,0.385-0.047
				c0.936-1.244,1.934-2.449,2.836-3.715c1.939-2.727,3.951-5.502,6.005-8.146c1.872-2.41,3.658-4.785,5.766-6.994
				c0.916-0.965,1.9-2.002,2.938-2.836c0.129-0.115,0.144-0.322,0.028-0.451c-0.115-0.131-0.321-0.145-0.451-0.029
				C535.48-229.988,535.02-229.633,534.611-229.24z M424.528-227.703c-0.864,1.137-1.714,2.289-2.554,3.455
				c0.585-1.748,1.209-3.475,1.848-5.15C424.053-228.832,424.288-228.27,424.528-227.703z M428.181-228.016
				c-0.12-0.168-0.24-0.342-0.355-0.51c-0.048-0.066-0.115-0.109-0.191-0.119c0.091-0.115,0.188-0.23,0.278-0.346
				C427.998-228.668,428.09-228.342,428.181-228.016z M427.355-228.199c0.437,0.611,0.873,1.225,1.306,1.834c0,0.006,0,0.01,0,0.02
				c-0.298,0.73-0.596,1.469-0.889,2.209c-0.129,0.316-0.259,0.637-0.384,0.955c-0.504-1.086-1.022-2.166-1.521-3.25
				c0.485-0.615,0.97-1.219,1.454-1.83C427.331-228.236,427.341-228.217,427.355-228.199z M453.664-224.838
				c-1.877,1.93-3.715,3.854-5.529,5.803c-0.596,0.629-1.19,1.271-1.781,1.916c-0.216-0.52-0.427-1.037-0.644-1.557
				c0.332-0.307,0.658-0.613,0.994-0.916c0.389-0.365,0.777-0.721,1.171-1.076c-0.398,0.514-0.802,1.027-1.2,1.541
				c-0.119,0.158-0.096,0.395,0.062,0.514c0.158,0.121,0.394,0.096,0.514-0.062c1.21-1.545,2.42-3.096,3.639-4.656
				c1.531-1.314,3.091-2.605,4.675-3.877C454.927-226.422,454.293-225.631,453.664-224.838z M431.8-221.953
				c-1.646,2.256-3.341,4.459-5.111,6.662c-0.764,0.941-1.531,1.906-2.318,2.842c0.374-1.195,0.763-2.391,4.867-12.553l0.014,0.01
				l0.102-0.188c-0.01-0.023-0.015-0.043-0.024-0.066c-2.516,5.572-2.506,5.549,0.048-0.121
				C430.183-224.229,430.989-223.092,431.8-221.953z M436.201-223.557c-0.527,1.492-1.089,2.971-1.655,4.455
				c-0.433-0.596-0.864-1.191-1.291-1.781c0.422-0.572,0.85-1.148,1.281-1.715c0.461-0.613,0.883-1.266,1.315-1.91
				C435.976-224.176,436.091-223.859,436.201-223.557z M437.589-219.717c0.015,0.043,0.033,0.086,0.053,0.135
				c-0.596,0.754-1.19,1.512-1.785,2.27c-0.39-0.527-0.773-1.055-1.157-1.584c0.533-1.469,1.065-2.941,1.594-4.416
				C436.807-221.926,437.195-220.826,437.589-219.717z M434.296-218.459c-0.662,1.723-1.339,3.441-1.987,5.17
				c-0.13,0.336-0.259,0.672-0.389,1.012c-2.299,2.947-4.594,5.904-6.883,8.865c-1.503,1.93-2.995,3.869-4.483,5.809
				c0.24-1.064,0.461-2.141,0.701-3.211c0.59-2.697,1.291-5.424,2.063-8.107c0.816-0.916,1.632-1.834,2.429-2.76
				c1.109-1.301,2.213-2.641,3.351-3.912c1.363-1.531,2.587-3.168,3.807-4.809C433.365-219.756,433.83-219.107,434.296-218.459z
				 M442.211-216.055c-0.206,0.207-0.412,0.412-0.619,0.619c-0.394-0.383-0.787-0.764-1.181-1.137
				c-0.264-0.26-0.691-0.256-0.95,0.01c-0.26,0.264-0.255,0.691,0.01,0.949c0.384,0.379,0.772,0.764,1.156,1.152
				c-0.504,0.514-1.008,1.031-1.502,1.555c-0.37-0.488-0.729-0.975-1.09-1.459c0.278-1.018,0.557-2.029,0.835-3.047
				c0.02-0.102,0-0.203-0.053-0.283c0.23-0.293,0.461-0.592,0.696-0.885c0.105-0.014,0.211-0.043,0.316-0.076
				c0.365-0.135,0.663-0.379,0.864-0.682C441.188-218.244,441.697-217.148,442.211-216.055z M435.481-216.828
				c-0.95,1.205-1.896,2.416-2.842,3.625c0.255-0.695,0.504-1.393,0.759-2.088c0.351-0.984,0.706-1.963,1.061-2.943
				C434.795-217.768,435.136-217.297,435.481-216.828z M437.512-215.07c-0.12-0.158-0.239-0.322-0.354-0.48
				c0.254-0.33,0.509-0.658,0.763-0.988C437.786-216.045,437.651-215.555,437.512-215.07z M442.547-215.354
				c0.255,0.553,0.764,0.912,1.325,1.004c-0.183,0.201-0.355,0.406-0.533,0.609c-0.446-0.434-0.888-0.865-1.329-1.291
				c0.153-0.16,0.312-0.318,0.466-0.471C442.499-215.455,442.523-215.406,442.547-215.354z M442.259-212.795
				c-0.614,0.432-1.229,0.863-1.838,1.295c-0.058,0.039-0.101,0.092-0.13,0.15c-0.273-0.365-0.547-0.73-0.82-1.096
				c0.519-0.537,1.041-1.07,1.564-1.604C441.443-213.635,441.852-213.217,442.259-212.795z M438.707-212.469
				c-0.01,0.01-0.019,0.02-0.028,0.033c-0.105,0.111-0.105,0.293,0.005,0.398c0.096,0.096,0.259,0.102,0.364,0.02
				c0.571,0.758,1.152,1.518,1.729,2.27c-1.09,1.234-2.132,2.482-3.202,3.797c-1.143,1.393-2.251,2.924-3.307,4.451
				c0.777-2.664,1.598-5.314,2.386-7.979c0.402-1.387,0.796-2.77,1.181-4.152C438.122-213.246,438.414-212.857,438.707-212.469z
				 M441.611-210.664c0.02,0.014,0.043,0.033,0.072-0.01c-0.207,0.148-0.36,0.316-0.514,0.49c-0.154-0.207-0.308-0.408-0.461-0.615
				c0.053-0.01,0.105-0.029,0.153-0.057c0.168-0.121,0.341-0.24,0.509-0.361C441.361-211.014,441.443-210.809,441.611-210.664z
				 M446.392-208.287c1.656,1.91,3.24,3.955,4.949,5.807c1.795,1.949,3.566,3.936,5.309,5.947c-0.494,1.426-0.965,2.861-1.416,4.297
				c-1.507-1.857-3-3.725-4.483-5.592c0.02-0.039,0.034-0.082,0.049-0.115c0.283-0.279,0.562-0.549,0.845-0.807
				c0.269-0.26,0.283-0.697,0.023-0.965c-0.028-0.029-0.053-0.053-0.096-0.006c0.005-0.02,0.015-0.037,0.023-0.053
				c0.097-0.23-0.014-0.504-0.244-0.6H451c-0.11,0.043-0.201,0.129-0.25,0.244c-0.091,0.188-0.177,0.381-0.259,0.576
				c-0.216,0.193-0.427,0.389-0.634,0.592c-0.015-0.02-0.028-0.035-0.038-0.049c-2.012-2.543-3.994-5.092-5.962-7.65
				c0.173-0.549,0.346-1.096,0.533-1.637c0.038-0.131-0.034-0.27-0.163-0.309c-0.13-0.037-0.27,0.035-0.308,0.164
				c-0.148,0.432-0.288,0.869-0.427,1.305c-0.385-0.504-0.769-1.002-1.147-1.502c0.591-0.623,1.195-1.242,1.819-1.844
				c0.043-0.053,0.086-0.105,0.125-0.158C444.995-209.867,445.696-209.09,446.392-208.287z M552.4-207.842l-0.317,0.029
				c-1.387,1.564-2.707,3.178-4.118,4.742c-5.223,5.793-10.143,11.332-13.339,18.527l0.163,0.076
				c1.775-3.998,4.108-7.367,6.802-10.775c1.93-2.443,4.219-4.719,6.292-7.051c0.706-0.797,1.45-1.584,2.137-2.395
				c0.797-0.941,1.593-1.92,2.409-2.838L552.4-207.842z M445.975-202.965c1.128,1.479,2.299,2.938,3.461,4.396
				c-1.714,1.627-3.317,3.293-4.939,5.055c-2.28,2.473-4.411,5.367-6.423,8.059c-0.297,0.395-0.59,0.787-0.883,1.186
				c0.691-3.719,1.781-7.449,2.875-10.857c0.96-3.004,1.959-6.014,2.985-8.994c0.212-0.619,0.408-1.248,0.605-1.877
				C444.429-204.99,445.201-203.982,445.975-202.965z M455.042-191.607c-0.27,0.863-0.528,1.732-0.783,2.602
				c-1.021,0.887-2.001,1.822-2.923,2.812c-2.098,2.221-4.056,4.602-5.895,7.088c0.303-1.967,0.725-3.92,1.186-5.855
				c0.418-1.756,0.884-3.557,1.436-5.273c0.484-1.508,1.008-2.982,1.521-4.479c0.278-0.826,0.591-1.672,0.927-2.512
				C452.008-195.342,453.521-193.471,455.042-191.607z M448.95-195.697c-0.652,1.756-1.349,3.547-1.896,5.338
				c-0.644,2.102-1.229,4.17-1.786,6.301c-0.619,2.377-1.013,4.719-1.401,7.129c-0.005,0.01-0.005,0.02-0.01,0.033
				c-3.125,4.492-5.903,9.279-8.452,14.084c-2.655-2.027-5.3-4.066-7.935-6.115c0.019-0.029,0.043-0.059,0.067-0.088
				c1.42-1.92,2.803-3.873,4.219-5.797c1.108-1.514,2.218-3.02,3.326-4.527c-0.043,0.359-0.076,0.721-0.105,1.08
				c-0.038,0.412,0.269,0.787,0.682,0.826c0.413,0.037,0.787-0.27,0.825-0.682c0.034-1.158,0.135-2.328,0.293-3.514
				c0.105-0.145,0.221-0.299,0.336-0.447c1.162-1.559,2.405-3.072,3.591-4.617c1.464-1.904,3.125-3.662,4.68-5.48
				c1.2-1.412,2.481-2.812,3.802-4.168C449.108-196.125,449.027-195.914,448.95-195.697z M459.808-192.855
				c-0.201,0.09-0.46,0.277-0.652,0.389c-0.509,0.287-1.08,0.6-1.556,0.932c-0.379,0.258-0.768,0.518-1.151,0.787
				c-0.226-0.275-0.446-0.549-0.672-0.822c0.437-1.463,0.902-2.918,1.401-4.357C458.056-194.91,458.935-193.889,459.808-192.855z
				 M549.631-186.68c-1.599,2.146-3.054,4.402-4.599,6.582c-0.782,1.1-1.594,2.318-2.463,3.34c-0.562,0.662-1.123,1.291-1.694,1.945
				l0.015,0.283l0.283-0.016c0.955-1.113,1.877-2.145,2.76-3.33c1.92-2.584,3.662-5.295,5.573-7.887
				c2.39-3.24,5.021-6.926,8.486-9.102l0.053-0.291l-0.293-0.055C554.551-193.322,551.819-189.611,549.631-186.68z M404.1-187.096
				c-2.443-1.91-4.896-3.82-7.35-5.717c0.11-0.049,0.207-0.115,0.293-0.191l0.005-0.01C399.4-191.037,401.747-189.059,404.1-187.096
				z M465.064-186.607c2.539,3.043,5.068,6.102,7.593,9.158c-0.384,1.459-0.777,2.914-1.176,4.373
				c-0.364-0.422-0.729-0.84-1.09-1.258c0.14-0.158,0.279-0.316,0.423-0.469c0.316-0.375,0.264-0.947-0.11-1.264
				c-0.375-0.316-0.945-0.264-1.263,0.111c-0.076,0.086-0.153,0.172-0.23,0.264c-1.579-1.83-3.153-3.658-4.728-5.486
				c-0.029-0.121-0.092-0.236-0.183-0.322c-0.067-0.062-0.14-0.109-0.216-0.145c-0.264-0.307-0.523-0.609-0.782-0.912
				c-0.346-0.402-0.691-0.805-1.037-1.209c0.153-0.695,0.298-1.396,0.441-2.088c0.029-0.162-0.081-0.33-0.245-0.359
				c-0.163-0.029-0.331,0.082-0.359,0.244c-0.115,0.533-0.226,1.07-0.336,1.613c-1.561-1.838-3.11-3.701-4.642-5.568
				c0.965-0.893,1.948-1.771,2.962-2.611C461.757-190.566,463.413-188.584,465.064-186.607z M395.315-190.23
				c8.111,6.234,15.734,12.984,23.304,19.877c1.714,1.559,3.451,3.096,5.193,4.631c-0.139,0.193-0.278,0.385-0.412,0.576
				c-0.163,0.217-0.115,0.533,0.101,0.697c0.216,0.162,0.532,0.115,0.696-0.102c0.119-0.174,0.239-0.342,0.364-0.51
				c0.523,0.461,1.051,0.928,1.574,1.393c6.648,5.9,13.277,11.789,19.987,17.617c1.844,1.598,3.759,3.11,5.602,4.704
				c4.814,3.979,9.639,7.949,14.448,11.914c0.043,0.053,0.082,0.091,0.13,0.125c0.019,0.015,0.043,0.029,0.067,0.039
				c3.437,2.832,6.868,5.664,10.301,8.505c14.429,11.938,28.848,23.895,43.482,35.578c7.57,6.048,15.221,11.961,22.887,17.885
				c2.103,1.623,4.229,3.235,6.36,4.829c-0.355,0.375-0.706,0.754-1.042,1.147c-0.197,0.211-0.188,0.557,0.024,0.753
				c0.211,0.197,0.557,0.188,0.753-0.024c0.355-0.427,0.729-0.84,1.114-1.248c5.044,3.759,10.146,7.445,15.244,11.122
				c1.925,1.344,3.792,2.765,5.669,4.171c5.616,4.214,11.069,8.693,16.426,13.229c1.987,1.68,3.97,3.379,5.909,5.122
				c-0.145,0.484,0.134,0.984,0.609,1.128c0.235,0.067,0.484,0.038,0.691-0.067c5.414,4.689,10.785,9.427,16.209,14.107
				c-6.988-3.523-14.001-6.994-21.033-10.431c-11.731-5.736-23.568-11.28-35.419-16.771c-4.57-2.117-9.14-4.229-13.714-6.332
				c-2.074-1.186-4.147-2.38-6.211-3.576c-1.638-0.864-3.245-1.8-4.877-2.679c-3.077-1.661-6.245-3.153-9.38-4.704
				c-1.54-0.763-3.124-1.455-4.685-2.179c-3.249-1.512-6.542-2.947-9.835-4.358c-4.479-1.92-8.977-3.792-13.498-5.688
				c-0.575-0.355-1.181-0.725-1.78-1.09c-11.045-6.744-22.013-13.651-32.875-20.736c-1.882-1.152-3.729-2.352-5.563-3.581
				c-11.534-7.488-22.954-15.144-34.272-22.901c-7.181-4.925-14.313-9.888-21.432-14.88c0.053-0.048,0.105-0.096,0.158-0.144
				c0.097-0.091,0.101-0.259,0.01-0.355c-0.091-0.096-0.259-0.101-0.355-0.01c-0.081,0.067-0.163,0.139-0.239,0.211
				c-2.348-1.646-4.695-3.298-7.037-4.944l-0.168,0.034l0.033,0.168c2.328,1.637,4.656,3.274,6.984,4.906
				c-2.203,2.016-4.407,4.752-6.101,7.411c-1.857-1.037-3.715-2.078-5.573-3.11c-7.315-4.08-14.654-8.103-21.989-12.144
				c0.183-0.226,0.36-0.451,0.542-0.677c1.824-2.294,3.787-4.618,5.846-6.706c0.615-0.624,1.19-1.301,1.81-1.92
				c2.309-2.31,4.752-4.646,7.248-6.749l0.029-0.297l-0.297-0.029c-6.226,4.354-11.107,10.113-15.663,16.113
				c-0.547-0.302-1.094-0.604-1.637-0.902c-1.757-0.969-3.523-1.929-5.29-2.88c-0.192-0.115-0.379-0.23-0.566-0.346
				c2.664-2.722,5.05-5.63,7.613-8.486c2.851-3.183,5.41-6.149,8.871-8.659c0.158-0.115,0.192-0.35,0.077-0.509
				c-0.115-0.158-0.351-0.192-0.509-0.077c-2.275,1.521-4.45,3.648-6.288,5.67c-0.984,1.079-1.939,2.164-2.909,3.258
				c-0.816,0.922-1.575,1.92-2.376,2.856c-1.656,1.925-3.278,3.816-5.03,5.616c-1.944-1.181-3.888-2.362-5.823-3.542l-0.009-0.005
				c0.749-0.297,1.425-0.758,2.107-1.166c0.312-0.187,0.614-0.466,0.902-0.691c1.575-1.225,2.88-2.866,4.075-4.455
				c2.746-3.652,4.867-7.968,8.006-11.314l-0.019-0.307l-0.307,0.02c-2.491,2.674-4.421,5.995-6.446,9.023
				c-2.002,2.991-3.994,5.804-7.08,7.752c-0.595,0.375-1.133,0.634-1.689,0.859c-2.727-1.67-5.443-3.365-8.155-5.064
				c4.027-4.589,8.448-8.765,12.94-12.94c0.965-0.52,1.925-1.037,2.885-1.561c4.123-2.252,8.241-4.521,12.292-6.906
				c4.661-2.746,9.283-5.463,13.858-8.357c1.205-0.764,2.419-1.512,3.609-2.295c0.01-0.01,0.019-0.02,0.034-0.023
				c3.048-1.521,6.082-3.082,9.082-4.686C394.365-190.951,394.84-190.596,395.315-190.23z M456.002-190.432
				c-0.11,0.076-0.221,0.158-0.327,0.25c-0.931,2.25-0.522,0.744-0.086-0.754C455.728-190.768,455.862-190.6,456.002-190.432z
				 M458.444-187.477c1.057,1.268,2.112,2.535,3.178,3.803c-0.11,0.514-0.23,1.031-0.369,1.535
				c-0.394,1.402-0.797,2.789-1.215,4.172c-0.259,0.287-0.514,0.58-0.768,0.869c-0.629,0.709-1.186,1.516-1.8,2.246
				c-0.308,0.365-0.581,0.758-0.874,1.137c-1.526,1.973-2.933,3.98-4.382,6c-2.079,2.9-3.989,5.938-5.876,8.963
				c-0.59,0.936-1.181,1.905-1.752,2.885c-2.855-2.137-5.702-4.291-8.539-6.457c1.757-3.221,3.629-6.365,5.636-9.465
				c0.6-0.941,1.233-1.896,1.891-2.846c-0.062,0.695-0.105,1.387-0.115,2.029c-0.015,0.385,0.278,0.715,0.663,0.73
				c0.384,0.014,0.715-0.279,0.729-0.664c0.038-0.494,0.028-1.012,0.053-1.512c0.038-0.922,0.134-1.857,0.239-2.779
				c0.673-0.902,1.359-1.785,2.055-2.625c1.637-1.982,3.269-3.83,5.002-5.721c0.432-0.477,0.888-0.932,1.358-1.383
				c-1.608,5.736-2.99,11.52-4.454,17.348c-0.082,0.363,0.153,0.734,0.518,0.814c0.365,0.082,0.734-0.152,0.816-0.518
				c0.802-3.945,1.67-7.867,2.554-11.793c0.514-2.305,1.065-4.609,1.67-6.893c0.341-0.322,0.687-0.639,1.022-0.961
				c0.346-0.33,0.691-0.662,1.042-0.992C457.298-188.857,457.869-188.166,458.444-187.477z M463.398-181.576
				c-0.033,0.023-0.067,0.053-0.096,0.086c-0.734,0.691-1.517,1.521-2.175,2.285c-0.015,0.01-0.023,0.023-0.033,0.033
				c0.35-1.066,0.7-2.49,1.022-3.922C462.544-182.584,462.972-182.08,463.398-181.576z M564.568-180.67
				c-0.288,0.25-0.558,0.543-0.836,0.803c-0.71,0.666-1.598,1.377-2.38,1.967c-0.884,0.668-1.796,1.354-2.641,2.064
				c-2.52,2.107-4.574,3.6-5.712,6.811c-0.125,0.355-0.259,0.898-0.273,1.273c-0.015,0.445-0.077,1.08,0.019,1.512
				c0.005,0.115,0.111,0.201,0.227,0.197c0.115-0.006,0.201-0.111,0.196-0.227c-0.053-0.225-0.058-0.711-0.043-0.955
				c0.187-3.293,2.606-5.832,5.093-7.805c0.647-0.514,1.271-1.066,1.92-1.588c0.677-0.549,1.349-1.125,2.025-1.666
				c0.922-0.734,1.752-1.57,2.592-2.396c0.303-0.297,0.562-0.695,0.874-0.988C565.365-181.652,564.804-180.871,564.568-180.67z
				 M468.832-175.246c-2.261,2.703-4.306,5.736-6.201,8.689c-1.911,2.971-3.812,5.961-5.679,8.961
				c-1.531,2.458-3.24,4.887-4.992,7.21c-2.228-1.642-4.444-3.288-6.657-4.944c2.231-3.85,4.757-7.531,7.363-11.146
				c2.006-2.797,4.118-5.461,6.316-8.098c-0.101,0.318-0.206,0.639-0.308,0.961c-1.79,5.52-3.71,11.299-4.008,17.141
				c-0.019,0.395,0.278,0.74,0.672,0.759s0.739-0.278,0.759-0.672c0.077-2.007,0.24-3.888,0.552-5.876
				c0.36-2.295,0.945-4.535,1.546-6.777c0.619-2.338,1.311-4.666,2.007-6.988c1.31-1.537,2.678-3.053,4.108-4.479
				C465.812-178.744,467.32-176.992,468.832-175.246z M477.021-172.168c-0.302,0.945-0.585,1.9-0.85,2.855
				c-0.398-0.172-0.878-0.092-1.181,0.23c-0.95-1.076-1.896-2.15-2.842-3.23c0.173-0.682,0.351-1.359,0.528-2.035
				c0.201-0.793,0.394-1.58,0.586-2.371C474.516-175.201,475.768-173.686,477.021-172.168z M471.299-172.414
				c-0.6,2.166-1.214,4.33-1.838,6.49c-0.634,2.17-1.311,4.378-1.944,6.591c-2.193,3.043-4.334,6.13-6.479,9.207
				c-0.989,1.411-2.03,2.779-3.092,4.137c-1.651-1.209-3.302-2.419-4.953-3.633c1.689-2.165,3.235-4.502,4.78-6.749
				c4.037-5.881,7.57-12.105,12.235-17.521C470.436-173.402,470.867-172.908,471.299-172.414z M474.626-168.641
				c-1.689,2.055-3.317,4.162-4.906,6.298c0.729-3.106,1.479-6.206,2.261-9.298C472.859-170.637,473.742-169.639,474.626-168.641z
				 M479.954-168.621c1.425,1.723,2.875,3.428,4.339,5.117c-0.326,1.224-0.634,2.462-0.922,3.701
				c-0.384-0.418-0.768-0.836-1.147-1.254c0.279-0.484,0.509-0.993,0.759-1.488c0.11-0.119,0.101-0.312-0.02-0.422
				s-0.312-0.101-0.422,0.02c-0.446,0.254-0.888,0.518-1.306,0.807c-0.739-0.812-1.479-1.623-2.213-2.434
				c-0.84-0.928-1.67-1.854-2.501-2.785c0.308-1.373,0.662-2.76,1.07-4.117C478.379-170.527,479.166-169.576,479.954-168.621z
				 M435.17-162.367c-0.039,0.072-0.082,0.149-0.12,0.227c-2.4-1.949-4.786-3.898-7.162-5.832
				C430.293-166.105,432.722-164.234,435.17-162.367z M480.765-161.785c-0.134,0.105-0.269,0.221-0.394,0.345
				c-0.7,0.663-1.349,1.497-1.978,2.237c-1.113,1.305-2.223,2.625-3.298,3.965c-0.153-3.197,0.278-6.351,0.869-9.428
				c0.125-0.668,0.259-1.34,0.408-2.012C477.827-165.045,479.291-163.418,480.765-161.785z M338.339-155.061
				c-1.604-1.004-3.202-2.012-4.8-3.016c2.16-1.021,4.32-2.049,6.466-3.109c3.024-1.508,6.029-3.049,9.019-4.627
				C345.227-162.473,341.627-158.896,338.339-155.061z M473.887-158.32c-0.27,1.819-0.509,3.643-0.691,5.467
				c-2.99,3.788-5.919,7.656-8.692,11.621c-1.771-1.277-3.533-2.558-5.295-3.84c0.015-0.014,0.024-0.029,0.038-0.039
				c1.253-1.589,2.481-3.264,3.668-4.9c1.108-1.542,2.222-3.091,3.35-4.647c-0.153,0.639-0.297,1.272-0.432,1.906
				c-0.101,0.427,0.168,0.869,0.595,0.969c0.428,0.102,0.869-0.168,0.97-0.595c0.216-1.013,0.49-2.021,0.721-3.034
				c0.191-0.858,0.389-1.713,0.59-2.567c2.155-2.903,4.383-5.765,6.725-8.468C474.794-163.759,474.285-161.032,473.887-158.32z
				 M576.237-163.596l-0.265,0.033c-4.502,5.549-8.952,11.199-13.334,16.849l0.033,0.264l0.265-0.034
				c4.382-5.649,8.831-11.3,13.334-16.849L576.237-163.596z M485.805-161.767c1.824,2.088,3.653,4.214,5.544,6.239
				c1.172,1.258,2.361,2.512,3.523,3.778c5.429,5.698,10.877,11.381,16.349,17.035c-0.115,0.048-0.221,0.125-0.303,0.226
				c-0.57,0.624-1.104,1.291-1.607,1.992c-0.024-0.024-0.048-0.048-0.072-0.072c0.178-0.417,0.355-0.835,0.543-1.248
				c0.081-0.187-0.01-0.413-0.197-0.494s-0.413,0.009-0.494,0.197c-0.153,0.307-0.298,0.619-0.441,0.936
				c-0.912-0.927-1.824-1.858-2.731-2.789c0.226-0.37,0.451-0.734,0.687-1.094c0.226-0.37,0.105-0.864-0.265-1.09
				c-0.369-0.226-0.863-0.105-1.089,0.264c-0.163,0.245-0.317,0.495-0.476,0.744c-1.498-1.541-2.99-3.086-4.479-4.637
				c0.441-0.49,0.888-0.975,1.33-1.455c0.307-0.336,0.278-0.864-0.058-1.171s-0.864-0.278-1.172,0.058
				c-0.422,0.447-0.84,0.907-1.253,1.368c-3.331-3.48-6.643-6.984-9.931-10.507c0.091-0.49,0.188-0.975,0.283-1.459
				c0.038-0.23-0.11-0.457-0.341-0.495s-0.456,0.11-0.494,0.341c-0.058,0.278-0.11,0.557-0.163,0.84
				c-1.431-1.535-2.856-3.076-4.277-4.622c0.269-1.238,0.552-2.478,0.859-3.716C485.32-162.324,485.56-162.045,485.805-161.767z
				 M440.987-157.955c1.113,0.84,2.232,1.68,3.351,2.52c-0.11,0.191-0.216,0.385-0.327,0.576c-0.465-0.379-0.931-0.758-1.396-1.138
				c-2.318-1.882-4.632-3.763-6.94-5.636c0.043-0.086,0.086-0.168,0.13-0.249C437.526-160.571,439.255-159.262,440.987-157.955z
				 M483.208-159.103c-0.254,1.104-0.499,2.208-0.729,3.308c-0.476,2.222-1.027,4.439-1.503,6.662
				c-0.048,0.216-0.101,0.437-0.148,0.653c-1.243,1.311-2.429,2.669-3.595,4.037c-0.783,0.917-1.579,1.833-2.318,2.784
				c-0.951,1.224-1.944,2.41-2.89,3.639c-0.365,0.465-0.721,0.941-1.075,1.416c-1.824-1.306-3.648-2.611-5.468-3.922
				c0.932-1.306,1.882-2.606,2.856-3.864c1.526-1.978,3.053-3.984,4.632-5.933c-0.211,2.875-0.278,5.76-0.135,8.664
				c0.01,0.442,0.385,0.788,0.826,0.778s0.787-0.384,0.777-0.826c-0.091-1.881-0.053-3.734-0.067-5.616
				c-0.015-1.593,0.02-3.202,0.101-4.805c0.25-0.297,0.504-0.595,0.764-0.883c1.104-1.262,2.188-2.568,3.326-3.801
				c0.644-0.697,1.286-1.402,1.915-2.107c0.471-0.533,1.008-1.042,1.421-1.623C482.329-160.062,482.771-159.588,483.208-159.103z
				 M488.354-153.521c-0.965,4.982-1.905,10.013-2.659,15.048c-1.497,2.073-2.885,4.238-4.233,6.48
				c-0.403,0.658-0.807,1.32-1.21,1.982c-2.798-1.968-5.587-3.946-8.371-5.933c0.312-0.398,0.624-0.801,0.945-1.195
				c0.807-1.013,1.656-1.987,2.482-2.986c1.479-1.791,3.071-3.585,4.742-5.323c-0.264,0.96-0.533,1.915-0.777,2.88
				c-0.097,0.375,0.129,0.764,0.504,0.859c0.374,0.096,0.763-0.129,0.859-0.504c0.191-0.979,0.484-1.973,0.72-2.947
				c0.163-0.687,0.316-1.382,0.461-2.078c1.828-1.795,3.729-3.495,5.673-5.026c0.36-0.283,0.418-0.812,0.135-1.171
				c-0.283-0.36-0.812-0.418-1.171-0.135c-1.431,1.066-2.77,2.242-4.047,3.49c0.566-2.716,1.09-5.405,1.661-8.087
				C485.488-156.611,486.918-155.066,488.354-153.521z M337.658-154.255c-0.058,0.067-0.12,0.14-0.178,0.212
				c-0.547-0.245-1.099-0.485-1.642-0.73c-1.574-0.72-3.139-1.444-4.689-2.213c0.422-0.191,0.85-0.379,1.272-0.566
				C334.163-156.453,335.906-155.35,337.658-154.255z M451.662-149.997c-0.019,0.029-0.038,0.053-0.058,0.082
				c-0.221,0.283-0.446,0.562-0.672,0.835c-2.068-1.748-4.143-3.49-6.226-5.208c0.115-0.206,0.23-0.408,0.346-0.614
				C447.251-153.262,449.454-151.625,451.662-149.997z M339.683-152.997c-0.029-0.019-0.062-0.038-0.096-0.053
				c-0.389-0.202-0.783-0.394-1.181-0.576c0.034-0.034,0.062-0.071,0.091-0.105C338.891-153.486,339.285-153.242,339.683-152.997z
				 M498.736-142.519c-0.375,0.422-0.749,0.845-1.124,1.262c-1.92,2.098-3.878,4.344-5.663,6.696
				c0.398-2.036,1.161-4.075,1.81-5.856c0.47-1.296,0.811-2.688,1.065-4.042c0.134-0.701,0.076-1.45,0.178-2.126
				c0.005-0.168-0.125-0.316-0.293-0.321s-0.317,0.125-0.321,0.292c-0.049,0.312-0.02,0.677-0.049,0.994
				c-0.028,0.322-0.076,0.653-0.119,0.97c-0.072,0.557-0.255,1.114-0.365,1.661c-0.091,0.442-0.293,0.979-0.441,1.412
				c-0.456,1.325-0.975,2.616-1.436,3.931c-0.609,1.723-1.022,3.091-1.205,4.68c-0.854,1.2-1.655,2.429-2.376,3.672
				c-0.687,1.176-1.372,2.38-1.987,3.609c-1.728-1.205-3.451-2.419-5.174-3.629c1.301-2.122,2.616-4.209,4.037-6.24
				c-0.13,0.969-0.255,1.944-0.365,2.918c-0.038,0.365,0.221,0.701,0.586,0.739c0.364,0.039,0.7-0.221,0.739-0.585
				c0.168-1.733,0.354-3.456,0.562-5.165c1.757-2.323,3.475-4.272,5.587-6.327c0.441-0.432,0.984-0.941,1.469-1.32
				c0.331-0.307,0.355-0.831,0.048-1.162c-0.307-0.331-0.83-0.355-1.161-0.048c-2.074,1.896-3.912,3.94-5.597,6.101
				c0.537-4.128,1.176-8.218,1.938-12.34C492.271-149.311,495.496-145.903,498.736-142.519z M337.24-151.533
				c1.425,0.83,2.899,1.57,4.354,2.352c6.197,3.327,12.36,6.687,18.509,10.085c-0.365,0.489-0.725,0.979-1.085,1.474
				c-0.082,0.105-0.058,0.264,0.048,0.346c0.106,0.082,0.264,0.058,0.346-0.048c0.36-0.514,0.739-1.022,1.128-1.531
				c2.165,1.2,4.33,2.405,6.495,3.62c3.787,2.117,7.56,4.267,11.333,6.427c4.8,2.971,9.605,5.938,14.443,8.861
				c8.06,4.867,16.253,9.566,24.389,14.309c3.216,1.876,6.441,3.739,9.672,5.592c-14.231-7.118-28.377-14.462-42.278-22.186
				c-12.787-7.104-25.502-14.419-37.91-22.167c-3.495-2.184-6.96-4.392-10.411-6.624c0.192-0.249,0.389-0.489,0.581-0.734
				C336.981-151.682,337.11-151.609,337.24-151.533z M381.817-149.551l-0.283,0.005c-0.749,0.725-1.444,1.507-2.212,2.213
				c-2.597,2.381-5.026,4.824-7.229,7.56c-0.734,0.912-1.224,1.925-1.795,2.923l0.297,0.154c1.157-2.573,3.663-5.203,5.669-7.109
				c1.373-1.301,2.712-2.635,4.08-3.931c0.504-0.48,0.979-1.037,1.478-1.531L381.817-149.551z M457.648-145.605
				c-0.346,0.437-0.691,0.874-1.037,1.315c-1.574-1.32-3.14-2.645-4.709-3.969c0.148-0.188,0.303-0.379,0.456-0.562
				c0.11-0.139,0.221-0.278,0.331-0.417C454.341-148.024,455.992-146.815,457.648-145.605z M464.224-140.839
				c-0.417,0.605-0.835,1.205-1.248,1.81c-1.108-0.912-2.222-1.829-3.331-2.741c-0.619-0.514-1.238-1.022-1.853-1.536
				c0.374-0.461,0.744-0.922,1.113-1.383C460.677-143.402,462.448-142.116,464.224-140.839z M380.762-135.928
				c-0.471,0.83-1.013,1.685-1.406,2.554c-0.058,0.115-0.01,0.269,0.105,0.326s0.269,0.01,0.326-0.105
				c1.997-4.065,5.026-8.122,8.376-11.165l0.005-0.341l-0.341-0.004C385.211-142.284,382.509-139.015,380.762-135.928z
				 M500.732-140.44c-0.023,0.039-0.038,0.082-0.038,0.13c-0.062,0.302-0.043,0.643-0.101,0.945
				c-0.158,0.802-0.351,1.838-0.672,2.578c-0.341,0.783-0.634,1.651-0.95,2.453c-1.157,2.923-2.391,5.486-2.122,8.673
				c-1.143,1.632-2.241,3.278-3.235,4.992c-2.04-1.416-4.08-2.832-6.115-4.253c0.907-1.824,1.91-3.585,3.13-5.342
				c0.101-0.149,0.201-0.298,0.308-0.442c0.071,0.043,0.158,0.067,0.254,0.067c0.283,0,0.514-0.24,0.514-0.523
				c-0.02-0.188-0.029-0.375-0.033-0.566c0.974-1.315,2.011-2.602,3.081-3.826c0.624-0.715,1.272-1.407,1.887-2.126
				c1.056-1.234,2.146-2.443,3.239-3.644C500.161-141.031,500.449-140.738,500.732-140.44z M470.661-136.221
				c-0.538,0.725-1.07,1.45-1.608,2.17c-1.719-1.407-3.437-2.813-5.15-4.219c0.038-0.053,0.077-0.106,0.115-0.159
				c0.389-0.566,0.787-1.138,1.186-1.704C467.018-138.828,468.842-137.522,470.661-136.221z M504.448-136.6
				c-0.298,0.48-0.596,0.965-0.907,1.44c-1.215,1.819-2.458,3.562-3.725,5.342c-0.61,0.854-1.22,1.699-1.824,2.544
				c0.038-2.63,1.176-5.4,2.035-7.733c0.413-1.128,0.854-2.395,1.08-3.576c0.076-0.427,0.105-0.878,0.158-1.306
				C502.326-138.789,503.383-137.695,504.448-136.6z M480.002-129.602c-0.61,0.994-1.22,1.987-1.81,2.986
				c-2.77-2.242-5.53-4.488-8.285-6.739c0.562-0.734,1.118-1.469,1.68-2.203C474.386-133.567,477.188-131.58,480.002-129.602z
				 M508.379-132.578c-0.527,1.229-1.008,2.515-1.435,3.83c-1.561,2.736-2.952,5.616-4.579,8.179
				c-0.85,1.33-1.771,2.784-2.827,3.994c-1.671-1.152-3.341-2.304-5.007-3.456c0.845-1.445,1.776-2.841,2.77-4.176
				c0.965-1.296,1.92-2.583,2.899-3.869c1.56-2.049,3.196-4.084,4.651-6.211c0.254-0.379,0.499-0.758,0.734-1.143
				C506.517-134.479,507.448-133.523,508.379-132.578z M516.366-129.419c-0.576,0.758-1.161,1.526-1.742,2.299
				c-1.018-1.022-2.03-2.045-3.038-3.067c-0.375-0.379-0.749-0.758-1.124-1.138c0.538-0.729,1.104-1.435,1.704-2.117
				c0.044-0.058,0.082-0.12,0.11-0.183C513.64-132.218,515.003-130.816,516.366-129.419z M434.08-106.759
				c5.947,3.984,11.913,7.93,18.058,11.602c5.188,3.72,10.546,7.171,5.563,3.581c17.567,11.597,25.151,16.363,32.606,20.966
				c-1.733-0.729-3.461-1.459-5.189-2.198c-6.687-3.519-13.344-7.056-19.982-10.646c-16.709-9.039-33.226-18.485-49.785-27.792
				c-8.41-4.723-16.8-9.466-25.21-14.179c1.699-2.659,3.907-5.247,6.11-7.344C408.789-123.986,421.36-115.284,434.08-106.759z
				 M514.255-126.635c-3.322,4.406-6.658,9.048-9.053,13.958c-1.522-1.042-3.039-2.088-4.556-3.134
				c0.566-0.643,1.099-1.32,1.556-2.006c1.113-1.689,2.193-3.365,3.191-5.126c-0.191,0.921-0.36,1.838-0.494,2.736
				c-0.192,1.234-0.418,2.472-0.538,3.715c-0.038,0.475,0.312,0.902,0.787,0.941c0.476,0.039,0.902-0.312,0.941-0.787
				c0.086-2.583,0.273-5.352,0.749-7.896c0.115-0.634,0.226-1.306,0.359-1.958c0.902-1.589,1.853-3.149,2.904-4.632
				C511.48-129.424,512.867-128.027,514.255-126.635z M410.108-126.007c-0.254,0.192-0.307,0.562-0.115,0.816
				c0.192,0.255,0.562,0.308,0.816,0.115c1.872-1.401,3.729-2.827,5.616-4.209c0.254-0.192,0.307-0.562,0.115-0.816
				c-0.192-0.254-0.562-0.307-0.816-0.115C413.839-128.834,411.98-127.408,410.108-126.007z M486.198-125.253
				c-0.134,0.278-0.264,0.557-0.389,0.84c-0.441,0.975-0.85,1.944-1.258,2.918c-0.499-0.398-1.003-0.797-1.497-1.195
				c-1.315-1.056-2.621-2.112-3.932-3.173c0.471-0.772,0.95-1.545,1.421-2.313c0.145-0.245,0.293-0.49,0.441-0.729
				C482.719-127.687,484.456-126.467,486.198-125.253z M528.405-117.184c1.181,1.186,2.361,2.376,3.542,3.562
				c-0.216-0.015-0.441,0.067-0.591,0.245c-0.456,0.495-0.907,0.994-1.358,1.498c-3.97-3.883-7.925-7.786-11.86-11.717
				c0.058-0.494-0.033-1.089-0.048-1.545c-0.02-0.595-0.476-1.373-0.729-1.906c-0.058-0.11-0.197-0.153-0.308-0.096
				s-0.153,0.196-0.096,0.307c0.571,0.955,0.768,1.876,0.725,2.784c-0.591-0.59-1.176-1.181-1.767-1.771
				c0.596-0.739,1.195-1.479,1.8-2.213C521.263-124.403,524.824-120.789,528.405-117.184z M517.595-123.28
				c-0.168,0.921-0.537,1.843-0.959,2.798c-1.248,2.784-3.135,5.198-4.109,8.146c-0.072,0.23,0.053,0.48,0.283,0.552
				c0.23,0.072,0.48-0.053,0.552-0.283c0.451-1.958,1.709-4.013,2.606-5.798c0.653-1.306,1.21-2.448,1.724-3.797
				c0.148-0.398,0.211-0.816,0.298-1.229c3.85,3.845,7.718,7.666,11.605,11.467c-0.998,1.133-1.982,2.28-2.951,3.446
				c-0.087-0.292-0.178-0.576-0.245-0.835c-0.235-0.902-0.514-1.805-0.768-2.703l-0.097,0.029c0.336,1.2,0.672,2.41,1.018,3.619
				c-1.66,1.997-3.288,4.027-4.867,6.067c-0.062,0.077-0.125,0.158-0.187,0.235c-2.208-1.498-4.416-3-6.624-4.502
				c2.64-3.197,5.544-6.211,8.51-9.015c0.346-0.336,0.355-0.893,0.02-1.238s-0.893-0.355-1.238-0.019
				c-2.477,2.251-4.896,4.997-7.027,7.579c-0.504,0.605-1.008,1.219-1.512,1.843c-2.415-1.646-4.829-3.298-7.243-4.949
				c0.259-0.504,0.522-0.999,0.792-1.474c0.686-1.219,1.363-2.386,2.111-3.571c0.836-1.325,1.801-2.659,2.741-3.912
				c1.147-1.526,2.318-3.034,3.509-4.521C516.223-124.658,516.909-123.972,517.595-123.28z M493.374-120.256
				c-0.738,1.306-1.42,2.649-2.021,4.056c-1.935-1.488-3.869-2.981-5.784-4.488c0.557-1.31,1.119-2.573,1.719-3.806
				C489.313-123.079,491.344-121.667,493.374-120.256z M499.216-116.215c-0.019,0.02-0.038,0.039-0.053,0.058
				c-0.321,0.341-0.682,0.763-1.022,1.071c-0.359,0.326-0.739,0.638-1.085,0.984c-0.269,0.245-0.292,0.672-0.048,0.941
				c0.245,0.269,0.672,0.292,0.941,0.048c0.796-0.72,1.612-1.507,2.376-2.338c1.555,1.07,3.11,2.141,4.665,3.211
				c-0.403,0.85-0.777,1.708-1.113,2.578c-0.145,0.35,0.023,0.768,0.374,0.912c0.351,0.144,0.769-0.024,0.912-0.375
				c0.288-0.768,0.634-1.545,1.003-2.309c2.386,1.637,4.771,3.269,7.157,4.901c-1.181,1.474-2.333,2.986-3.384,4.522
				c-4.729-3.62-9.466-7.239-14.203-10.843c-1.167-0.893-2.333-1.781-3.504-2.674c0.12-0.264,0.239-0.523,0.35-0.758
				c0.519-1.133,1.09-2.247,1.709-3.331C495.933-118.48,497.574-117.348,499.216-116.215z M549.736-95.843
				c-0.639,0.398-1.248,0.825-1.829,1.281c-1.915-1.838-3.835-3.677-5.746-5.52c0.087-0.086,0.173-0.177,0.265-0.259
				c0.346-0.384,0.312-0.984-0.072-1.329c-0.384-0.346-0.983-0.312-1.329,0.072c-0.072,0.072-0.14,0.144-0.212,0.221
				c-3.264-3.149-6.522-6.312-9.772-9.48c0.461-0.533,0.927-1.056,1.401-1.569c0.13-0.154,0.188-0.341,0.173-0.528
				C538.312-107.239,544.02-101.536,549.736-95.843z M540.405-100.922c-0.716,0.816-1.397,1.68-2.079,2.51
				c-1.454,1.757-2.808,3.59-4.061,5.491c-1.771-1.195-3.542-2.395-5.313-3.59c1.008-1.171,2.04-2.309,3.048-3.432
				c0.682-0.763,1.344-1.564,1.992-2.361c0.456-0.566,0.868-1.176,1.329-1.738c0.24-0.336,0.163-0.816-0.173-1.056
				c-0.336-0.24-0.815-0.163-1.056,0.173c-0.278,0.37-0.533,0.768-0.802,1.147c-0.652,0.926-1.363,1.814-2.063,2.698
				c-1.052,1.32-2.165,2.606-3.255,3.907c-0.005-0.004-0.015-0.009-0.019-0.014c-1.806-1.224-3.61-2.443-5.415-3.667
				c0.384-0.48,0.769-0.96,1.162-1.436c1.31-1.613,2.697-3.197,4.065-4.757c0.965-1.108,1.915-2.237,2.875-3.35
				C533.887-107.229,537.141-104.071,540.405-100.922z M506.479-100.346c3.148,2.405,6.293,4.819,9.437,7.233
				c0.039,0.139,0.125,0.259,0.255,0.341c0.086,0.053,0.187,0.077,0.283,0.077c5.534,4.263,11.059,8.535,16.598,12.802
				c6.36,4.891,12.691,9.826,19.022,14.755c-0.234,0.23-0.47,0.46-0.71,0.686c-19.07-14.266-37.618-29.246-56.088-44.438
				C499.077-105.981,502.782-103.164,506.479-100.346z M521.19-101.167c-0.691,0.883-1.401,1.814-2.012,2.717
				c-0.397,0.59-0.82,1.224-1.238,1.8c-0.119,0.158-0.239,0.326-0.359,0.504c-2.15-1.656-4.306-3.307-6.461-4.958
				c1.075-1.564,2.228-3.096,3.441-4.584C516.77-104.176,518.978-102.674,521.19-101.167z M527.642-96.775
				c-0.197,0.24-0.398,0.48-0.591,0.725c-1.171,1.435-2.279,3.053-3.254,4.68c-1.767-1.358-3.528-2.712-5.29-4.066
				c0.485-0.715,0.941-1.45,1.474-2.136c0.749-0.975,1.493-1.935,2.247-2.89C524.032-99.232,525.837-98.003,527.642-96.775z
				 M547.423-94.173c-2.194,1.81-4.004,3.994-5.606,6.37c-2.089-1.416-4.181-2.832-6.27-4.248c0.922-1.292,1.896-2.549,2.88-3.802
				c0.975-1.253,2.155-2.602,3.303-3.792C543.626-97.816,545.521-95.997,547.423-94.173z M533.973-92.474
				c-1.296,2.002-2.481,4.075-3.557,6.207c-1.925-1.483-3.85-2.971-5.779-4.454c1.138-1.901,2.524-3.682,3.979-5.396
				C530.401-94.903,532.188-93.688,533.973-92.474z M563.157-82.504c3.269,3.245,6.542,6.49,9.811,9.744
				c-0.048,0.029-0.091,0.062-0.129,0.105c-0.298,0.307-0.601,0.619-0.917,0.936c-4.037-3.835-8.079-7.666-12.115-11.5
				c0.076-0.086,0.153-0.173,0.23-0.259c0.354-0.418,0.302-1.056-0.115-1.412c-0.418-0.355-1.057-0.302-1.411,0.115
				c-0.058,0.058-0.105,0.115-0.158,0.173c-3.13-2.976-6.255-5.952-9.375-8.938c0.586-0.461,1.19-0.883,1.8-1.262
				C554.9-90.703,559.028-86.604,563.157-82.504z M552.631-89.191c-0.154,0.058-0.293,0.159-0.398,0.298
				c-1.19,1.565-2.333,3.163-3.446,4.781c-0.164,0.235-0.322,0.475-0.476,0.715c-1.8-1.224-3.604-2.448-5.41-3.672
				c1.608-2.208,3.505-4.363,5.593-6.082C549.87-91.831,551.248-90.511,552.631-89.191z M535.812-91.226
				c1.9,1.292,3.801,2.583,5.702,3.874c-0.634,0.969-1.238,1.968-1.819,2.985c-0.648,1.128-1.258,2.371-1.805,3.552
				c-0.038,0.072-0.072,0.149-0.11,0.23c-2.083-1.613-4.167-3.221-6.255-4.829c1.047-2.194,2.323-4.233,3.711-6.207
				C535.427-91.49,535.619-91.36,535.812-91.226z M557.939-84.126c-0.619,0.734-1.215,1.507-1.824,2.246
				c-0.677,0.807-1.315,1.632-1.925,2.477c-1.517-1.027-3.029-2.06-4.546-3.086c0.548-0.812,1.128-1.604,1.747-2.386
				c0.759-0.965,1.493-1.973,2.29-2.904c0.062-0.086,0.11-0.178,0.14-0.274C555.193-86.743,556.566-85.437,557.939-84.126z
				 M548.022-82.932c-0.379,0.629-0.739,1.268-1.108,1.901c-0.586,0.999-0.979,2.083-1.455,3.125
				c-0.307,0.657-0.725,1.795-0.907,2.554c-1.948-1.507-3.897-3.015-5.846-4.517c0.066-0.144,0.134-0.278,0.201-0.398
				c0.547-1.051,1.047-2.141,1.642-3.168c0.6-1.046,1.281-2.122,2.035-3.187C544.398-85.394,546.208-84.16,548.022-82.932z
				 M571.471-71.268c-0.706,0.696-1.45,1.416-2.198,2.155c-2.333-1.598-4.661-3.187-6.999-4.781c0.365-0.461,0.72-0.931,1.085-1.406
				c0.221-0.312,0.145-0.754-0.168-0.975s-0.754-0.144-0.975,0.168c-0.346,0.49-0.687,0.984-1.037,1.464
				c-1.813-1.233-3.623-2.467-5.434-3.701c1.177-1.521,2.43-2.99,3.648-4.401C563.416-78.918,567.443-75.093,571.471-71.268z
				 M553.869-78.952c-1.114,1.564-2.146,3.182-3.159,4.838c-0.427,0.691-0.743,1.45-1.137,2.16c-0.062,0.106-0.12,0.226-0.183,0.346
				c-1.22-0.945-2.438-1.886-3.658-2.832c0.102-0.086,0.178-0.206,0.222-0.341c0.768-2.635,1.934-5.006,3.389-7.248
				C550.85-81.007,552.361-79.979,553.869-78.952z M560.81-74.152c-0.427,0.547-0.96,1.075-1.358,1.627
				c-0.298,0.408-0.815,0.883-1.176,1.262c-1.205,1.267-2.443,2.467-3.687,3.672c-1.243-0.96-2.481-1.92-3.725-2.88
				c0.293-0.629,0.609-1.248,0.926-1.848c0.989-1.93,2.247-3.792,3.615-5.587C557.498-76.485,559.586-75.06,560.81-74.152z
				 M568.874-68.719c-2.318,2.313-4.618,4.829-5.885,7.632c-2.486-1.925-4.974-3.85-7.465-5.774
				c0.438-0.408,0.869-0.816,1.292-1.229c1.123-1.104,2.294-2.184,3.369-3.336c0.624-0.672,1.19-1.344,1.747-2.035
				C564.246-71.882,566.56-70.303,568.874-68.719z M582.875-62.858c-0.23,0.293-0.456,0.59-0.677,0.893
				c-1.363-1.301-2.731-2.597-4.099-3.897c0-0.202-0.102-0.398-0.278-0.504c-0.106-0.062-0.222-0.086-0.336-0.077
				c-1.541-1.459-3.077-2.918-4.613-4.378c0.298-0.307,0.595-0.614,0.917-0.902c0.033-0.043,0.067-0.082,0.096-0.125
				C576.89-68.858,579.885-65.863,582.875-62.858z M576.962-66.055c-0.317,0.519-0.629,1.042-0.941,1.565
				c-1.896-1.301-3.792-2.602-5.688-3.898c0.244-0.24,0.494-0.475,0.749-0.715c0.402-0.389,0.835-0.763,1.238-1.157
				c0.033-0.039,0.067-0.072,0.105-0.106C573.938-68.93,575.449-67.49,576.962-66.055z M575.737-64.02
				c-1.507,2.53-2.971,5.093-4.329,7.704c-0.145,0.273-0.038,0.629,0.235,0.773c0.273,0.144,0.629,0.038,0.772-0.235
				c1.334-2.583,2.789-5.093,4.272-7.589c1.464,1.003,2.923,2.006,4.382,3.01c-0.489,0.734-0.96,1.483-1.411,2.241
				c-0.471,0.788-0.993,1.57-1.431,2.372c-0.527,0.974-1.142,1.963-1.713,2.914c-0.274,0.456-0.61,0.955-0.845,1.43
				c-0.02,0.029-0.034,0.058-0.044,0.086c-3.912-3.019-7.819-6.048-11.731-9.072c1.315-3.048,3.615-5.314,6.029-7.618
				C571.864-66.674,573.799-65.349,575.737-64.02z M581.819-61.437c-0.148,0.207-0.298,0.417-0.441,0.629
				c-1.469-1.008-2.938-2.021-4.406-3.029c0.283-0.471,0.562-0.936,0.845-1.407C579.15-63.976,580.485-62.709,581.819-61.437z
				 M556.581-61.634c11.261,8.75,22.55,17.472,33.825,26.208c1.584,1.229,3.173,2.458,4.762,3.687
				c-0.173,0.269-0.351,0.542-0.519,0.816c-2.434-2.093-4.877-4.171-7.334-6.221c-4.052-3.375-8.137-6.735-12.322-9.941
				c-2.605-1.997-5.251-3.917-7.896-5.856c-5.002-3.571-9.955-7.195-14.875-10.867c0.235-0.221,0.47-0.442,0.71-0.667
				C554.147-63.525,555.361-62.58,556.581-61.634z M586.451-59.249c0.437,0.447,0.878,0.893,1.32,1.339
				c-0.14,0.278-0.283,0.557-0.437,0.831c-1.397-1.33-2.794-2.659-4.187-3.989c0.222-0.283,0.446-0.562,0.673-0.835
				C584.699-61.02,585.573-60.136,586.451-59.249z M512.939-58.178c3.499,1.584,6.96,3.235,10.411,4.92
				c3.394,1.661,6.729,3.514,10.032,5.347c3.437,1.93,6.868,3.907,10.281,5.88c6.091,3.519,12.23,6.979,18.351,10.45
				c13.036,7.387,26.107,14.702,39.273,21.854c-7.488-3.787-14.938-7.646-22.32-11.645c-12.926-7.003-25.785-14.103-38.62-21.273
				c-8.588-4.8-17.175-9.61-31.205-17.05c-0.423-0.245-0.84-0.489-1.258-0.734C509.574-59.685,511.259-58.941,512.939-58.178z
				 M585.366-58.058c-0.983-0.681-1.968-1.358-2.952-2.035c0.115-0.153,0.226-0.302,0.336-0.456
				C583.624-59.719,584.493-58.888,585.366-58.058z M586.897-56.339c-1.877,3.086-4.449,5.851-5.692,9.206
				c-0.015,0.034-0.029,0.072-0.034,0.106c-1.584-1.224-3.173-2.448-4.757-3.677c0.062-0.039,0.115-0.096,0.159-0.159
				c0.292-0.585,0.753-1.281,1.104-1.843c0.687-1.094,1.325-2.217,2.021-3.307c0.754-1.19,1.551-2.434,2.4-3.633
				C583.701-58.547,585.299-57.443,586.897-56.339z M592.105-53.512c-0.173,0.024-0.336,0.101-0.475,0.221
				c-0.062,0.039-0.125,0.082-0.188,0.134c-0.298-0.283-0.596-0.566-0.888-0.85c0.033-0.019,0.066-0.043,0.091-0.077
				c0.081-0.12,0.048-0.297-0.072-0.379c-0.604-0.417-1.204-0.835-1.805-1.248c-0.115-0.106-0.226-0.211-0.336-0.317
				c0.082-0.12,0.158-0.24,0.235-0.355c0.076-0.129,0.153-0.259,0.226-0.394C589.965-55.687,591.035-54.602,592.105-53.512z
				 M590.963-52.715c-0.173,0.182-0.341,0.374-0.475,0.542c-1.551,1.867-1.724,4.281-2.496,6.504
				c-0.418,1.195-0.802,1.997-1.503,2.75c-1.502-1.162-3.01-2.323-4.517-3.485c0.135-0.062,0.24-0.168,0.298-0.307
				c0.715-2.112,2.309-4.037,3.624-5.828c0.725-0.998,1.474-1.944,2.175-2.947C589.033-54.563,589.998-53.637,590.963-52.715z
				 M606.17-39.223c3.351,3.398,6.619,6.883,9.95,10.306c0.072,0.077,0.148,0.153,0.221,0.23c-0.331-0.096-0.71,0.058-0.874,0.389
				c-0.091,0.129-0.206,0.422-0.283,0.576c-0.206,0.417-0.787,1.166-1.113,1.498c-0.917,0.917-1.795,1.718-2.515,2.592
				c-2.425-1.857-4.849-3.72-7.268-5.578c0.739-1.2,1.646-2.318,2.602-3.039c0.346-0.316,0.369-0.869,0.053-1.214
				c-0.316-0.345-0.869-0.37-1.215-0.053c-0.931,0.739-1.963,1.949-2.812,3.25c-1.382-1.065-2.765-2.126-4.143-3.187
				c0.207-0.264,0.413-0.519,0.605-0.763c0.609-0.787,1.306-1.642,1.8-2.505c0.125-0.216,0.298-0.413,0.403-0.634
				c0.188-0.403,0.499-1.07,0.725-1.43c0.226-0.5,0-1.1-0.499-1.325s-1.1,0-1.325,0.5c-0.191,0.552-0.604,1.296-0.926,1.79
				c-0.734,1.128-1.498,2.146-2.295,3.202c-1.07-0.826-2.141-1.651-3.211-2.472c-0.202-0.154-0.398-0.308-0.596-0.456
				c0.523-1.268,0.927-2.635,1.46-3.883c0.465-1.099,1.128-2.722,2.146-3.408c0.369-0.316,0.412-0.888,0.096-1.257
				s-0.888-0.413-1.258-0.096c-1.056,0.682-1.699,2.223-2.231,3.307c-0.178,0.36-0.298,0.759-0.446,1.133
				c-0.413,1.027-0.778,2.093-1.147,3.139c-1.401-1.08-2.804-2.16-4.2-3.24c0.797-0.902,1.186-1.906,1.709-3.072
				c0.144-0.326,0.278-0.845,0.379-1.2c0.519-1.872,0.989-3.902,2.419-5.237c4.119,3.945,8.232,7.896,12.327,11.866
				c0.129,0.12,0.34,0.12,0.46-0.01s0.12-0.341-0.009-0.461c-4.075-3.95-8.17-7.886-12.27-11.808c0.005-0.004,0.01-0.009,0.02-0.009
				c0.178-0.154,0.288-0.365,0.331-0.576C597.549-47.987,601.854-43.6,606.17-39.223z M583.624-25.802
				c9.725,4.632,19.396,9.37,29.03,14.188c5.386,4.632,10.824,9.197,16.401,13.604c-0.124-0.067-0.249-0.13-0.374-0.192
				c-3.797-1.944-7.627-3.898-11.376-5.923c-7.263-3.922-14.539-7.8-21.787-11.746c-8.112-4.421-16.21-8.938-24.245-13.493
				c-7.805-4.426-15.634-8.803-23.438-13.224C559.787-37.053,571.725-31.476,583.624-25.802z M601.321-26.997
				c-0.014,0.048-0.023,0.091-0.033,0.134c-0.163,0.442,0.067,0.941,0.509,1.104c0.312,0.115,0.657,0.029,0.888-0.187
				c2.415,1.862,4.839,3.725,7.258,5.583c-0.043,0.235-0.077,0.48-0.101,0.739c-0.043,0.37,0.226,0.715,0.595,0.759
				c0.37,0.043,0.716-0.226,0.759-0.595c0-0.01,0-0.02,0-0.024C624.458-9.261,628.048-6.53,631.644-3.804
				c2.16,1.642,4.329,3.274,6.499,4.911c-2.938-1.579-5.866-3.178-8.827-4.704c-2.588-1.334-5.15-2.712-7.733-4.051
				c-2.51-2.112-5.001-4.243-7.482-6.374c-6.039-5.189-12.005-10.469-18.029-15.677c0.168-0.307,0.355-0.614,0.557-0.917
				C598.192-29.407,599.757-28.202,601.321-26.997z M620.92-23.868c7.767,8.107,15.298,16.426,22.872,24.715
				c-3.825-2.87-7.651-5.746-11.463-8.63c-6.58-4.987-13.137-9.994-19.689-15.014c1.354-1.555,3.36-2.981,4.162-4.838
				c0.081-0.168,0.096-0.355,0.048-0.523C618.213-26.738,619.552-25.293,620.92-23.868z M639.755,2.321
				c3.696,2.784,7.397,5.563,11.093,8.362c0.13,0.096,0.27,0.173,0.418,0.23c-0.048,0.201-0.091,0.408-0.12,0.628
				c-0.072,0.49-0.091,0.878-0.067,1.243c-0.643-0.24-1.281-0.48-1.92-0.72l-1.948-0.941c-5.084-2.501-10.133-5.045-15.173-7.613
				c0.235-0.086,0.451-0.235,0.619-0.441c0.47-0.595,0.369-1.464-0.226-1.935c-3.125-2.41-6.197-4.901-9.23-7.43
				C628.739-3.472,634.269-0.611,639.755,2.321z M645.458,1.942c0.801,0.792,1.775,1.387,3.004,1.699l0.442,0.082l1.065,0.864
				c0.878,0.677,1.785,1.339,2.659,2.035c-0.188,0.154-0.36,0.302-0.48,0.509c-2.313-1.747-4.637-3.49-6.95-5.227
				C645.28,1.923,645.366,1.933,645.458,1.942z M669.188,3.641l0.159,0.355l-0.615,0.192c-0.009-0.519-0.028-1.022-0.058-1.401
				C668.872,3.075,669.06,3.368,669.188,3.641z M656.627,9.944c0.077,0.005,0.154,0.009,0.23,0.019
				c0.048,0.389,0.092,0.768-0.043,1.195c-0.024,0.067-0.048,0.139-0.072,0.207c-0.806-0.456-1.607-0.912-2.409-1.363
				c0.067-0.178,0.125-0.355,0.178-0.533c0.062-0.23,0.11-0.451,0.148-0.677l0.024-0.201l0.331-0.154
				c0.144-0.058,0.297-0.105,0.471-0.058C655.36,9.142,655.883,9.824,656.627,9.944z M656.675,11.533
				c-0.394,1.022-1.003,1.91-1.823,2.702l-0.39,0.389l-0.46-0.221l0.432,0.207c-0.135-0.264-0.326-0.495-0.562-0.672
				c-0.01-0.062-0.024-0.12-0.043-0.178c-0.614-1.229-0.015-2.405,0.427-3.557C655.062,10.645,655.869,11.086,656.675,11.533z"/>
		</g>
	</g>
</g>
</svg>
