<?xml version="1.0" encoding="utf-8"?>
<!-- Generator: Adobe Illustrator 16.0.0, SVG Export Plug-In . SVG Version: 6.00 Build 0)  -->
<!DOCTYPE svg PUBLIC "-//W3C//DTD SVG 1.1//EN" "http://www.w3.org/Graphics/SVG/1.1/DTD/svg11.dtd">
<svg version="1.1" id="Layer_1" xmlns="http://www.w3.org/2000/svg" xmlns:xlink="http://www.w3.org/1999/xlink" x="0px" y="0px"
	 width="450px" height="450px" viewBox="275 0 450 450" enable-background="new 275 0 450 450" xml:space="preserve">
<g transform="scale(1 -1)">
	<g transform="translate(0 -75)">
		<g>
			<path marker-end="none" marker-start="none" d="M377.749-273.251c-0.585,0.173-1.167,0.36-1.737,0.562
				c-1.502,0.365-2.976,0.816-4.44,1.363c-1.748,0.653-3.466,1.589-5.093,2.496c-0.663,0.365-1.378,0.869-1.987,1.32
				c-2.232,1.665-3.888,3.196-5.688,5.266c-1.416,1.632-2.688,3.734-3.663,5.654c-0.168,0.346-0.331,0.691-0.494,1.047
				c-1.824,2.898-3.303,6.019-4.378,9.393c-0.777,2.434-1.479,4.839-1.56,7.412c-0.077,2.529,0.332,4.963,1.109,7.286
				c-3.134-0.466-6.375-0.418-9.437,0.398c-1.037,0.269-2.031,0.682-2.947,1.224c-0.101-0.01-0.207-0.005-0.317,0.029
				c-0.067,0.014-0.134,0.043-0.192,0.072c0.024-0.485,0.062-0.971,0.12-1.455c0.043-0.614-0.427-1.156-1.042-1.199
				c-0.614-0.039-1.152,0.427-1.195,1.041c-0.259,2.453-0.197,4.93,0.153,7.367c-0.509,0.044-1.022,0.106-1.512,0.178
				c-1.8,0.265-3.403,0.61-5.17,1.052c-1.277,0.321-2.534,0.835-3.758,1.306c-1.474,0.566-3.019,1.637-4.363,2.491
				c-0.153,0.087-0.207,0.298-0.115,0.451c0.086,0.153,0.298,0.206,0.451,0.115c1.138-0.71,2.232-1.157,3.466-1.642
				c1.896-0.749,3.83-1.604,5.861-1.935c1.766-0.292,3.523-0.604,5.318-0.619c-0.216,2.313-0.509,4.642-0.773,6.955
				c-0.149,1.276-0.297,2.554-0.451,3.831c-0.158,0.033-0.317,0.1-0.446,0.196c-0.13-2.567-0.327-5.136-0.499-7.699
				c-0.01-0.413-0.37-0.734-0.788-0.72c-0.413,0.014-0.734,0.369-0.72,0.787c0.12,5.914,0.375,11.817,0.619,17.74
				c-0.456,5.602-0.797,11.203-1.032,16.839c-0.153,3.514-0.316,7.095-0.326,10.608c-0.019,4.924-0.163,9.835-0.105,14.764
				c0,0.068,0,0.14,0,0.207c-0.308,0-0.615-0.01-0.917-0.014c-0.163,0-0.307,0.134-0.307,0.297s0.134,0.307,0.297,0.307
				c0.307,0.006,0.619,0.01,0.936,0.016c0.029,2.717,0.029,5.428,0.082,8.145c0.125,7.45,0.332,14.923,0.634,22.368
				c0.043,1.186,0.096,2.376,0.154,3.557c0.201,8.083,0.47,16.157,0.749,24.23c0.226,6.552,0.451,13.109,0.682,19.661
				c-0.283,0.211-0.465,0.533-0.485,0.907c-0.576,7.68-0.6,15.552-0.115,23.237c0.139,2.179,0.327,4.344,0.509,6.523
				c0.283,3.456,0.778,6.883,1.272,10.32c0.005,0.144,0.005,0.293,0.01,0.441c0.014,1.282,0.024,2.563,0.034,3.845
				c-0.178,0.096-0.331,0.24-0.437,0.432c-0.427,0.595-0.773,1.387-1.065,2.064c-0.802,1.877-0.783,4.114,0.202,5.923
				c0.129,0.245,0.278,0.48,0.437,0.701c-0.014-0.005-0.033-0.005-0.053-0.009c-1.704-0.418-3.413-0.788-5.107-1.239
				c-0.61-0.158-1.248,0.211-1.407,0.821c-0.158,0.61,0.207,1.248,0.821,1.407c1.838,0.489,3.677,1.113,5.515,1.564
				c1.416,0.351,2.847,0.682,4.277,0.994c0.082,0.327,0.164,0.658,0.245,0.989c0.038,0.159,0.077,0.317,0.12,0.48
				c-0.604-0.182-1.214-0.365-1.81-0.552c-1.555-0.485-3.101-0.922-4.632-1.498c-1.33-0.504-2.587-1.042-3.897-1.594
				c-0.317-0.134-0.696,0.01-0.831,0.326c-0.134,0.317,0.01,0.691,0.327,0.831c3.019,1.339,6.105,2.688,9.259,3.691
				c0.365,0.12,0.739,0.235,1.109,0.345c-0.734-0.115-1.474-0.226-2.208-0.331c-0.35-0.048-0.686,0.192-0.739,0.542
				c-0.048,0.351,0.192,0.687,0.542,0.734c1.214,0.178,2.434,0.355,3.648,0.538c0.327,0.778,1.181,1.214,2.021,1.003
				c0.365-0.101,0.667-0.303,0.893-0.576c2.448,0.36,4.901,0.71,7.363,1.013c0.634,0.072,1.267,0.149,1.915,0.178
				c4.277,1.147,8.66,1.867,13.008,2.515c3,0.441,6.005,0.792,9.029,0.97c-0.514,0.034-0.61,0.043-0.71,0.058
				c-0.677,0.062-1.171,0.667-1.104,1.344s0.672,1.171,1.349,1.104c4.455-0.451,8.895-0.883,13.354-1.209
				c2.909,0.207,5.823,0.351,8.736,0.552c7.205,0.484,14.563,0.624,21.782,0.753c10.426,0.192,20.861,0.091,31.286-0.11
				c11.578-0.216,23.213-0.71,34.771-1.445c0.619-0.039,1.238-0.077,1.853-0.12c1.042,0.01,2.084,0.019,3.125,0.024
				c2.702,0.015,5.405,0.067,8.107,0.039c2.702-0.034,5.404-0.005,8.107-0.039c3.369-0.038,6.758-0.115,10.123-0.202
				c3.043-0.072,6.081-0.245,9.12-0.341c3.7-0.11,7.435-0.451,11.131-0.715c1.205-0.091,2.112-1.147,2.021-2.347
				c-0.038-0.552-0.283-1.042-0.647-1.402c0.922-0.134,1.838-0.269,2.76-0.408h0.105c-0.158,0.129-0.187,0.321-0.173,0.518
				c0.048,0.773,0.725,1.363,1.498,1.311c0.466-0.072,1.065-0.105,1.55-0.154c1.182-0.115,3.11-0.749,4.109-1.387
				c0.062-0.048,0.139-0.091,0.206-0.139c1.752,0.029,3.509,0.048,5.266,0.072c-0.02,0.465-0.038,0.936-0.053,1.406
				c-0.005,0.158,0.12,0.293,0.278,0.298c0.158,0.004,0.293-0.12,0.298-0.279c0.02-0.475,0.038-0.945,0.058-1.42
				c3.005,0.033,6.005,0.082,9.01,0.173c-0.341-0.159-0.672-0.375-1.042-0.442c-1.387-0.235-2.808-0.389-4.205-0.595
				c-0.196-0.034-0.394-0.062-0.585-0.091c0.144-0.84,0.293-1.68,0.441-2.52c2.03-0.499,4.056-1.027,6.086-1.483
				c0.293-0.062,0.48-0.355,0.423-0.648c-0.062-0.293-0.355-0.485-0.648-0.427c-1.853,0.321-3.715,0.624-5.572,0.912
				c0.24-1.426,0.466-2.856,0.652-4.287c0.149-1.205,0.283-2.41,0.403-3.619c0.13,0.043,0.255,0.053,0.336,0.005
				c0.269-0.154,0.25-1.32,0.269-1.637c0.145-1.863,0.312-3.73,0.408-5.592c0.446-8.496,0.648-16.886,0.576-25.392
				c-0.043-5.789-0.183-11.587-0.355-17.376c1.225,0.168,2.448,0.36,3.668,0.562c-0.044,0.067-0.097,0.125-0.145,0.188
				c-0.168,0.226-0.13,0.552,0.096,0.72c0.222,0.164,0.548,0.13,0.716-0.096c0.13-0.202,0.288-0.408,0.446-0.619
				c3.581,0.624,7.147,1.344,10.723,1.992c2.396,0.437,4.786,0.946,7.191,1.32c4.92,0.772,9.955,1.396,14.99,1.55
				c-0.336,0.375-0.668,0.749-0.984,1.123c-0.341,0.375-0.316,0.955,0.053,1.296c0.375,0.341,0.955,0.317,1.296-0.053
				c0.566-0.643,1.181-1.257,1.733-1.901c0.119-0.148,0.239-0.288,0.359-0.427c2.731,0,5.453-0.158,8.146-0.523
				c-0.033,0.043-0.071,0.086-0.101,0.134c-0.23,0.264-0.196,0.677,0.067,0.907s0.682,0.197,0.907-0.072
				c0.351-0.422,0.71-0.84,1.065-1.263c2.343-0.403,4.661-0.979,6.945-1.747c1.824-0.614,3.739-1.421,5.434-2.328
				c0.601-0.321,1.195-0.701,1.796-1.042c0.715-0.403,1.444-0.936,2.136-1.387c0.221-0.067,1.32-1.094,1.546-1.33
				c1.209-1.258,2.222-2.544,3.173-4.018c2.352-3.648,4.362-7.656,6.086-11.654c0.163-0.384,0.331-0.773,0.499-1.157
				c0.336-0.533,0.677-1.071,0.999-1.608c1.704-2.861,3.437-5.708,5.126-8.587c1.436-2.458,2.837-4.939,4.224-7.43
				c0.591-0.677,1.177-1.354,1.699-2.088c1.416-1.973,2.501-3.999,3.639-6.134c-0.456,0.346-0.902,0.691-1.344,1.032
				c1.123-2.002,2.251-4.003,3.403-5.991c1.598-2.77,3.101-5.659,4.594-8.491c1.713-3.259,3.58-6.518,5.193-9.806
				c0.792-1.608,1.651-3.235,2.462-4.829c0.255-0.494,0.499-0.998,0.754-1.492c0.235-0.471,0.432-1.023,0.696-1.479
				c0.331-0.571,0.595-1.281,0.878-1.882c0.25-0.528,0.596-1.282,0.772-1.829c0.5-1.344-0.076-2.832-1.296-3.494
				c0.024-1.128,0.039-2.261,0.029-3.398c0.624-0.845,1.248-1.689,1.882-2.534c-0.039,0.739-0.077,1.474-0.12,2.203
				c-0.097,1.556-0.26,3.115-0.384,4.675c-0.034,0.484,0.321,0.917,0.806,0.955c0.485,0.034,0.917-0.321,0.955-0.807
				c0.12-1.65,0.327-3.292,0.476-4.934c0.201-2.175,0.341-4.35,0.428-6.523c0.048-1.439,0.086-2.88,0.115-4.315
				c0.777,0.091,1.569,0.144,2.375,0.144c0.859,0,1.743-0.033,2.593-0.139c0.283-0.038,0.604-0.029,0.868-0.119
				c0.293-0.106,0.533-0.293,0.721-0.533c1.243-1.608,1.708-3.12,2.049-5.107c0.49-2.865,0.346-6.163,0.12-9.058
				c-0.226-2.929-0.446-5.813-0.802-8.722c-0.139-1.172-0.302-2.774-0.244-3.936l-0.005-0.332l0.02-0.508l-0.029,0.119l-0.005-0.461
				c-0.015-0.086-0.028-0.168-0.048-0.244c0.336-0.768,0.6-1.536,0.797-2.396c0.341-1.517,0.494-3.331,0.509-4.877
				c0.02-1.876,0.043-3.743,0.028-5.626c-0.009-0.834-0.096-1.684-0.11-2.529c-0.014-1.07-0.053-2.136-0.058-3.206
				c-0.005-0.894,0.048-1.786,0.072-2.679c0.024-0.922,0.269-2.304,0.005-3.144c-0.278-0.897-0.825-1.315-1.613-1.752
				c-0.858-0.476-1.685-0.956-2.602-1.335c-0.748-0.312-1.574-0.57-2.419-0.782l-2.165-0.47c-0.297-0.639-0.811-1.133-1.492-1.373
				c-0.639-0.332-1.819-0.471-2.534-0.557c-1.704-0.211-3.528-0.158-5.266-0.164l-0.288-0.639c-0.14-0.297-0.394-1.031-0.682-1.189
				c-0.331-0.183-1.513,0.139-1.925,0.206c-1.959,0.321-3.869,0.595-5.837,0.831c-3.067,0.354-6.303,0.484-9.389,0.629
				c-1.714,0.076-3.428,0.177-5.132,0.302c0.149-2.241,0.192-4.426-0.11-6.672c0-0.734-0.604-1.329-1.339-1.329
				c-0.729,0-1.325,0.604-1.325,1.338c-0.292,2.29-0.249,4.613-0.379,6.918c-0.245,0.023-0.484,0.047-0.725,0.071
				c-0.802,0.072-1.604,0.149-2.41,0.216c0.447-2.855,0.505-5.773,0.106-8.736c0.009-0.004,0.019-0.009,0.033-0.014
				c0.734-0.509,0.912-1.536,0.398-2.271c-0.24-0.351-0.6-0.575-0.989-0.657c-0.321-1.334-0.782-2.75-1.319-3.922
				c-2.069-4.474-4.584-7.613-8.242-10.834c-1.248-1.094-2.803-2.294-4.204-3.168c-0.691-0.432-1.388-0.845-2.074-1.276
				c-0.562-0.36-1.181-0.624-1.771-0.94c-7.282-3.898-16.066-4.982-24.14-3.476c-1.181,0.221-2.424,0.494-3.571,0.85
				c-0.514,0.158-1.018,0.321-1.512,0.494c-2.664,0.634-5.275,1.589-7.834,2.899c-0.629,0.321-1.262,0.644-1.862,1.008
				c-3.005,1.844-5.386,3.945-7.68,6.591c-1.416,1.632-2.688,3.729-3.662,5.649c-0.192,0.398-0.38,0.797-0.562,1.209
				c-0.504,0.803-0.979,1.623-1.43,2.443c-0.821,1.488-1.431,3.039-2.098,4.594c-0.744,1.748-1.233,3.734-1.757,5.559
				c-0.087,0.244-0.149,0.734-0.211,1.037c-0.283,1.488-0.38,2.76-0.36,4.271c0.058,4.896,2.501,10.416,5.587,14.16l1.493,1.723
				l0.048,0.106c2.745,5.112,7.003,9.389,12.067,12.494c1.502,0.922,3.196,1.872,4.828,2.544c0.663,0.273,1.33,0.586,1.992,0.854
				c1.426,0.571,2.957,1.022,4.469,1.363c2.107,0.476,4.004,0.638,6.149,0.734c3.652,0.158,7.2-0.657,10.655-1.737
				c0.821-0.26,1.656-0.634,2.468-0.998c0.471-0.097,0.95-0.207,1.464-0.332c2.549-0.643,5.016-1.857,7.263-3.211
				c1.775-1.066,3.715-2.722,5.155-4.21c1.118-1.157,2.136-2.396,3.053-3.706l0.562-0.939l0.259-0.193l-0.178,0.125
				c-0.043,0.164-0.053,0.336-0.043,0.52c0.062,1.002,0.937,1.771,1.935,1.708c0.523-0.096,1.143-0.062,1.747-0.015
				c-1.459,2.189-3.158,4.22-5.055,6.043c-3.028,2.904-6.686,4.883-10.54,6.438c-4.959,2.006-11.295,2.659-16.608,2.279
				c-10.814-0.768-21.278-5.15-29.554-12.129c-1.877-1.579-3.476-3.441-5.04-5.309c-2.606-3.102-4.607-6.456-6.058-10.244
				c-0.552-1.439-0.84-3.028-1.195-4.525c-0.519-2.18-0.782-4.916-0.619-7.152c0.005-0.312-0.254-0.576-0.566-0.58
				c-0.312-0.006-0.576,0.249-0.581,0.561c-0.057,0.816-0.071,1.767-0.038,2.582c0.077,1.887,0.13,3.735,0.476,5.603
				c0.206,1.095,0.532,2.222,0.854,3.288c0.437,1.464,0.945,2.875,1.526,4.242c-0.125-0.105-0.273-0.196-0.441-0.249
				c-0.73-0.255-1.541,0.14-1.796,0.869c-0.067,0.201-0.139,0.403-0.216,0.604c-0.067-0.048-0.135-0.092-0.206-0.129
				c-0.749-0.385-1.681-0.097-2.069,0.652c-0.639,1.065-1.55,2.736-1.872,3.926c-0.178,0.635-0.307,1.272-0.407,1.906
				c-0.072,0.02-0.145,0.062-0.202,0.119c-0.807,0.682-1.599,1.363-2.396,2.051c-0.038,0-0.076-0.006-0.115,0
				c-0.682,0.01-1.243,0.542-1.305,1.214c-0.673,0.566-1.35,1.128-2.041,1.685c-3.394,2.722-6.83,5.391-10.247,8.078
				c-2.809,2.209-5.583,4.465-8.386,6.678c-3.188,2.515-6.202,5.227-9.221,7.939c-1.268,1.137-2.636,2.414-3.802,3.643
				c-0.782,0.826-1.599,1.623-2.371,2.453c-1.757,1.905-3.442,3.844-5.079,5.865c-0.115,0.139-0.096,0.359,0.044,0.48
				c0.139,0.115,0.364,0.096,0.479-0.043c2.275-2.809,4.671-5.487,7.238-8.036c7.109-7.065,15.197-13.003,23.18-19.032
				c2.391-1.805,4.737-3.629,7.08-5.496c0.734-0.585,1.487-1.142,2.203-1.736c0.312-0.265,0.629-0.523,0.945-0.778
				c0.024,1.507,0.053,3.019,0.096,4.521c-0.028,0.159-0.033,0.308-0.014,0.466c0.009,0.12,0.023,0.25,0.038,0.341
				c0.02,0.629,0.038,1.224,0.062,1.823c0.043,1.057,0.086,2.117,0.139,3.184c-2.947,2.068-5.783,4.291-8.61,6.532
				c-3.062,2.415-5.943,5.103-8.866,7.685c-1.608,1.426-3.206,2.947-4.757,4.445c-5.236,5.088-10.329,10.262-15.441,15.484
				c-0.11,0.115-0.11,0.312,0.005,0.422c0.12,0.115,0.312,0.115,0.427-0.004c9.188-9.389,18.327-18.456,28.646-26.602
				c2.313-1.829,4.709-3.615,7.138-5.29c0.509-0.36,1.018-0.725,1.526-1.079c0.115,2.543,0.245,5.082,0.37,7.631
				c-0.639,0.461-1.301,0.884-1.939,1.229c-0.423,0.221-0.879,0.437-1.291,0.681c-0.24,0.125-0.341,0.438-0.216,0.678
				c0.129,0.244,0.441,0.341,0.682,0.216c0.422-0.245,0.893-0.441,1.319-0.682c0.394-0.221,0.792-0.47,1.181-0.696
				c0.11-0.066,0.217-0.135,0.327-0.201c0.114,2.227,0.226,4.454,0.336,6.686c0.019,0.471,0.048,0.946,0.071,1.422
				c-4.464,3.619-8.76,7.512-12.902,11.409c-4.233,3.975-8.419,7.992-12.562,12.053c-2.03-0.091-4.061-0.178-6.086-0.264
				c-12.566-0.533-25.186-0.667-37.762-0.764c-13.042-0.105-26.078-0.226-39.12-0.201c-6.192,0.015-12.398,0.124-18.596,0.216
				c-8.582,0.12-17.126,0.438-25.704,0.725c-5.448,0.188-10.896,0.316-16.344,0.514c-4.373,0.158-8.77,0.221-13.143,0.298
				c-8.918,0.158-17.817,0.183-26.727,0.053c0.552-9.864,1.306-19.671,2.247-29.515c0.24-2.478,0.461-4.974,0.749-7.45
				c0.288-2.472,0.566-4.954,0.854-7.426c0.211-1.839,0.451-3.672,0.691-5.505c0.749,1.002,1.498,2.006,2.333,2.951
				c1.599,1.805,3.283,3.341,5.079,4.935c2.851,2.524,6.351,4.685,9.864,6.427c0.5,0.317,1.008,0.635,1.507,0.961
				c0.84,0.552,1.843,1.051,2.746,1.512c3.442,1.771,6.84,2.827,10.594,3.682c3.096,0.701,6.317,0.807,9.47,0.82
				c0.49,0,0.994-0.014,1.512-0.038c0.528,0.028,1.046,0.048,1.574,0.058c2.434,0.058,4.666-0.053,7.085-0.235
				c0.173,0.015,0.542-0.096,0.734-0.124c1.118-0.174,2.266-0.476,3.322-0.879c3.715-1.396,7.282-3.264,10.55-5.529
				c2.98-2.064,5.779-4.162,8.544-6.52c1.013-0.863,1.978-1.795,2.98-2.654c0.653-0.561,1.233-1.209,1.872-1.761
				c0.706-0.61,1.508-1.436,2.141-2.122c0.907-0.984,1.854-1.953,2.774-2.933c0.864-0.931,1.628-1.978,2.468-2.923
				c0.188-0.217,0.374-0.438,0.557-0.668c3.346-2.385,6.807-4.569,10.181-6.945c2.559-1.81,5.117-3.6,7.493-5.664
				c0.504-0.432,1.018-0.936,1.497-1.401c0.408-0.403,0.802-0.888,1.215-1.296c1.138-0.029,2.275-0.062,3.413-0.102
				c3.575-0.119,7.156-0.264,10.737-0.422c-5.203,4.042-9.932,8.842-14.256,13.623c-4.34,4.79-8.521,9.7-12.812,14.529
				c-1.666,1.867-3.36,3.705-5.045,5.562l0.01,0.25l0.254-0.01c1.57-1.723,3.145-3.437,4.719-5.154
				c3.115-3.404,6.14-6.912,9.25-10.325c2.231-2.458,4.536-4.858,6.845-7.239c1.555-1.607,3.245-3.139,4.877-4.675
				c1.123-1.056,2.352-2.088,3.542-3.081c0.696-0.581,1.378-1.205,2.093-1.767c0.759-0.604,1.526-1.2,2.304-1.796
				c4.656-0.206,9.312-0.436,13.974-0.676c0.216,0.019,0.441,0.038,0.662,0.057c0.067,0.006,0.13,0.01,0.196,0.016
				c-0.234,0.187-0.465,0.379-0.695,0.57c-1.133,0.955-2.343,1.857-3.514,2.77c-2.458,1.925-4.954,3.83-7.393,5.784
				c-1.848,1.479-3.687,2.952-5.496,4.479c-0.955,0.806-1.876,1.651-2.827,2.462c-1.617,1.378-3.129,2.938-4.651,4.422
				c-1.362,1.334-2.717,2.841-3.945,4.305c-2.582,3.092-5.054,6.365-6.854,9.984c-0.071,0.139-0.019,0.321,0.12,0.398
				c0.14,0.072,0.322,0.023,0.394-0.115c2.827-5.697,7.574-11.068,12.192-15.326c1.709-1.57,3.456-3.024,5.223-4.521
				c2.136-1.811,4.454-3.596,6.7-5.271c3.586-2.678,7.143-5.442,10.632-8.236c0.639-0.509,1.268-1.037,1.896-1.569
				c2.103,0.168,4.205,0.336,6.307,0.504c-0.585,0.441-1.171,0.888-1.752,1.344c-2.481,1.921-4.905,3.897-7.358,5.856
				c-2.688,2.141-5.284,4.488-7.848,6.782c-4.665,4.181-9.211,8.669-13.118,13.574c-1.661,2.088-3.36,4.143-4.882,6.336
				c-0.096,0.135-0.072,0.331,0.062,0.427c0.14,0.102,0.331,0.072,0.432-0.062c1.974-2.712,4.062-5.313,6.327-7.79
				c1.54-1.695,3.153-3.308,4.761-4.926c7.887-7.968,16.503-14.654,25.388-21.384c2.842,0.23,5.679,0.446,8.511,0.657
				c-1.925,1.715-3.821,3.51-5.655,5.275c-4.118,3.965-8.227,7.939-12.177,12.077c-1.138,1.19-2.3,2.366-3.423,3.562
				c-1.67,1.775-3.307,3.59-4.968,5.367c-1.152,1.223-2.309,2.5-3.403,3.777c-1.426,1.66-2.942,3.273-4.325,4.982l0.188,0.158
				c0.955-1.186,2.002-2.314,2.995-3.461c4.057-4.646,8.338-9.096,12.682-13.483c2.99-3.019,6.062-6.005,9.192-8.88
				c3.417-3.145,6.83-6.278,10.382-9.27c1.805,0.125,3.619,0.25,5.429,0.365c2.376,0.145,4.757,0.312,7.128,0.456
				c-2.083,1.569-4.123,3.216-6.062,4.872c-3.398,2.904-6.739,5.822-9.946,8.938c-2.241,2.18-4.449,4.354-6.643,6.576
				c-2.774,2.799-5.386,5.731-8.064,8.616c-2.736,2.947-5.419,6.033-8.03,9.096l0.024,0.288l0.283-0.023
				c5.659-6.52,11.442-12.816,17.62-18.831c6.188-6.019,12.744-11.582,19.637-16.767c1.172-0.888,2.338-1.766,3.519-2.635
				c0.83,0.048,1.656,0.086,2.491,0.12c2.256,0.081,4.512,0.216,6.764,0.292c0.484,0.016,0.97,0.024,1.454,0.039
				c-2.131,1.713-4.238,3.446-6.298,5.227c-6.902,5.953-13.632,12.145-19.93,18.74c-3.772,3.94-7.536,8.039-10.948,12.297
				c-0.178,0.217-0.149,0.543,0.067,0.721c0.216,0.178,0.542,0.148,0.715-0.067c1.78-2.223,3.715-4.488,5.654-6.566
				c2.175-2.343,4.325-4.646,6.576-6.922c4.896-4.948,10.108-9.576,15.394-14.103c3.652-3.139,7.401-6.234,11.184-9.254
				c3.005,0.076,6.005,0.135,9.01,0.206c1.594,0.028,3.192,0.024,4.786,0.01c-2.626,2.098-5.232,4.21-7.839,6.341
				c-4.474,3.652-8.942,7.311-13.358,11.03c-4.541,3.825-8.933,7.839-13.258,11.909c-3.249,3.057-6.288,6.316-9.354,9.557
				l0.177,0.168c10.671-11.635,23.064-21.605,35.616-31.129c3.438-2.61,6.836-5.25,10.243-7.9c0.902-0.014,1.805-0.02,2.712-0.02
				c1.411-0.014,2.549-1.18,2.535-2.592c-0.01-0.479-0.145-0.922-0.38-1.305c0.173-0.14,0.341-0.279,0.509-0.418
				c0.826-0.696,1.589-1.627,2.295-2.443l0.033-0.303l-0.303-0.033c-0.902,0.48-1.867,0.984-2.702,1.589
				c-0.062-0.077-0.163-0.135-0.269-0.14c-1.79-0.389-3.519-0.815-5.348-1.013c-1.843-0.206-3.725-0.249-5.577-0.302
				c-2.736-0.087-5.453-0.14-8.193-0.158c-9.293-0.059-18.523,0.081-27.807,0.427c-0.897,0.033-1.8,0.067-2.702,0.101
				c-6.394-0.408-12.787-0.835-19.181-1.271c-7.752-0.528-15.566-1.129-23.333-1.431c-0.932-0.034-1.857-0.097-2.789-0.12
				c-2.544-0.062-5.103,0-7.646,0.02c-1.229,0.004-2.453,0.019-3.677,0.038c0.893-0.864,1.8-1.719,2.702-2.577
				c0.188-0.178,0.197-0.485,0.02-0.672c-0.178-0.188-0.484-0.197-0.672-0.02c-1.176,1.08-2.328,2.179-3.476,3.287
				c-1.248,0.016-2.491,0.034-3.734,0.059c0.135-0.562,0.27-1.129,0.384-1.699c0.423-2.107,0.644-4.2,0.932-6.322
				c0.072-0.297-0.11-0.604-0.408-0.672c-0.297-0.072-0.604,0.11-0.672,0.408c-0.379,0.979-0.715,1.982-1.09,2.961
				c-0.239,0.61-0.475,1.22-0.715,1.824c-0.403,0.303-0.782,0.644-1.061,0.854c-1.181,0.869-2.376,1.8-3.538,2.751
				c-1.113,0.014-2.227,0.028-3.336,0.043c-0.859,0.005-1.546,0.715-1.541,1.569c0,0.744,0.528,1.358,1.229,1.507
				c-0.729,0.639-1.455,1.287-2.175,1.944c-1.291-0.038-2.577-0.087-3.864-0.115c0.173-0.427,0.36-0.883,0.485-1.296
				c0.355-1.171,0.687-2.299,1.018-3.48c0.523-1.871,0.687-3.949,0.864-5.885c0.038-0.407,0.014-0.84,0.019-1.257
				c0.015-1.248-0.028-2.415-0.191-3.657c-0.029-0.184-0.048-0.36-0.077-0.538c0.01-0.005,0.015-0.01,0.024-0.01
				c0.734-0.514,0.911-1.54,0.397-2.274c-0.249-0.361-0.619-0.582-1.018-0.668c-0.134-0.537-0.283-1.094-0.451-1.666
				c-0.187-0.652-0.489-1.305-0.72-1.948c-0.441-1.22-1.219-2.448-1.843-3.586c-0.941-1.728-2.501-3.566-3.85-4.992
				c-0.298-0.307-0.576-0.652-0.893-0.936c-0.418-0.379-0.884-0.792-1.287-1.186c-1.003-0.979-2.506-2.112-3.687-2.895
				c-1.146-0.768-2.323-1.589-3.542-2.241c-4.637-2.486-9.125-3.994-14.357-4.613C387.68-275.104,382.251-274.595,377.749-273.251z
				 M384.689-264.865c-0.59,0.629-1.224,1.215-1.848,1.81c-1.032,0.984-2.078,1.944-3.125,2.895c0.182-0.537,0-1.166-0.48-1.512
				c-0.6-0.433-1.431-0.293-1.863,0.302c-0.907,1.2-1.704,2.506-2.616,3.701c-1.555,2.035-3.096,4.027-4.733,5.995
				c-4.195,5.04-8.688,9.902-12.729,15.067c-0.278-0.864-0.504-1.762-0.706-2.616c-0.096-0.407-0.187-0.821-0.264-1.238
				c0.053-0.566,0.11-1.133,0.211-1.694c0.163-0.951,0.379-1.887,0.604-2.822c5.967-6.965,12.586-13.33,18.5-20.333
				c1.032-1.224,1.939-2.467,2.918-3.72c0.053-0.082,0.101-0.163,0.139-0.25c0.048-0.01,0.091-0.023,0.139-0.033
				c1.876-0.514,3.633-0.869,5.563-1.123c1.594-0.217,3.413-0.312,5.17-0.26C388.165-268.57,386.514-266.813,384.689-264.865z
				 M392.638-270.414c0.312,0.043,0.634,0.082,0.946,0.145c3.777,0.705,7.373,2.078,10.599,3.988
				c-0.341,0.269-0.682,0.547-1.013,0.821c-2.516,2.054-4.844,4.334-7.1,6.667c-1.599,1.642-3.178,3.312-4.752,4.982
				c-1.733-0.341-3.519-0.494-5.271-0.466c0.264-0.293,0.519-0.591,0.782-0.874c1.056-1.186,2.122-2.361,3.197-3.532
				c1.526-1.675,3.086-3.418,4.829-4.853c0.585-0.48,1.267-1.057,1.93-1.421c0.557-0.403,0.682-1.19,0.273-1.747
				c-0.403-0.553-1.19-0.677-1.747-0.274c-2.798,2.084-5.357,5.463-7.517,8.175c-1.238,1.556-2.558,3.191-3.926,4.632
				c-0.01,0.005-0.014,0.015-0.019,0.024c-0.634,0.066-1.253,0.158-1.848,0.278l-0.557,0.134l-1.436,0.087
				c-1.325,0.12-2.385,0.37-3.859,0.927c-0.547,0.206-0.999,0.557-1.498,0.825c-1.042,0.566-2.372,2.083-2.976,3.101
				c-0.235,0.398-0.417,0.836-0.643,1.219c-0.298,0.5-0.557,1.316-0.749,2.069c-1.92,2.142-3.787,4.311-5.578,6.552
				c-1.872,2.328-3.729,4.656-5.472,7.076c-0.494-1.033-0.95-2.094-1.373-3.174c0.624-0.782,1.267-1.55,1.915-2.318
				c1.954-2.338,4.003-4.578,6.086-6.807c1.565-1.68,3.168-3.345,4.714-5.039c0.931-1.018,1.853-2.06,2.798-3.067
				c0.475-0.509,0.902-1.062,1.368-1.575c0.787-0.883,1.598-1.818,2.385-2.783c0.542-0.451,1.085-0.897,1.613-1.33
				c1.762-1.449,3.528-2.923,5.242-4.439c1.354-1.2,2.861-2.434,4.094-3.759c0.749-0.802,1.474-1.589,2.199-2.414
				c0.547-0.624,1.003-1.286,1.449-1.959C392.038-270.505,392.341-270.467,392.638-270.414z M597.661-268.82
				c-0.586,0.764-1.21,1.493-1.801,2.251c-0.226,0.298-0.504,0.562-0.758,0.84c-0.984,1.095-2.03,2.175-3.105,3.183
				c-1.162,1.085-2.323,2.17-3.49,3.24c0.188-0.542,0.005-1.166-0.479-1.517c-0.601-0.428-1.431-0.293-1.862,0.302
				c-0.907,1.205-1.704,2.511-2.616,3.706c-1.546,2.025-3.091,4.042-4.729,5.99c-4.253,5.055-8.649,9.94-12.725,15.11
				c-0.403-1.195-0.739-2.481-0.993-3.807c0.058-0.59,0.115-1.186,0.221-1.78c0.163-0.946,0.379-1.882,0.604-2.813
				c5.967-6.969,12.591-13.334,18.499-20.347c1.032-1.219,1.939-2.462,2.919-3.715c0.058-0.082,0.101-0.163,0.139-0.255
				c0.048-0.015,0.097-0.028,0.14-0.038c1.877-0.509,3.634-0.864,5.563-1.123c1.598-0.212,3.422-0.312,5.184-0.255
				C598.15-269.497,597.92-269.156,597.661-268.82z M601.419-269.569c0.591,0.097,1.19,0.14,1.767,0.273
				c0.168,0.034,0.341,0.072,0.523,0.11c3.278,0.826,6.427,2.089,9.264,3.759c-0.221,0.178-0.437,0.351-0.652,0.523
				c-1.982,1.555-3.783,3.321-5.593,5.063c-1.92,1.854-3.777,3.859-5.597,5.818c-0.336,0.35-0.667,0.71-0.998,1.064
				c-1.065-0.239-2.338-0.354-3.351-0.422c-0.629-0.038-1.268-0.058-1.92-0.048c0.514-0.576,1.018-1.161,1.483-1.685
				c0.772-0.864,1.55-1.733,2.337-2.573c2.218-2.376,4.172-4.622,6.889-6.422c0.557-0.403,0.682-1.195,0.278-1.747
				c-0.408-0.558-1.195-0.682-1.747-0.274c-2.516,1.796-4.373,4.416-6.36,6.744c-1.315,1.546-2.524,3.23-3.888,4.733
				c-0.408,0.451-0.816,0.912-1.225,1.363c-0.177,0.019-0.35,0.038-0.522,0.066l-1.867,0.342c-1.901,0.076-3.283,0.225-5.064,0.926
				c-3.206,1.248-5.236,4.109-6.115,7.315c-1.915,2.122-3.777,4.301-5.567,6.532c-1.877,2.338-3.73,4.666-5.473,7.085
				c-0.494-1.032-0.955-2.093-1.373-3.177c0.624-0.778,1.268-1.547,1.916-2.324c1.953-2.338,4.003-4.578,6.086-6.807
				c1.569-1.68,3.158-3.35,4.719-5.035c0.94-1.018,1.853-2.059,2.803-3.071c0.476-0.509,0.897-1.056,1.363-1.575
				c0.782-0.873,1.594-1.805,2.376-2.77c0.548-0.455,1.09-0.906,1.622-1.339c4.037-3.341,8.089-6.647,11.525-10.612
				c0.552-0.639,1.008-1.291,1.454-1.964C600.819-269.655,601.121-269.617,601.419-269.569z M373.933-267.016
				c-0.067-0.005-0.134,0-0.202,0.015c-0.389,0.077-0.782,0.139-1.171,0.211c0.619-0.326,1.243-0.634,1.881-0.917
				C374.269-267.477,374.101-267.241,373.933-267.016z M582.718-266.156c-0.066-0.005-0.129,0-0.196,0.015
				c-0.394,0.071-0.792,0.144-1.186,0.211c0.624-0.331,1.258-0.648,1.9-0.937C583.063-266.627,582.892-266.392,582.718-266.156z
				 M367.812-259.229c-3.264,3.849-6.614,7.642-9.883,11.491c1.334-3.994,3.446-7.699,5.798-11.185l3.019-4.108l0.115-0.087
				l0.221-0.153c1.555-0.715,3.519-1.296,5.29-1.671C370.89-263.003,369.382-261.083,367.812-259.229z M407.043-264.376
				c1.21,0.907,2.4,1.925,3.509,3.024c-0.321-0.043-0.662,0.024-0.955,0.206c-0.576,0.341-1.095,0.773-1.627,1.172
				c-1.133,0.85-2.103,1.823-3.115,2.808c-1.268,1.243-2.429,2.529-3.629,3.83c-0.792,0.855-1.594,1.729-2.376,2.611
				c-0.11-0.076-0.211-0.139-0.307-0.196c-0.763-0.456-1.455-0.894-2.271-1.282c-0.096-0.047-0.192-0.091-0.456-0.178
				c-0.422-0.273-0.883-0.455-1.358-0.522c-0.269-0.149-0.571-0.25-0.874-0.336c0.456-0.466,0.912-0.937,1.368-1.407
				c3.509-3.643,7.349-7.257,11.554-10.123C406.688-264.645,406.865-264.51,407.043-264.376z M576.604-258.376
				c-3.27,3.851-6.624,7.647-9.898,11.516c1.34-4.013,3.451-7.728,5.809-11.213l3.028-4.113l0.183-0.135l0.105-0.081
				c1.565-0.716,3.538-1.311,5.323-1.681C579.675-262.144,578.168-260.229,576.604-258.376z M615.824-263.526
				c1.214,0.917,2.404,1.93,3.514,3.029c-0.322-0.038-0.663,0.024-0.956,0.211c-0.494,0.278-1.051,0.706-1.497,1.065
				c-0.528,0.433-1.1,0.845-1.594,1.311c-1.507,1.431-2.885,2.885-4.325,4.378c-0.974,1.013-1.881,2.106-2.836,3.144
				c-0.164,0.174-0.327,0.351-0.49,0.523c-0.422-0.288-0.859-0.552-1.291-0.801c-0.033-0.044-0.096-0.078-0.158-0.111
				c-0.153-0.086-0.308-0.168-0.769-0.379c-0.144-0.086-0.269-0.154-0.394-0.211c-0.053-0.024-0.101-0.049-0.144-0.059
				c-0.797-0.412-1.646-0.758-2.506-0.988c0.456-0.461,0.907-0.922,1.358-1.383c3.547-3.657,7.344-7.233,11.554-10.118
				C615.469-263.79,615.646-263.66,615.824-263.526z M414.814-255.957c-0.667,0.648-1.339,1.273-2.045,1.906
				c-0.403,0.355-0.797,0.764-1.21,1.104c-1.66,1.373-3.341,2.708-5.016,4.057c-1.143,0.922-2.323,1.853-3.484,2.817
				c-0.442-0.845-1.143-1.704-1.638-2.381c-0.226-0.308-0.6-0.687-1.026-1.065c0.153-0.163,0.312-0.326,0.47-0.484
				c0.941-0.971,1.915-1.906,2.871-2.861c2.035-2.021,4.79-4.507,7.387-5.847c0.466-0.297,0.71-0.82,0.662-1.339
				C412.933-258.778,413.96-257.401,414.814-255.957z M623.604-255.098c-2.16,2.079-4.416,3.989-6.777,5.876
				c-1.627,1.291-3.346,2.61-5.012,3.993c-0.019-0.038-0.043-0.072-0.057-0.105c-0.235-0.379-0.451-0.807-0.696-1.171
				c-0.216-0.317-0.485-0.61-0.716-0.917c-0.321-0.432-0.715-0.854-1.161-1.248c1.042-1.085,2.098-2.165,3.188-3.201
				c2.284-2.189,4.723-4.479,7.536-5.981c0.465-0.298,0.71-0.82,0.667-1.339C621.718-257.92,622.745-256.552,623.604-255.098z
				 M416.341-253.014l0.835,2.073l0.927,3.408c-3.202,2.371-6.398,4.747-9.605,7.113c-1.81,1.33-3.662,2.649-5.472,4.009
				c0.125-0.308,0.24-0.619,0.259-1.432c0.322-0.748,0.476-1.555,0.452-2.408c0.345-0.562,0.369-1.205,0.345-1.863
				c-0.023-0.58-0.153-1.1-0.239-1.66c1.747-1.412,3.514-2.693,5.376-4.008c1.377-0.98,2.865-1.969,4.19-3.016
				c0.269-0.211,0.527-0.445,0.806-0.657c0.476-0.36,1.075-0.812,1.508-1.214c0.183-0.174,0.359-0.351,0.542-0.528
				C416.293-253.134,416.312-253.071,416.341-253.014z M625.496-251.286l0.461,1.2l0.743,2.352c0.092,0.332,0.169,0.672,0.255,1.018
				c-3.226,2.387-6.446,4.771-9.672,7.152c-1.843,1.344-3.691,2.688-5.511,4.047c0.145-0.365,0.288-0.725,0.423-1.076
				c0.772-2.072,0.868-4.204,0.403-6.316c1.354-1.1,2.75-2.136,4.219-3.168c1.536-1.09,3.092-2.174,4.594-3.303
				c1.022-0.768,2.232-1.617,3.153-2.49c0.153-0.149,0.312-0.303,0.466-0.457C625.188-251.986,625.343-251.641,625.496-251.286z
				 M388.645-249.5c0.398,0.379,1.032,0.359,1.411-0.039c0.058-0.066,0.12-0.135,0.178-0.196c1.209,0.23,2.391,0.575,3.547,1.013
				c0.609,0.235,1.474,0.604,2.011,0.97c0.072,0.048,0.144,0.096,0.216,0.14c-0.523,0.522-1.08,1.026-1.531,1.564
				c-0.355,0.35-0.355,0.931-0.005,1.281c0.351,0.355,0.927,0.355,1.282,0.005c0.557-0.591,1.152-1.19,1.752-1.776
				c0.307,0.255,0.595,0.538,0.859,0.859c0.691,0.85,1.157,1.67,1.425,2.511c-0.634,0.614-1.238,1.253-1.805,1.91
				c-0.408,0.433-0.384,1.114,0.043,1.521c0.432,0.403,1.114,0.38,1.521-0.048c0.12-0.153,0.255-0.307,0.395-0.465l-0.02,0.096
				l-0.202,1.127l-0.509,1.35c-0.59,1.383-1.329,2.625-2.385,3.816c-0.902,1.008-1.968,1.953-3.134,2.77l-0.091,0.043l-1.455,0.705
				c-2.568,0.961-5.097,1.143-7.666,0.096c-3.725-1.507-6.633-5.727-5.203-9.772c0.327-0.927,0.807-1.819,1.488-2.539
				c0.25-0.312,0.202-0.782-0.111-1.032c-0.312-0.25-0.782-0.201-1.037,0.111c-0.921,1.117-1.421,2.001-1.872,3.373
				c-0.854,2.574-0.197,5.338,1.292,7.6c-0.211,0.119-0.418,0.239-0.615,0.364c-0.725-1.229-1.252-2.583-1.56-3.927
				c-0.34-1.488-0.321-2.798-0.23-4.295c0.096-1.656,0.753-3.062,1.454-4.518c0.159-0.326,0.403-0.643,0.615-0.941
				c1.176-1.684,3.014-3.066,4.978-3.921l0.182-0.067l0.595-0.206h3.897C388.4-249.826,388.491-249.645,388.645-249.5z
				 M597.431-248.65c0.394,0.374,1.027,0.359,1.406-0.039c0.058-0.072,0.12-0.135,0.183-0.206c0.009,0.005,0.014,0.005,0.023,0.01
				c0.677,0.134,1.445,0.269,2.093,0.494c0.485,0.168,0.955,0.341,1.436,0.519c0.595,0.221,1.488,0.619,2.011,0.97
				c0.072,0.048,0.154,0.101,0.226,0.148c-0.24,0.25-0.484,0.499-0.715,0.726c-0.273,0.264-0.6,0.561-0.835,0.84
				c-0.355,0.35-0.355,0.926-0.005,1.281s0.926,0.355,1.281,0.005c0.566-0.604,1.157-1.2,1.752-1.796
				c0.308,0.26,0.596,0.543,0.859,0.874c0.687,0.85,1.157,1.665,1.431,2.506c-0.634,0.619-1.238,1.253-1.8,1.91
				c-0.408,0.427-0.385,1.114,0.048,1.517c0.427,0.408,1.113,0.385,1.517-0.043c0.115-0.148,0.25-0.297,0.389-0.451l-0.01,0.058
				l-0.211,1.157l-0.571,1.492c-0.216,0.5-0.456,0.988-0.763,1.531c-0.51,0.889-1.143,1.564-1.767,2.361
				c-0.538,0.701-1.776,1.805-2.521,2.29c-0.125,0.077-0.249,0.163-0.374,0.249l0.019-0.01l-1.598,0.769
				c-2.616,0.979-5.055,1.124-7.671,0.101c-5.03-1.968-7.435-7.958-3.71-12.312c0.254-0.312,0.206-0.778-0.105-1.027
				c-0.312-0.255-0.778-0.206-1.032,0.105c-0.725,0.759-1.521,2.122-1.805,3.13c-0.265,0.922-0.437,1.713-0.418,2.684
				c0.034,1.877,0.624,3.638,1.613,5.164c-0.202,0.111-0.394,0.226-0.586,0.351c-1.627-2.765-2.228-5.895-1.661-9.105
				c0.158-0.902,0.485-2.073,0.917-2.88c0.365-0.677,0.716-1.354,1.195-1.959c0.226-0.277,0.479-0.542,0.706-0.82
				c0.398-0.509,1.531-1.421,2.088-1.752c0.643-0.389,1.271-0.739,1.925-1.037l0.873-0.307l0.029-0.01
				c1.267-0.13,2.572-0.13,3.845-0.005C597.176-248.977,597.276-248.795,597.431-248.65z M418.899-243.903
				c0.076,0.614,0.115,1.248,0.211,1.857c0.11,0.729,0.091,1.517,0.144,2.251c0.029,0.438,0.024,0.883,0.005,1.325
				c-0.019,0.087-0.033,0.177-0.053,0.264c-0.552-0.192-1.195-0.062-1.627,0.394c-1.44,1.546-2.842,3.139-4.258,4.714
				c-2.271,2.524-4.555,5.03-6.797,7.584c-3.484,3.96-6.921,7.944-10.229,12.034c-2.218,0.076-4.44,0.014-6.639-0.184
				c1.925-2.227,3.994-4.319,5.962-6.518c3.471-3.893,7.205-7.455,10.935-11.088c2.688-2.626,5.376-5.28,8.121-7.849
				c0.576-0.562,0.591-1.487,0.034-2.063c-0.12-0.12-0.245-0.217-0.384-0.283c1.497-0.994,2.99-1.979,4.497-2.957
				C418.847-244.249,418.875-244.076,418.899-243.903z M627.604-243.52c0.114,0.537,0.177,1.186,0.226,1.742
				c0.129,1.44,0.226,2.947,0.23,4.455c-0.566-0.227-1.248-0.105-1.69,0.364c-2.865,3.105-5.702,6.278-8.51,9.437
				c-4.368,4.906-8.649,9.807-12.759,14.885c-2.223,0.082-4.449,0.015-6.657-0.182c1.93-2.223,3.993-4.311,5.961-6.514
				c3.466-3.883,7.205-7.455,10.93-11.088c2.688-2.621,5.376-5.275,8.117-7.839c0.576-0.552,0.595-1.483,0.043-2.063
				c-0.12-0.121-0.254-0.217-0.398-0.293c1.498-0.989,2.995-1.969,4.498-2.943C627.594-243.543,627.599-243.533,627.604-243.52z
				 M370.985-234.755c-0.499,0.619-0.994,1.248-1.464,1.862c-0.504,0.653-1.018,1.301-1.517,1.954
				c-1.287,1.689-2.496,3.6-3.658,5.38c-0.221,0.332-0.461,0.682-0.696,1.037c-1.425-1.92-2.683-3.945-3.782-6.081
				c1.455-2.002,2.957-3.931,4.599-5.823c1.708-1.977,3.489-3.873,5.313-5.74C369.651-239.67,370.025-237.001,370.985-234.755z
				 M578.614-238.85c0.015,1.027,0.351,2.723,0.696,3.688c0.148,0.422,0.312,0.844,0.479,1.257c-0.504,0.601-1.003,1.22-1.479,1.858
				c-0.629,0.834-1.339,1.65-1.92,2.515c-1.089,1.603-2.174,3.216-3.259,4.823c-0.221,0.327-0.456,0.673-0.696,1.027
				c-1.426-1.914-2.692-3.936-3.792-6.071c1.454-2.002,2.981-3.937,4.613-5.817c1.708-1.982,3.499-3.879,5.318-5.751
				C578.557-240.505,578.6-239.723,578.614-238.85z M660.099-239.363l0.173,0.744c-0.153,0-0.312-0.004-0.46-0.014
				c-0.23-0.015-0.533,0.023-0.754-0.02c-0.148-0.029-0.437-0.02-0.609-0.033c-0.197-0.015-0.312-0.149-0.485-0.178
				c-0.936-0.145-1.704-0.432-2.735,0.048l-0.317,0.239c-0.639,0.423-0.983,1.043-1.099,1.786l-0.067,0.394
				c0.015,0.188,0.067,0.389,0.101,0.576l0.053,0.298c-0.604,0.028-1.205,0.058-1.805,0.081c-4.556,0.164-9.188,0.087-13.762-0.422
				c0.053-0.562,0.101-1.133,0.145-1.699l3.432-0.369c3.749-0.495,7.584-1.066,11.356-1.292L660.099-239.363z M434.351-236.426
				c-0.504,0.01-1.004,0.02-1.508,0.029c0.816-0.801,1.633-1.604,2.448-2.409C434.979-238.01,434.662-237.217,434.351-236.426z
				 M373.693-238.441l-0.067-0.201h0.062C373.688-238.58,373.688-238.508,373.693-238.441z M373.707-238.412l0.183,0.514
				c-0.135,0.163-0.178-0.154-0.197-0.543L373.707-238.412z M373.942-237.971h-0.01c-0.019,0.01-0.034,0.02-0.053,0.033
				l-0.019-0.038l0.029,0.077C373.904-237.918,373.923-237.947,373.942-237.971z M397.573-225.941
				c-1.287,1.4-2.597,2.788-3.859,4.214c-0.533,0.614-1.104,1.21-1.598,1.853c-1.479,1.906-2.967,3.816-4.45,5.713
				c-0.072,0.081-0.139,0.168-0.207,0.254c-1.104-0.145-2.198-0.326-3.283-0.537c0.739-0.697,1.474-1.397,2.213-2.104
				c4.512-4.354,8.89-9.086,12.932-13.877c0.158-0.196,0.259-0.417,0.292-0.647c0.01-0.009,0.02-0.019,0.029-0.028
				c0.379-0.438,0.71-0.898,1.056-1.34c0.336,0.111,0.725,0.062,1.032-0.163c2.568-1.954,5.193-3.83,7.857-5.664
				C405.479-234.26,401.461-230.18,397.573-225.941z M582.469-237.605l-0.067-0.183h0.062
				C582.464-237.727,582.464-237.664,582.469-237.605z M614.148-233.267c-2.659,2.659-5.231,5.424-7.79,8.185
				c-1.286,1.391-2.597,2.783-3.854,4.209c-0.538,0.609-1.104,1.209-1.604,1.848c-1.479,1.91-2.966,3.816-4.449,5.717
				c-0.072,0.082-0.135,0.168-0.202,0.25c-1.099-0.145-2.188-0.322-3.269-0.537c0.734-0.697,1.464-1.407,2.198-2.104
				c1.488-1.435,2.952-2.961,4.393-4.449c2.961-3.076,5.789-6.168,8.539-9.428c0.12-0.148,0.206-0.312,0.153-0.504
				c0.044-0.033,0.067-0.062,0.097-0.081c0.412-0.476,0.763-0.955,1.142-1.431c0.331,0.105,0.711,0.053,1.009-0.163
				c1.708-1.238,3.369-2.515,5.088-3.734c0.926-0.657,1.862-1.31,2.803-1.958C616.971-236.056,615.55-234.668,614.148-233.267z
				 M635.216-236.276c-0.191-0.034-0.384-0.067-0.571-0.091l-2.376-0.523l2.99-0.326h0.053
				C635.288-236.905,635.254-236.594,635.216-236.276z M635.024-234.816c-0.202,1.377-0.418,2.74-0.668,4.123
				c-0.12,0.676-0.302,1.339-0.437,2.016c-0.245,1.243-0.672,2.539-1.037,3.758l-0.005,0.01c-0.134,0.01-0.239,0.067-0.336,0.13
				c-1.617,0.927-3.389,2.29-4.617,3.7c0.25,0.135,1.79-0.407,2.179-0.489c0.576-0.13,1.143-0.255,1.714-0.36
				c-0.326,0.807-0.682,1.6-1.07,2.377c-1.354,0.028-2.712,0.109-4.065,0.264c0.264-0.24,0.532-0.494,0.815-0.682l-1.084,0.711
				c-0.433,0.053-0.821,0.249-1.109,0.551l1.349-2.246c1.229-2.457,2.165-5.068,2.813-7.747c1.003-2.251,1.8-4.564,2.337-6.921
				C632.854-235.34,633.935-235.071,635.024-234.816z M640.938-233.732c4.238,0.59,8.448,0.984,12.734,0.955
				c1.272-0.014,2.529-0.062,3.782-0.135c0.812,0.293,1.618,0.504,2.246,0.639c0.716,0.145,1.44,0.26,2.17,0.355l0.14,0.571
				c-0.331,0.37-0.562,0.835-0.629,1.363c-0.533,3.562-0.696,7.411-0.619,11.078c-0.485,0.308-0.965,0.614-1.44,0.927
				c-3.988-3.49-8.669-6.557-13.728-8.107c-0.816-0.254-1.709-0.484-2.573-0.624c-0.105-0.504-0.312-0.974-0.672-1.368
				c-0.24-0.264-0.562-0.537-0.902-0.648c-0.48-0.158-0.523-0.249-1.075-0.264l-0.374-0.028c-0.49,0.024-1.335,0.427-1.69,0.753
				c-0.341,0.308-0.758,0.994-1.132,1.689c-0.14,0.029-0.279,0.059-0.413,0.087c0.081-0.302,0.153-0.604,0.23-0.907
				c0.412-1.752,0.845-3.701,1.046-5.481c0.048-0.437,0.096-0.868,0.135-1.301C639.108-234.006,640.03-233.861,640.938-233.732z
				 M417.646-232.7c-4.215,3-7.263,7.104-10.959,10.704c-1.065,1.037-2.063,1.925-3.158,2.842
				c4.709-5.098,9.634-9.965,14.578-14.832C417.963-233.555,417.805-233.123,417.646-232.7z M626.552-231.923
				c-4.258,2.981-7.387,7.138-11.073,10.78c-1.065,1.047-2.074,1.939-3.188,2.866c4.781-5.165,9.772-10.065,14.76-15.005
				C626.897-232.83,626.729-232.379,626.552-231.923z M433.116-233.232c-0.254,0.662-0.504,1.324-0.758,1.991
				c-0.932,0-1.857,0.005-2.784,0.01c-0.768,0-1.536-0.015-2.304-0.028c0.744-0.653,1.483-1.311,2.218-1.973
				C430.692-233.248,431.902-233.248,433.116-233.232z M437.6-233.143c-0.451,0.447-0.893,0.903-1.334,1.354
				c-0.082-0.087-0.163-0.159-0.255-0.235c0.135-0.379,0.265-0.764,0.389-1.152C436.798-233.166,437.196-233.156,437.6-233.143z
				 M442.722-232.931c2.457,0.12,4.935,0.312,7.387,0.499c1.225,0.092,2.453,0.235,3.682,0.312c1.872,0.109,3.749,0.201,5.669,0.293
				c-2.534,0.109-5.025,0.211-7.517,0.277c-2.396,0.068-4.795,0.168-7.19,0.217c-2.582,0.048-5.155,0.062-7.729,0.072
				c0.624-0.61,1.248-1.229,1.882-1.839C440.178-233.051,441.449-232.998,442.722-232.931z M356.384-232.647l0.115,0.255
				l-0.173-0.322c-0.005-0.038-0.009-0.082-0.014-0.12C356.336-232.772,356.355-232.71,356.384-232.647z M374.782-228.932
				c-0.653,0.729-1.277,1.492-1.915,2.274c-0.994,1.21-1.935,2.486-2.885,3.729c-0.375,0.49-0.773,1.051-1.176,1.518
				c-0.269,0.307-0.538,0.613-0.816,0.926c-0.662-0.412-1.301-0.84-1.881-1.248l-0.576-0.456l-0.163-0.168
				c-0.207-0.239-0.413-0.485-0.605-0.729c0.062-0.101,0.134-0.207,0.202-0.303c1.032-1.555,2.222-3,3.379-4.469
				c0.484-0.614,1.037-1.209,1.507-1.834c0.729-0.983,1.488-1.92,2.271-2.841C372.915-231.141,373.736-230.003,374.782-228.932z
				 M548.144-232.043c-0.005-0.004-0.014-0.01-0.028-0.01c-0.298,0.043-0.13,0.029,0.038,0L548.144-232.043z M661.865-231.941
				l0.005,0.023L661.865-231.941z M582.709-229.023c0.259,0.312,0.542,0.639,0.845,0.96c-0.648,0.729-1.268,1.487-1.896,2.261
				c-1.392,1.694-2.64,3.6-4.061,5.242c-0.269,0.307-0.542,0.613-0.816,0.926c-0.657-0.412-1.301-0.84-1.891-1.253l-0.538-0.427
				l-0.187-0.197c-0.212-0.244-0.413-0.489-0.61-0.734c0.062-0.096,0.125-0.182,0.192-0.273c0.768-1.109,1.589-2.146,2.376-3.235
				c0.769-1.061,1.728-2.04,2.521-3.091c0.743-0.989,1.492-1.892,2.261-2.799C581.427-230.728,582.022-229.85,582.709-229.023z
				 M671.283-230.809c0.979,0.221,1.93,0.498,2.855,0.878l0.433,0.173l-0.096,3.514c0,1.757,0.048,3.509,0.134,5.304
				c0.067,1.325,0.278,2.674,0.403,3.999c0.188,1.93,0.293,3.629,0.192,5.559c-0.087,1.55-0.729,3.504-1.801,4.646
				c-0.883,0.94-1.646,1.661-2.76,2.356c-0.043,0.024-0.077,0.049-0.12,0.072c0.192-0.695,0.265-1.469,0.207-2.174
				c-0.154-1.589-0.701-2.919-1.513-4.061c-0.437-3.188-0.983-6.37-1.632-9.48c-0.475-2.271-0.95-4.564-1.526-6.807
				c0.087-0.84,0.178-1.675,0.336-2.491c0.11-0.868-0.235-1.699-0.854-2.241C667.481-231.404,669.411-231.241,671.283-230.809z
				 M384.084-228.289c-1.075-0.12-2.141-0.418-3.172-0.902c-0.394-0.322-0.754-0.668-1.09-1.041
				c0.192-0.102,0.384-0.197,0.581-0.279c0.062-0.038,0.115-0.076,0.172-0.119C381.603-229.613,382.803-228.798,384.084-228.289z
				 M591.56-228.098c0.38,0.221,0.778,0.423,1.172,0.601c-0.629-0.077-1.243-0.202-1.834-0.364c-0.398-0.115-0.777-0.26-1.143-0.428
				c-0.394-0.322-0.787-0.705-1.143-1.094c0.192-0.106,0.389-0.197,0.581-0.283c0.058-0.029,0.11-0.062,0.158-0.102
				C590.01-229.129,590.754-228.567,591.56-228.098z M420.752-229.312c0.777,0.015,1.56,0.038,2.338,0.067
				c-0.821,0.768-1.637,1.541-2.443,2.318c-0.351,0.331-0.691,0.662-1.042,0.998c0.394-1.123,0.734-2.261,1.018-3.398
				C420.661-229.316,420.704-229.316,420.752-229.312z M446.196-227.104c-1.349,1.277-2.836,2.457-4.301,3.6
				c-2.582,2.007-5.462,3.831-8.174,5.664c-1.225,0.826-2.429,1.661-3.605,2.506c0.125-0.173,0.245-0.341,0.37-0.504
				c0.687-0.936,1.387-1.867,1.997-2.861c0.331-0.537,0.705-1.094,1.008-1.641c0.24-0.433,0.471-0.893,0.729-1.307
				c0.523-0.85,0.931-1.91,1.329-2.822c0.303-0.682,0.721-1.718,0.879-2.438c0.091-0.418,0.216-0.84,0.308-1.258
				c0.058-0.273,0.091-0.562,0.129-0.85c0.034-0.005,0.067,0,0.101,0c3.744-0.005,7.518-0.053,11.285-0.148
				C447.574-228.477,446.907-227.771,446.196-227.104z M429.747-229.076c0.576,0,1.157,0.01,1.737,0.014
				c-0.129,0.308-0.264,0.61-0.398,0.918c-0.547,1.219-1.128,2.418-1.723,3.613c-1.762,1.911-3.523,3.812-5.242,5.761
				c-0.863,0.983-1.757,1.925-2.587,2.938c-1.454,1.767-2.957,3.489-4.401,5.261c-2.285,2.793-4.561,5.592-6.859,8.404
				c-0.812,0.663-1.651,1.325-2.524,1.949c-0.816,0.586-1.651,1.176-2.458,1.767c-0.931,0.687-2.025,1.392-3.024,1.978
				c-2.424,1.411-4.627,2.659-7.146,3.465l-2.573,0.625l-3.082,0.259c-3.216,0.163-6.489,0.015-9.624-0.451
				c-2.597-0.384-5.016-0.884-7.564-1.512c-2.275-0.562-4.604-1.345-6.792-2.175c-2.587-0.975-4.925-2.121-7.378-3.384
				c-1.027-0.532-2.03-1.2-3.029-1.786c-1.325-0.781-2.635-1.612-3.897-2.496c-4.147-4.607-7.147-9.763-9.624-15.629
				c-0.398-0.955-0.782-1.886-1.143-2.822c0.447,0.034,0.893,0.068,1.334,0.125c2.942,0.355,5.847,0.83,8.75,1.378
				c2.136,0.403,4.277,0.797,6.417,1.21c2.727,4.311,6.547,7.953,11.002,10.67c1.507,0.927,3.192,1.877,4.824,2.549
				c0.667,0.278,1.334,0.59,1.997,0.854c1.42,0.566,2.961,1.032,4.469,1.363c2.103,0.47,4.008,0.634,6.148,0.729
				c3.62,0.154,7.224-0.648,10.651-1.732c0.778-0.255,1.541-0.591,2.29-0.951c0.015,0,0.029-0.004,0.043-0.004
				c1.358-0.308,2.438-0.625,3.754-1.086c0.547-0.196,1.214-0.432,1.732-0.695c0.519-0.269,1.07-0.494,1.584-0.768
				c0.6-0.317,1.2-0.701,1.795-1.047c0.322-0.182,0.644-0.432,0.946-0.648c1.535-1.084,2.89-2.213,4.209-3.552
				c1.109-1.128,2.127-2.361,3.043-3.677l0.586-0.993l0.552-0.384c0.312-0.265,0.653-0.504,0.97-0.764
				c0.389-0.316,0.787-0.739,1.195-1.018l-2.352,1.555l1.507-2.543c0.101-0.217,0.206-0.428,0.437-1.191
				c0.058-0.071,0.12-0.134,0.188-0.191c2.117-2.025,4.258-4.041,6.441-6C426.536-229.139,428.144-229.091,429.747-229.076z
				 M346.093-228.625l-3.519,1.013c-1.003,0.288-1.939,0.408-2.947,0.571l-0.417,0.023l0.283-0.221
				c1.061-0.647,2.251-0.906,3.547-1.137c0.557-0.102,1.118-0.168,1.685-0.207L346.093-228.625z M406.126-216.131l-2.279,1.785
				c-1.729,0.346-3.476,0.582-5.237,0.73c1.123-1.325,2.266-2.635,3.446-3.932c0.197-0.216,0.398-0.437,0.591-0.652
				c-0.062,0.269-0.015,0.57,0.173,0.807c0.312,0.402,0.902,0.465,1.301,0.153c0.614-0.581,1.416-1.114,2.068-1.704
				c1.34-1.21,2.649-2.506,3.907-3.807c1.685-1.752,3.351-3.412,5.117-5.083c0.11-0.105,0.221-0.212,0.336-0.317
				C413.062-223.542,409.688-219.385,406.126-216.131z M377.163-226.873c0.509,0.384,1.267,0.835,1.853,1.09
				c0.581,0.254,1.124,0.471,1.714,0.705c0.379,0.145,0.797,0.264,1.233,0.36c-0.499,0.585-1.008,1.161-1.545,1.718
				c-1.123,1.172-2.342,2.318-3.403,3.533c-0.701,0.797-1.377,1.589-2.049,2.391c-0.091-0.039-0.188-0.072-0.288-0.105
				c-1.311-0.5-2.539-1.119-3.802-1.709c-0.451-0.211-0.912-0.451-1.377-0.711c0.153-0.182,0.297-0.359,0.437-0.527
				c1.018-1.238,2.036-2.477,3.048-3.725c0.965-1.2,2.078-2.516,3.302-3.706C376.558-227.334,376.856-227.108,377.163-226.873z
				 M614.917-215.271l-2.275,1.775c-1.729,0.346-3.476,0.582-5.237,0.726c1.119-1.32,2.261-2.626,3.438-3.922
				c0.201-0.226,0.403-0.441,0.6-0.662c-0.072,0.269-0.015,0.571,0.168,0.815c0.312,0.398,0.902,0.466,1.301,0.154
				c0.614-0.581,1.416-1.123,2.069-1.704c1.344-1.205,2.654-2.516,3.902-3.812c1.68-1.747,3.359-3.408,5.121-5.078
				c0.135-0.13,0.273-0.26,0.423-0.394C621.896-222.735,618.497-218.545,614.917-215.271z M353.672-224.143l1.656,1.936
				c-0.936-0.178-1.877-0.355-2.813-0.528c-4.301-0.787-8.434-1.315-12.749-1.378c-0.043-0.119-0.086-0.234-0.125-0.35
				c0.869-0.02,2.098-0.174,2.947-0.342c1.373-0.269,2.798-0.422,4.176-0.738c1.723-0.404,3.47-0.75,5.189-1.152
				c0.009-0.005,0.024-0.01,0.038-0.01C352.505-225.832,353.067-224.973,353.672-224.143z M585.651-226.215
				c0.965,0.647,1.785,1.142,2.855,1.612c0.706,0.312,1.464,0.552,2.256,0.729c-0.509,0.58-1.018,1.166-1.56,1.729
				c-1.128,1.166-2.343,2.322-3.403,3.537c-0.701,0.792-1.373,1.589-2.035,2.386c-0.101-0.038-0.201-0.077-0.307-0.11
				c-1.307-0.5-2.54-1.119-3.802-1.714c-0.446-0.206-0.907-0.446-1.368-0.7c0.148-0.184,0.298-0.36,0.437-0.529
				c1.018-1.238,2.03-2.48,3.048-3.725c0.96-1.186,2.055-2.49,3.265-3.666C585.238-226.504,585.444-226.354,585.651-226.215z
				 M390.104-223.666c-1.09,1.305-2.299,2.562-3.447,3.83c-1.531,1.689-3.125,3.307-4.761,4.891
				c-1.066-0.259-2.126-0.552-3.188-0.869c-0.513-0.153-1.046-0.277-1.541-0.465c-0.043-0.02-0.086-0.033-0.13-0.043
				c0.658-0.653,1.325-1.307,2.031-1.973c2.064-1.979,4.037-4.08,6.096-6.062c0.029,0,0.058,0,0.086,0.004
				c0.312,0.01,0.644-0.038,0.951-0.028c0.259,0.01,0.557-0.038,0.821-0.062c0.23-0.028,0.47-0.058,0.739-0.153
				c0.509,0.144,0.989,0.066,1.459-0.043c0.59-0.145,1.311-0.27,1.867-0.504c0.12-0.059,0.25-0.097,0.389-0.145
				C391.011-224.752,390.55-224.214,390.104-223.666z M363.089-220.815l1.109,0.763l0.034,0.043c-0.71-0.32-1.411-0.604-2.15-0.84
				c-0.389-0.35-0.787-0.715-1.171-1.074l-1.853-1.916l-0.644-1.133c-0.043-0.096-0.082-0.188-0.125-0.277
				C359.734-223.638,361.352-222.16,363.089-220.815z M598.899-222.822c-2.42,2.842-5.093,5.669-7.743,8.295
				c-0.148,0.145-0.297,0.288-0.446,0.437c-1.075-0.259-2.15-0.552-3.221-0.874c-0.514-0.153-1.041-0.277-1.541-0.465
				c-0.048-0.02-0.096-0.039-0.134-0.053c0.667-0.658,1.349-1.301,2.04-1.954c2.083-1.991,4.07-4.113,6.148-6.11
				c0.01-0.014,0.024-0.029,0.015-0.048c0.394,0.087,0.787,0.077,1.19,0.053c1.666,0.028,3.466-0.255,4.882-0.825
				c0.058-0.029,0.12-0.053,0.191-0.072C599.82-223.902,599.355-223.359,598.899-222.822z M571.87-219.971l1.243,0.859l1.248,1.507
				c0.403,0.423,0.816,0.841,1.238,1.253c-0.797-0.523-1.579-1.07-2.313-1.651c-0.907-0.725-1.771-1.449-2.659-2.198
				c-0.739-0.624-1.435-1.368-2.112-2.064l-0.897-1.041l-0.412-0.812c-0.054-0.101-0.102-0.201-0.145-0.302
				C568.506-222.798,570.128-221.311,571.87-219.971z M559.458-217.461c0.878,1.239,1.938,2.41,2.98,3.514
				c1.925,2.045,4.094,3.98,6.351,5.65c0.873,0.648,1.747,1.311,2.664,1.896c1.108,0.716,2.217,1.349,3.35,2.012
				c0.874,0.513,1.887,0.998,2.813,1.421c2.184,0.988,4.311,1.818,6.6,2.553c9.331,2.981,19.431,3.418,28.814,0.451
				c2.228-0.705,4.479-1.746,6.509-2.895c3.812-2.164,7.037-4.991,9.691-8.284c-0.115,0.212-0.226,0.413-0.331,0.624
				c-0.975,1.8-1.949,3.682-3.029,5.414c-1.037,1.656-2.107,3.27-3.235,4.819c-1.632,0.802-3.244,1.551-4.795,2.516
				c-1.541,0.96-2.852,2.025-4.272,3.14c-1.056,0.83-2.097,1.684-3.124,2.543c-1.138,0.955-2.305,1.882-3.442,2.842
				c-0.542,0.456-1.084,0.922-1.617,1.393c-2.976,0.527-6.023,0.725-9.072,0.643c0.197-0.374,0.385-0.768,0.562-1.152
				c-1.042,0.125-1.887,0.52-2.65,1.052c-2.447-0.163-4.886-0.509-7.271-0.999c0.24-0.33,0.244-0.796-0.015-1.133
				c-0.316-0.402-0.912-0.475-1.315-0.158c-0.336,0.255-0.672,0.504-1.008,0.764c-1.905-0.475-3.768-1.047-5.572-1.694
				c-4.162-1.493-8.646-3.687-12.183-6.364c-0.543-0.408-1.09-0.807-1.632-1.215c-0.48-0.365-0.937-0.807-1.402-1.19
				c-1.123-0.937-2.625-2.429-3.662-3.739c0.432-0.288,0.552-0.879,0.273-1.32c-0.283-0.441-0.883-0.566-1.324-0.283
				c-0.029,0.015-0.058,0.033-0.087,0.049c-0.192-0.26-0.384-0.514-0.557-0.769c-0.446-0.639-0.845-1.373-1.224-2.055
				c-1.949-3.542-2.674-7.487-2.165-11.477c0.053-0.389,0.144-0.763,0.196-1.138c0.14-1.018,0.226-2.006,0.639-2.967
				c0.043-0.139,0.067-0.283,0.072-0.422C556.952-221.354,558.104-219.375,559.458-217.461z M427.055-220.201
				c-0.937,1.599-1.911,3.154-3.097,4.57c-0.902,1.156-1.93,2.203-2.86,3.32c-0.902,1.08-1.992,2.094-2.967,3.121
				c-1.253,1.319-2.731,2.683-4.123,3.863c-0.83,0.701-1.646,1.412-2.472,2.107c2.304-2.789,4.637-5.562,7.041-8.261
				c1.733-1.948,3.509-3.864,5.242-5.808c1.382-1.565,2.784-3.14,4.233-4.661C427.727-221.357,427.386-220.772,427.055-220.201z
				 M338.542-221.646v0.044c0.115,0.345,0.23,0.687,0.355,1.026c0.389,1.066,0.807,2.117,1.258,3.154
				c-0.202,0.105-0.384,0.264-0.514,0.451c-0.48-0.979-0.902-1.987-1.263-3.015c0.039-0.351,0.077-0.706,0.115-1.056
				L338.542-221.646z M648.2-219.27l1.411,0.811l-3.614-0.412c-1.229-0.121-2.448-0.211-3.648-0.298
				c0.148-0.706,0.283-1.421,0.418-2.146C644.691-220.835,646.434-220.172,648.2-219.27z M364.837-219.25l0.082,0.09
				c0.624,0.682,1.262,1.325,1.91,1.959c-0.638-0.422-1.262-0.863-2.318-1.881C364.664-219.049,364.774-219.136,364.837-219.25z
				 M625.184-218.444l-0.053,0.038l0.101-0.168l-0.354,0.6C624.867-217.94,624.857-217.912,625.184-218.444z M660.819-217.211
				c0.005,0.211,0.014,0.423,0.023,0.639l-0.566-0.547c-0.091-0.087-0.178-0.168-0.273-0.25c0.26-0.297,0.519-0.596,0.777-0.893
				C660.79-217.912,660.8-217.561,660.819-217.211z M666.065-213.443c-0.269-0.172-0.547-0.336-0.825-0.494
				c0.014-0.686,0.028-1.367,0.053-2.049c0.009-0.428,0.028-0.85,0.048-1.282C665.595-215.992,665.835-214.715,666.065-213.443z
				 M373.073-215.156l0.24,0.105c-0.01,0.015-0.024,0.029-0.034,0.043L373.073-215.156z M549.699-207.078
				c-0.038,0.792-0.072,1.584-0.105,2.381c-0.523,0.322-1.047,0.648-1.57,0.979c-0.134-1.171-0.269-2.347-0.402-3.519
				c-0.039-0.336-0.188-0.639-0.403-0.873c-0.029-1.791-0.058-3.586-0.087-5.371c-0.005-0.188-0.048-0.365-0.115-0.523
				c0.418-0.365,0.84-0.73,1.272-1.095C548.148-212.329,548.687-209.631,549.699-207.078z M338.417-213.447
				c0.163,0.307,0.331,0.623,0.509,0.94c-0.105,0.931-0.207,1.867-0.307,2.804c-0.811,7.301-1.45,14.543-2.006,21.873
				c-0.509,6.668-0.917,13.34-1.219,20.016c-0.067,1.479-0.144,2.957-0.211,4.406c-0.158-5.533-0.331-11.097-0.514-16.665
				c0.024-0.264,0.043-0.528,0.067-0.787c0.254-3.019,0.346-6.058,0.571-9.081c0.278-3.826,0.682-7.646,1.051-11.463
				c0.422-4.431,0.94-8.852,1.44-13.268C337.995-214.259,338.206-213.851,338.417-213.447z M650.086-213.462
				c0.859,0.168,1.704,0.351,2.544,0.548c-1.382,1.209-2.74,2.467-4.084,3.647c-4.465,3.921-8.89,7.901-13.263,11.913
				c-8.304,7.618-16.426,15.523-24.096,23.784c-4.465,4.8-8.866,9.639-13.057,14.664c-2.236,0-4.474,0.024-6.739,0.072
				c-0.835-0.077-1.699-0.153-2.562-0.226c1.075-0.965,2.141-1.939,3.211-2.924c7.037-6.522,13.814-13.339,20.822-19.896
				c1.493-1.401,2.995-2.804,4.488-4.186c0.6-0.283,1.186-0.571,1.771-0.878c0.049-0.029,0.097-0.059,0.145-0.082
				c0.94-0.533,1.833-1.104,2.75-1.67l0.336-0.245c0.37-0.278,0.782-0.581,1.124-0.894c0.845-0.307,1.593-0.859,2.327-1.43
				c1.834-1.445,3.519-3.043,5.074-4.781c0.341-0.379,0.71-0.744,1.022-1.146c0.47-0.605,1.027-1.205,1.474-1.82
				c0.624-0.878,1.224-1.736,1.795-2.615c0.389-0.316,0.772-0.634,1.166-0.945c0.115-0.082,0.145-0.25,0.062-0.37
				c-0.086-0.115-0.254-0.144-0.369-0.058c-0.11,0.058-0.221,0.125-0.322,0.197c0.937-1.152,1.666-2.438,2.353-3.812
				c0.749-1.507,1.531-3.115,2.093-4.704c0.422-1.215,0.802-2.4,1.138-3.566C644.235-214.532,647.173-214.062,650.086-213.462z
				 M379.789-212.938c-0.389,0.374-0.787,0.743-1.181,1.108l-1.713-0.854c-0.355-0.206-0.71-0.374-1.051-0.604
				c-0.346-0.226-0.706-0.446-1.056-0.667c0.115-0.135,0.23-0.259,0.346-0.384C376.678-213.798,378.209-213.356,379.789-212.938z
				 M581.859-214.307l0.249,0.105c-0.014,0.02-0.028,0.033-0.038,0.053L581.859-214.307z M343.246-211.302
				c-0.264-0.351-0.528-0.696-0.772-1.027c-0.202-0.269-0.398-0.538-0.59-0.812c0.024-0.168,0.048-0.34,0.072-0.514
				C342.363-212.861,342.8-212.08,343.246-211.302z M588.594-212.08c-0.394,0.37-0.797,0.74-1.195,1.109l-1.724-0.869
				c-0.35-0.201-0.71-0.369-1.051-0.6c-0.351-0.23-0.711-0.456-1.075-0.682c0.11-0.129,0.226-0.254,0.341-0.379
				C585.449-212.958,586.995-212.507,588.594-212.08z M552.315-211.091c-0.375-1.008-0.543-2.054-0.576-3.148
				C551.854-213.136,552.018-212.064,552.315-211.091z M401.619-212.607l-1.065,0.835l-4.234,2.275l-1.488,0.494
				c0.706-0.888,1.421-1.767,2.136-2.645c1.45-0.158,2.88-0.38,4.263-0.657L401.619-212.607z M385.861-211.772
				c0.004,0,0.009,0,0.019,0c-0.25,0.298-0.417,0.538-0.576,0.772c-0.288,0.389-0.211,0.946,0.173,1.234
				c0.389,0.287,0.946,0.216,1.238-0.173c0.379-0.542,0.778-1.075,1.181-1.599c2.174,0.191,4.478,0.216,6.777,0.082
				c-0.691,0.873-1.377,1.756-2.059,2.645c-0.269-0.139-0.566-0.207-0.878-0.201c-0.542-0.006-1.109,0.037-1.642,0.009
				c-0.994-0.062-1.939-0.12-2.928-0.221c-1.229-0.124-2.708-0.394-3.893-0.715c-0.384-0.106-0.773-0.202-1.157-0.303l-1.507-0.575
				l-0.245-0.121l0.029,0.01c0.528-0.484,1.056-0.969,1.579-1.459C383.25-212.123,384.593-211.959,385.861-211.772z
				 M655.313-212.267c0.652,0.163,1.436,0.36,2.064,0.585l1.464,0.485l1.392,1.397c0.331,0.345,0.662,0.7,0.984,1.055
				c0.081,1.014,0.158,2.035,0.244,3.059c-0.134,0.144-0.254,0.303-0.354,0.484c-2.496,4.426-3.932,9.484-4.138,14.578
				c-0.989,0.94-1.973,1.877-2.967,2.808c-4.104,3.821-8.381,7.497-12.595,11.193c-6.558,5.745-13.119,11.462-19.253,17.63
				c-0.754,0.207-1.508,0.398-2.295,0.553c-3.019-0.115-6.038-0.216-9.048-0.293c7.666-9.201,16.32-17.659,25.195-25.642
				c3-2.697,6.105-5.266,9.144-7.915c5.137-4.459,10.431-8.765,15.744-13.018c0.48-0.385,0.553-1.104,0.164-1.584
				c-0.385-0.48-1.104-0.553-1.584-0.168c-5.89,4.79-11.89,9.547-17.54,14.621c-4.166,3.744-8.236,7.641-12.211,11.582
				c-4.263,4.229-8.501,8.562-12.471,13.061c-2.635,2.986-5.261,5.967-7.79,9.033c-3.331-0.081-6.657-0.134-9.988-0.139
				c2.15-2.516,4.367-4.968,6.609-7.383c10.363-11.197,21.695-21.316,32.87-31.67c2.035-1.882,4.133-3.729,6.201-5.562
				c2.026-1.796,4.022-3.629,6.072-5.396c1.118-0.965,2.208-1.958,3.321-2.923c0.183-0.163,0.37-0.321,0.558-0.484
				C655.175-212.305,655.241-212.286,655.313-212.267z M610.136-211.542l-0.096,0.081h-0.01L610.136-211.542z M594.646-210.923
				h0.023c-0.249,0.303-0.417,0.538-0.575,0.778c-0.293,0.383-0.217,0.945,0.168,1.232c0.389,0.289,0.95,0.217,1.238-0.172
				c0.379-0.553,0.777-1.08,1.186-1.604c2.184,0.191,4.492,0.216,6.802,0.076c-0.701,0.879-1.393,1.768-2.074,2.655
				c-0.273-0.13-0.571-0.206-0.888-0.202c-1.613-0.014-3.115-0.01-4.729-0.221c-1.075-0.148-2.106-0.389-3.168-0.57
				c-0.509-0.087-1.065-0.25-1.564-0.375l-1.675-0.643l-0.183-0.097c0.226-0.202,0.446-0.403,0.672-0.604
				c0.308-0.288,0.614-0.571,0.922-0.864C592.063-211.269,593.389-211.109,594.646-210.923z M610.03-211.461l-0.72,0.572
				l-1.526,0.922c-1.282,0.666-2.842,1.502-4.234,1.924c0.734-0.932,1.475-1.848,2.218-2.76
				C607.218-210.961,608.647-211.182,610.03-211.461z M550.52-205.239c-0.038,0.019-0.071,0.038-0.105,0.053
				c-0.01-0.101-0.015-0.202-0.023-0.308C550.434-205.408,550.477-205.326,550.52-205.239z M665.983-203.43
				c0.346,0.389,0.778,0.648,1.244,0.787c-0.566,0.24-1.133,0.475-1.704,0.705c-0.039,0.015-0.077,0.029-0.115,0.049
				c-0.029-0.754-0.058-1.508-0.077-2.262C665.547-203.91,665.763-203.67,665.983-203.43z M553.697-200.262
				c-0.696,0.682-1.377,1.383-2.05,2.093c-0.278,0.292-0.562,0.581-0.85,0.864c0-0.092-0.004-0.178-0.004-0.26
				c-0.072-2.045-0.173-4.08-0.288-6.115c0.201-0.135,0.407-0.269,0.619-0.402C551.873-202.758,552.742-201.477,553.697-200.262z
				 M549.373-196.369c-0.005,0.163-0.005,0.331-0.01,0.494c-0.077,0.077-0.153,0.158-0.23,0.24
				c-0.062,0.062-0.125,0.125-0.192,0.188c-0.235-2.252-0.484-4.493-0.739-6.734c0.442-0.293,0.894-0.576,1.335-0.864
				C549.454-200.828,549.392-198.602,549.373-196.369z M673.865-199.557c-0.178,2.717-0.173,5.482-0.705,8.155
				c-0.355,1.8-0.927,3.706-2.141,5.089c-0.087-4.628-0.312-9.246-0.677-13.887c1.204-0.538,2.539-1.248,3.6-1.987
				C673.918-201.312,673.918-200.42,673.865-199.557z M668.591-193.552c0.244,2.909,0.312,5.856,0.412,8.784
				c-0.043,0.02-0.086,0.043-0.129,0.062c-0.428,0.183-0.864,0.422-1.307,0.566c-0.427,0.135-0.844,0.264-1.267,0.369
				c-0.216-4.242-0.456-8.486-0.653-12.72c-0.033-0.638-0.066-1.276-0.096-1.915c0.854-0.283,1.699-0.581,2.544-0.897
				C668.283-197.377,668.432-195.443,668.591-193.552z M611.456-189.692l-1.138,0.586l-0.403,0.144
				c0.994-0.816,1.987-1.632,2.98-2.447c1.757-1.44,3.629-2.804,5.318-4.311c1.488-1.335,2.809-2.799,4.186-4.244
				C619.376-195.879,615.892-192.289,611.456-189.692z M558.948-194.886c0.39,0.326,0.797,0.662,1.21,0.993
				c-1.128,0.874-2.241,1.819-3.221,2.713c-2.107,1.904-4.147,3.931-5.918,6.148c0-0.125,0-0.255-0.005-0.379
				c0.307-0.23,0.614-0.467,0.921-0.696c0.288-0.222,0.346-0.644,0.13-0.937c-0.221-0.287-0.644-0.346-0.932-0.129
				c-0.048,0.028-0.091,0.062-0.129,0.096c-0.034-2.76-0.077-5.516-0.149-8.266c1.35-1.156,2.698-2.323,4.027-3.494
				C556.141-197.406,557.519-196.086,558.948-194.886z M663.435-183.236l-0.109,0.015l-0.097,0.019l-1.143-0.302l-0.071-0.226v-0.01
				c0.216-0.173,0.437-0.346,0.657-0.514c0.394-0.312,0.456-0.897,0.14-1.287c-0.308-0.383-0.869-0.451-1.258-0.162
				c-0.528-3.438-0.298-7.325,0.687-10.689C662.634-191.992,663.061-187.619,663.435-183.236z M549.363-191.512
				c-0.087-0.792-0.168-1.574-0.25-2.356c0.082-0.062,0.158-0.13,0.24-0.192C549.349-193.215,549.354-192.365,549.363-191.512z
				 M564.728-190.676c0.092,0.047,0.178,0.1,0.27,0.153c-0.145,0.11-0.279,0.221-0.408,0.331c-1.075,0.888-2.141,1.795-3.23,2.669
				c-0.547,0.446-1.061,0.979-1.594,1.449c-1.186,1.065-2.289,2.179-3.427,3.293c-1.872,1.833-3.558,3.921-5.242,5.933
				c-0.005-0.365-0.01-0.734-0.01-1.1c-0.019-1.713-0.033-3.422-0.048-5.135c1.872-2.502,4.157-4.743,6.48-6.648
				c1.301-1.075,2.606-2.131,3.965-3.125C562.539-192.054,563.634-191.295,564.728-190.676z M569.7-187.965
				c-2.77,2.549-5.495,5.18-8.102,7.844c-1.805,1.838-3.644,3.787-5.237,5.817c-0.807,1.032-1.56,2.079-2.352,3.115
				c-0.278,0.355-0.571,0.859-0.802,1.258c-0.596,1.003-1.138,1.958-1.656,2.962c-0.13-1.795-0.269-3.586-0.413-5.381
				c-0.009-0.773-0.019-1.541-0.023-2.309c0.043-0.053,0.081-0.102,0.125-0.149c1.396-1.651,2.75-3.206,4.229-4.79
				c3.398-3.639,7.075-7.027,11.055-10.018C567.56-189.039,568.626-188.482,569.7-187.965z M657.075-186.529
				c0.105,1.205,0.326,2.635,0.652,3.922c-1.92,1.545-3.835,3.086-5.735,4.666c-4.128,3.432-8.208,6.979-12.202,10.612
				c-0.163-0.158-0.364-0.273-0.595-0.331c-0.773-0.217-1.584,0.24-1.8,1.013c-0.226,0.682-0.428,1.382-0.619,2.093
				c-1.633,1.517-3.24,3.048-4.829,4.589c-0.653,0.624-1.282,1.301-1.905,1.982c-0.937-0.044-1.863-0.091-2.789-0.144
				c-0.24-0.02-0.485-0.034-0.721-0.044c0.039-0.201,0.034-0.417-0.014-0.619c-0.188-0.72-0.927-1.142-1.646-0.955
				c-0.336,0.087-0.667,0.183-0.994,0.269c7.546-7.373,15.797-14.063,23.885-20.783c2.525-2.104,5.05-4.234,7.526-6.389
				c0.562-0.495,1.124-0.994,1.676-1.494C656.988-187.604,657.022-187.066,657.075-186.529z M578.993-184.383
				c-1.555,1.271-3.086,2.562-4.594,3.863c-3.119,2.697-6.307,5.477-9.134,8.486c-2.899,3.086-5.674,6.519-8.112,9.979
				c-1.118,1.589-2.165,3.206-3.23,4.829c-0.153,0.23-0.081,0.552,0.149,0.705c0.235,0.158,0.557,0.086,0.71-0.148
				c3.408-5.611,7.925-10.608,12.614-15.168c4.311-4.195,8.861-8.035,13.599-11.736c0.072-0.062,0.153-0.125,0.226-0.183
				c2.405,0.629,4.848,1.124,7.301,1.469c-0.687,0.62-1.378,1.233-2.06,1.853c-2.035,1.814-4.021,3.658-5.995,5.525
				c-1.089,0.12-2.164,0.216-3.254,0.321c-0.831,0.082-1.459,0.667-1.656,1.46l-0.062,0.215c-0.144-0.32-0.259-0.7-0.302-0.983
				c-0.092-0.38-0.49-0.604-0.864-0.514c-0.38,0.091-0.605,0.489-0.514,0.869c0.374,1.142,0.604,2.093,1.459,3.024
				c0.091,0.1,0.197,0.201,0.298,0.302c-0.897,0.854-1.8,1.728-2.631,2.626c-0.787,0.84-1.541,1.713-2.318,2.562
				c-0.519,0.562-1.051,1.104-1.569,1.666c-0.96,1.051-1.829,2.184-2.745,3.273c-0.634,0.754-1.297,1.546-1.921,2.338
				c-0.048,0.014-0.101,0.028-0.153,0.048l0.029,0.12c-0.178,0.23-0.351,0.451-0.514,0.682c-0.235,0.287-0.188,0.725,0.101,0.965
				c0.288,0.234,0.725,0.191,0.965-0.102c0.537-0.647,1.061-1.329,1.617-1.973c2.544-0.586,5.088-0.926,7.651-1.09
				c-0.619,0.562-1.238,1.123-1.853,1.686c-0.423,0.086-0.84,0.178-1.243,0.287c-1.862,0.505-3.639,0.859-5.261,1.969
				c-0.49,0.336-1.018,0.787-1.248,1.34c-0.322,0.743-0.341,2.928-0.389,3.849c-0.433,0.595-0.845,1.209-1.315,1.761
				c-1.268,1.498-2.501,2.976-3.854,4.397c-1.272,1.33-2.524,2.63-3.729,3.965c-0.072-2.885-0.13-5.765-0.14-8.654
				c-0.23,2.361-0.504,4.708-0.705,7.075c-0.082,0.921-0.153,1.853-0.221,2.784c-0.351,0.408-0.696,0.816-1.032,1.229
				c-0.26-9.211-0.744-18.442-1.401-27.658c0.023-0.029,0.048-0.058,0.067-0.092c0.768-1.708,1.685-3.139,2.707-4.703
				c2.664-4.07,6.105-7.599,9.619-10.935c2.261-2.141,4.66-4.276,7.075-6.249c0.062-0.053,0.129-0.111,0.196-0.164
				C573.877-186.111,576.358-185.176,578.993-184.383z M676.429-186.822l-0.048,1.643c-0.053,0.666-0.145,1.338-0.283,2.011
				c-0.067,0.308-0.25,0.812-0.437,1.19l-0.14,0.25l-1.958,0.244c-0.447,0.033-0.894,0.058-1.335,0.058l-0.115-0.01l0.759-0.513
				c0.772-0.596,1.469-1.292,2.068-2.122c0.446-0.624,0.816-1.239,1.123-1.862L676.429-186.822z M607.587-179.444
				c-6.389,6.495-12.777,12.975-19.411,19.21c-0.379,0.346-0.754,0.691-1.128,1.037c-3.576-0.26-7.118-0.404-10.661-0.274
				c0.005-0.024,0.01-0.048,0.02-0.071c0.015-0.072,0.02-0.145,0.02-0.212c3.158-2.847,6.316-5.702,9.484-8.539
				c1.464-0.245,2.962-0.591,4.311-1.133l0.312-0.14l0.586-0.109c0.428-0.092,0.85-0.192,1.281-0.293
				c0.36-0.082,0.721-0.24,1.071-0.317c0.955-0.278,1.507-1.286,1.229-2.241s-1.286-1.502-2.241-1.225
				c-0.192,0.039-0.385,0.087-0.571,0.14c3.028-2.674,6.076-5.323,9.158-7.915c0.144-0.125,0.293-0.254,0.441-0.379
				c0.101-0.01,0.206-0.024,0.303-0.062c0.273,0.014,0.557-0.039,0.835-0.096l0.542-0.135l2.458-0.235
				c1.973-0.278,3.907-0.759,5.817-1.306c0.226-0.067,0.451-0.135,0.682-0.293c0.015,0,0.024-0.005,0.038-0.005
				C610.626-182.521,609.095-180.985,607.587-179.444z M597.027-181.705l-0.509-0.101l0.038,0.009
				c0.609,0.077,1.32,0.115,1.982,0.135c-2.76,2.52-5.496,5.064-8.223,7.613c-2.098-1.182-4.315-1.34-6.59-1.195
				c0.437-0.394,0.878-0.797,1.319-1.186c2.05-1.848,4.09-3.701,6.145-5.539C593.139-181.787,595.083-181.695,597.027-181.705z
				 M546.444-169.561c-0.926,0.791-1.823,1.607-2.75,2.395c-2.477,2.107-4.982,4.181-7.474,6.278
				c-0.845,0.706-1.689,1.426-2.534,2.146c-4.296-0.316-8.597-0.552-12.897-0.754c3.053-2.918,6.158-5.788,9.288-8.592
				c2.64-2.366,5.299-4.752,8.035-7.012c2.549-2.107,5.098-4.182,7.68-6.23C545.993-177.404,546.214-173.482,546.444-169.561z
				 M659.614-178.791c0.269,0.162,0.604,0.277,0.922,0.312c0.427,0.038,0.902-0.034,1.334-0.062
				c0.634-0.043,1.281-0.096,1.925-0.178c0.105,1.354,0.192,2.702,0.278,4.056c-0.883,0.538-1.742,1.109-2.587,1.699
				c-0.048-0.033-0.096-0.062-0.144-0.086c-0.49-0.235-1.085-0.029-1.325,0.461c-0.259,0.408-0.509,0.826-0.744,1.258
				c-0.993,0.763-1.963,1.555-2.918,2.376c-0.869,0.739-1.709,1.512-2.578,2.261c-3.739,3.234-7.281,6.715-10.992,9.984
				c-0.297-0.293-0.72-0.533-1.128-0.605c-0.926-0.168-2.035-0.135-2.99-0.221c-0.312-0.033-0.634-0.053-0.95-0.067
				c0.494-1.497,0.955-3.009,1.421-4.512c0.374-1.22,0.657-2.491,1.051-3.687c1.421-1.243,2.861-2.473,4.306-3.701
				c2.866-2.443,5.842-4.752,8.727-7.166c1.229-1.027,2.516-1.996,3.744-3.023c0.441-0.37,0.897-0.744,1.349-1.114
				C658.597-180.049,658.957-179.199,659.614-178.791z M667.626-179.473l1.425,0.302c-0.019,1.032-0.043,2.06-0.076,3.082
				c-0.029,0.815-0.058,1.642-0.082,2.467c-0.192,0.077-0.36,0.196-0.479,0.37c-0.543,0.71-1.08,1.436-1.613,2.16
				c-0.02-0.85-0.043-1.695-0.072-2.545c0.37-0.187,0.73-0.364,1.095-0.518c0.557-0.289,0.772-0.984,0.484-1.546
				c-0.287-0.558-0.988-0.772-1.545-0.485c-0.043,0.02-0.082,0.039-0.125,0.062c-0.033-1.027-0.077-2.049-0.125-3.076
				C666.882-179.281,667.251-179.377,667.626-179.473z M664.376-167.805c-1.454,1.939-2.942,3.874-4.416,5.804
				c-1.32,1.724-2.621,3.466-3.955,5.185c0.153-0.408,0.307-0.821,0.461-1.229c1.041-2.77,2.126-5.501,3.226-8.247
				c0.494-1.232,0.936-2.533,1.425-3.796c0.831-0.596,1.676-1.177,2.54-1.733c0.177-0.119,0.364-0.24,0.552-0.355
				C664.275-170.732,664.338-169.269,664.376-167.805z M580.073-170.186l0.581,0.145l-0.403,0.005
				c-0.643-0.02-1.258-0.106-1.834-0.274c0.082-0.071,0.154-0.148,0.235-0.221C579.123-170.416,579.604-170.314,580.073-170.186z
				 M583.855-168.025c-0.239,0.217-0.475,0.438-0.71,0.658c-2.424,2.236-4.857,4.459-7.301,6.676
				c-0.086-0.047-0.183-0.081-0.278-0.1c-0.571-0.111-1.138,0.269-1.248,0.84c-0.038,0.196-0.077,0.398-0.105,0.595
				c-2.506,0.173-5.007,0.504-7.517,1.052c0.028-0.029,0.053-0.062,0.081-0.092c1.849-2.03,3.711-4.061,5.606-6.038
				c0.701-0.726,1.483-1.426,2.208-2.126c0.859-0.836,1.709-1.681,2.563-2.521C579.143-168.025,581.581-167.838,583.855-168.025z
				 M547.544-151.7c0.667,10.589,1.315,21.206,1.81,31.8c0.188,4.065,0.389,8.136,0.571,12.211
				c-0.135,3.101-0.316,6.206-0.528,9.302c-0.24,3.417-0.489,6.874-0.883,10.272c-0.514,4.464-1.152,8.832-1.964,13.253
				c-0.158,0.878-0.119,1.867-0.187,2.77c-0.053,0.634-0.12,1.262-0.183,1.891l-0.096,0.821l-0.082,0.466
				c-0.015,0.096-0.028,0.221-0.038,0.355l0.005,0.245l0.005,0.172c0.043,0.264,0.168,0.48,0.475,0.485
				c0.115,0,0.308-0.043,0.389-0.129c0.322-0.375,0.37-0.955,0.538-1.416c0.24-0.643,0.441-1.301,0.677-1.949
				c0.211-0.586,0.437-1.195,0.644-1.8c-0.207,2.789-0.303,5.587-0.389,8.367c-0.192,6.062-0.274,12.12-0.673,18.168
				c-0.216,3.206-0.585,6.504-1.128,9.667c-0.163,0.941-0.369,1.887-0.547,2.827c-0.408,2.218-1.152,4.339-1.767,6.504
				c-0.188,0.624,0.163,1.296,0.787,1.483c0.624,0.192,1.296-0.163,1.488-0.787c0.269-0.936,0.576-1.857,0.864-2.784
				c0.547-1.786,1.003-3.749,1.363-5.582c0.326-1.67,0.725-3.346,0.94-5.031c0.058-0.46,0.115-0.917,0.183-1.377
				c0.038,2.736-0.01,5.472-0.27,8.193c-0.259,2.684-0.787,5.986-1.886,8.458c-0.149,0.331-0.288,0.734-0.466,1.051
				c-0.384,0.696-0.754,1.258-1.195,1.916c-0.188,0.269-0.475,0.604-0.792,0.931c-1.944,0.254-3.883,0.509-5.817,0.758
				c-1.147,0.144-2.295,0.293-3.441,0.442c-4.383-0.173-8.779-0.221-13.147-0.221c-0.206-0.518-0.696-0.902-1.281-0.936
				c-4.08-0.542-8.16-1.07-12.274-1.306c-7.354-0.422-14.793-0.365-22.161-0.331c-12.739,0.058-25.541,0.71-38.271,1.263
				c-8.347,0.365-16.709,0.682-25.051,1.084c-5.756,0.283-11.539,0.336-17.3,0.466c-5.544,0.129-11.112,0.11-16.656,0.014
				c-3.346-0.053-6.701-0.12-10.046-0.278c-5.966-0.283-11.99-0.609-17.933-1.272c-1.954-0.221-3.922-0.408-5.866-0.672
				c-1.498-0.197-2.99-0.432-4.488-0.615c-1.152-0.139-2.304-0.369-3.452-0.552c-1.2-0.197-2.38-0.408-3.566-0.624
				c-0.845-0.226-1.68-0.48-2.506-0.749c-0.005-0.101-0.01-0.201-0.015-0.307c-0.12-2.275-0.302-4.416-0.547-6.667
				c-0.067-0.634-0.192-1.272-0.336-1.906l-0.115-0.485l-0.355-4.046c-0.489-5.832-0.94-11.664-1.349-17.505
				c-0.816-11.578-1.349-23.213-1.829-34.81c-0.653-15.677-1.114-31.358-1.536-47.045c0.153-5.985,0.384-11.976,0.691-17.966
				c0.053-1.046,0.106-2.093,0.164-3.13c5.141,0.096,10.281,0.201,15.432,0.26c18.413,0.206,36.854,0.053,55.272,0.043
				c4.536-0.005,9.087-0.115,13.623-0.188c6.048-0.091,12.096-0.135,18.144-0.158c9.557-0.033,19.109,0.12,28.67,0.148
				c11.204,0.034,22.397,0.26,33.596,0.461c3.441,0.062,6.902,0.168,10.344,0.303c2.035,0.076,4.08,0.135,6.12,0.23
				c-1.574,1.551-3.139,3.105-4.694,4.675v0.25h0.25c1.627-1.646,3.278-3.278,4.938-4.896c0.312,0.014,0.62,0.033,0.932,0.053
				c2.078,0.124,4.166,0.177,6.25,0.297c1.848,0.102,3.695,0.211,5.544,0.336c-3.058,2.713-6.02,5.563-8.626,8.688l0.02,0.303
				l0.307-0.024c2.722-3.221,5.779-6.178,8.99-8.924c1.806,0.125,3.605,0.26,5.405,0.413c0.652,0.044,1.224-0.446,1.271-1.095
				c0.049-0.652-0.441-1.229-1.094-1.271c-0.999-0.092-1.992-0.168-2.985-0.245c1.243-1.056,2.481-2.116,3.763-3.13
				c1.935-1.545,3.864-3.129,5.77-4.708c0.835-0.696,1.676-1.454,2.529-2.16C546.833-163.023,547.188-157.354,547.544-151.7z
				 M655.679-163.168c-1.373,3.625-2.751,7.248-4.004,10.916c-0.201,0.59-0.403,1.181-0.609,1.771
				c-3.422,4.43-6.82,8.894-10.171,13.363c-5.88,7.839-11.717,15.696-17.069,23.904c-1.603,2.462-3.071,4.987-4.622,7.474
				c-0.216,0.346-0.11,0.806,0.235,1.022c0.346,0.211,0.807,0.105,1.022-0.24c1.233-1.997,2.52-3.97,3.84-5.914
				c0.586-0.859,1.138-1.752,1.719-2.621c1.853-2.803,3.801-5.544,5.73-8.294c1.22-1.738,2.486-3.528,3.778-5.208
				c0.931-1.219,1.833-2.467,2.755-3.687c2.347-3.101,4.728-6.216,7.133-9.273c1.2-1.536,2.414-3.067,3.624-4.599
				c-0.601,1.771-1.2,3.547-1.791,5.328c-1.938,5.851-3.845,11.765-5.918,17.568c-0.321,0.888-0.639,1.771-0.95,2.645
				c-1.2,2.179-2.386,4.344-3.591,6.504c-0.532,0.941-1.065,1.891-1.598,2.842c-1.393,1.584-2.779,3.168-4.143,4.781
				c-4.724,5.587-9.566,11.083-14.343,16.627c-0.624,0.72-1.243,1.445-1.862,2.17c-1.431,0.24-2.847,0.513-4.301,0.677
				c-1.396,0.153-2.794,0.297-4.195,0.437c2.068-2.342,4.171-4.632,6.384-6.85c1.388-1.392,2.919-2.866,4.431-4.109
				c1.113-0.921,2.228-1.862,3.403-2.702c0.759-0.547,1.541-1.051,2.313-1.584c0.499-0.336,0.639-1.032,0.298-1.536
				s-1.037-0.638-1.541-0.297c-1.512,0.931-2.967,2.035-4.358,3.148c0-0.014,0-0.029,0-0.043c-0.053-1.123-1.018-2.006-2.146-1.954
				l-4.118,0.182l0.043-0.067l-0.072,0.101c0.739-0.062,1.479-0.134,2.223-0.211c1.617-0.178,3.303-0.557,4.896-0.874
				c0.605-0.13,0.994-0.734,0.864-1.339c-0.13-0.61-0.734-0.999-1.339-0.869c-1.062,0.25-2.132,0.547-3.192,0.763
				c-0.6,0.125-1.19,0.23-1.78,0.326c1.229-1.627,2.395-3.322,3.687-4.872c0.71-0.859,1.382-1.824,2.054-2.717
				c1.157-1.55,2.328-3.091,3.471-4.656c2.453-3.37,4.905-6.72,7.315-10.128c1.363-1.93,2.64-3.922,3.96-5.885
				c2.98-4.436,5.798-9.197,8.05-14.04c0.998-2.141,2.51-5.87,2.409-8.304c-0.024-0.528-0.02-1.09-0.096-1.623
				c0.911-0.705,1.819-1.411,2.673-2.164c2.031-1.814,4.047-3.663,6.077-5.486c1.642-1.479,3.278-2.924,4.968-4.307
				C656.672-165.773,656.168-164.463,655.679-163.168z M636.085-162.059c-0.441,1.43-0.893,2.861-1.354,4.291
				c-1.027-0.053-2.064-0.101-3.092-0.145c0.322-0.292,0.644-0.585,0.965-0.873c1.181-1.08,2.323-2.208,3.485-3.312
				C636.09-162.088,636.085-162.073,636.085-162.059z M661.06-158.598c-0.212-0.02-0.428,0.066-0.558,0.254
				c-1.497,2.117-2.995,4.195-4.459,6.336c-1.474,2.151-2.817,4.402-4.133,6.658c0.062-0.158,0.115-0.321,0.178-0.48
				c0.557-1.564,1.108-3.129,1.661-4.699c0.787-0.998,1.569-2.002,2.347-3c2.112-2.736,4.243-5.457,6.365-8.198
				C662.024-160.666,661.549-159.635,661.06-158.598z M586.438-158.685c-1.68,0.067-3.355,0.145-5.03,0.25
				c-1.57,0.091-3.188,0.245-4.752,0.423c-0.202,0.019-0.398,0.043-0.601,0.062c0.087-0.414,0.178-0.826,0.27-1.239
				C579.685-159.26,583.06-159.059,586.438-158.685z M602.532-154.445c1.268,0.009,2.54,0.023,3.816,0.047
				c0.029,0.072,0.082,0.13,0.148,0.188c0.226,0.183,0.566,0.148,0.749-0.082c0.024-0.028,0.048-0.062,0.067-0.09
				c3.384,0.057,6.787,0.148,10.162,0.297c-0.102,0.11-0.197,0.221-0.298,0.331c-0.158,0.168-0.145,0.442,0.023,0.601
				s0.442,0.144,0.601-0.024c0.259-0.288,0.519-0.571,0.782-0.85c0.476,0.024,0.95,0.048,1.426,0.072
				c4.401,0.239,8.817,0.364,13.219,0.672c-0.364,1.052-0.739,2.098-1.113,3.139c-1.771,4.843-3.716,9.614-5.885,14.294
				c-0.729,1.574-1.459,3.125-2.242,4.675c-0.389,0.768-0.743,1.555-1.156,2.318c-0.729,1.325-1.406,2.693-2.15,4.003
				c-0.739,1.315-1.521,2.611-2.266,3.922c-1.205,2.102-2.602,4.084-3.927,6.105c-1.027,1.574-2.223,3.154-3.389,4.637
				c-1.311,1.666-2.692,3.379-4.171,4.896c-0.696,0.715-1.383,1.45-2.107,2.141l-0.033,0.005l-12.24,0.336
				c-0.624,0.01-1.248,0.024-1.872,0.034c-2.582-0.312-5.15-0.701-7.737-1.094c-4.1-0.629-8.189-1.334-12.278-2.006
				c0.062-4.488,0.101-8.952,0.384-13.426c0.226-3.518,0.413-7.07,0.772-10.574c0.446-4.378,0.902-8.77,1.551-13.124
				c0.519-3.513,1.104-6.979,1.771-10.44c2.021-0.283,4.09-0.455,6.044-0.58c-0.087,0.067-0.163,0.139-0.245,0.207
				c-0.264,0.229-0.298,0.643-0.067,0.911c0.226,0.265,0.644,0.298,0.907,0.067c0.504-0.438,1.008-0.873,1.512-1.311
				c0.874-0.043,1.748-0.082,2.626-0.125c2.861-0.153,5.755-0.206,8.654-0.216c-0.519,0.657-1.032,1.315-1.541,1.987
				c-0.168,0.216-0.124,0.537,0.092,0.705c0.211,0.168,0.532,0.125,0.7-0.091c0.658-0.878,1.335-1.747,2.017-2.606
				C598.078-154.489,600.306-154.465,602.532-154.445z M655.697-147.784c-2.093,4.066-4.224,8.122-6.394,12.144
				c-0.802,1.488-1.589,2.981-2.376,4.483c0.729-2.059,1.445-4.123,2.17-6.183c1.915-4.08,4.113-8.025,6.562-11.808
				c0.998-1.546,2.035-3.14,3.105-4.704C657.771-151.815,656.729-149.795,655.697-147.784z M638.591-152.958l0.221,0.015
				l-0.255,1.205c-0.288,1.061-0.691,2.097-1.018,2.899c-1.383,3.389-3.173,6.499-5.035,9.643c-1.732,2.918-3.624,5.722-5.511,8.549
				c-1.377,2.054-2.793,4.094-4.377,6.034c1.694-2.856,3.293-5.827,4.79-8.784c3.255-6.427,6.12-12.974,8.688-19.694
				C636.93-153.039,637.765-152.996,638.591-152.958z M570.176-113.435c-0.028,2.481-0.038,4.973-0.02,7.474
				c-0.081-0.015-0.163-0.029-0.239-0.043c-0.24-3.216-0.566-6.408-0.734-9.629c-0.217-4.061-0.37-8.112-0.5-12.177
				c-0.168-5.343-0.364-10.642-0.402-15.989c-0.015-1.8,0.028-3.653,0.134-5.448l0.168-2.553l0.778-0.332
				c0.672-0.249,1.377-0.441,1.68-0.518c0.696-0.183,1.421-0.342,2.155-0.476C571.231-139.993,570.301-126.711,570.176-113.435z
				 M541.635-147.875c-2.236,1.545-4.233,3.566-6.105,5.529c-1.546,1.623-3.067,3.264-4.651,4.853
				c-0.998,0.998-2.059,2.025-3.187,2.875c-0.672,0.504-1.33,0.946-2.035,1.397c-0.178,0.11-0.23,0.35-0.115,0.528
				c0.11,0.178,0.346,0.226,0.522,0.115c0.375-0.273,0.797-0.499,1.182-0.758c0.354-0.245,0.734-0.547,1.08-0.811
				c1.924-1.488,3.883-3.427,5.529-5.194c0.873-0.936,1.814-1.857,2.727-2.755c2.414-2.376,5.164-4.939,8.318-6.283
				c0.297-0.153,0.417-0.523,0.264-0.825c-0.153-0.298-0.523-0.418-0.825-0.264C543.401-148.979,542.509-148.475,541.635-147.875z
				 M334.592-140.627c-0.01,0.418-0.014,0.835-0.019,1.263c-0.024,1.68-0.043,3.365-0.053,5.05c-0.082-1.407-0.164-2.813-0.24-4.215
				c-0.043-3.072-0.077-6.101-0.101-9.12C334.309-145.067,334.443-142.691,334.592-140.627z M564.085-137.305
				c0.115,2.53,0.12,5.117,0.341,7.642c0.115,1.325,0.239,2.654,0.398,3.975c0.206-0.298,0.12-0.672-0.154-0.864
				c-0.307-0.211-0.734-0.134-0.945,0.168c-0.355,0.437-0.782,1.119-1.104,1.604c-0.571,0.864-1.354,1.771-2.026,2.578
				c-1.579,1.891-3.144,3.633-4.535,5.524c-0.02-0.538-0.044-1.075-0.067-1.613c-0.154-3.062-0.26-6.134-0.375-9.206
				c2.353-3.389,5.098-6.413,8.18-9.317c0.269-0.269,0.269-0.715,0.005-0.984c-0.265-0.274-0.711-0.274-0.984-0.005
				c-2.712,2.673-5.078,5.616-7.253,8.731c-0.019-0.46-0.038-0.917-0.053-1.373c-0.101-2.621-0.201-5.232-0.273-7.838
				c0.653-0.701,1.325-1.387,1.992-2.079c2.261-2.337,4.665-4.541,6.772-7.022c0.029-0.043,0.058-0.077,0.082-0.115
				C563.888-144.136,563.94-140.631,564.085-137.305z M553.554-126.049c-0.087,0.149-0.173,0.293-0.26,0.437
				c-0.005-0.816-0.01-1.632-0.014-2.443c-0.034-2.611-0.077-5.222-0.145-7.833c0.278-0.35,0.571-0.696,0.869-1.032
				C553.765-133.312,553.611-129.673,553.554-126.049z M564.838-125.612c-0.014,0.015-0.023,0.029-0.033,0.043
				c-0.005-0.043-0.005-0.082,0.02-0.12C564.862-125.665,564.848-125.641,564.838-125.612z M565.559-118.307
				c-0.13,0.058-0.245,0.149-0.336,0.273c-0.403,0.547-0.764,1.138-1.172,1.685c-0.585,0.787-1.166,1.555-1.767,2.328
				c-0.964,1.239-2.039,2.419-3,3.667c-1.041,1.354-2.059,2.755-2.961,4.219c-0.053-1.714-0.096-3.432-0.135-5.146
				c-0.033-1.234-0.053-2.462-0.086-3.696c0.643-0.979,1.344-1.915,2.164-2.904c2.122-2.583,4.651-4.935,6.538-7.69
				C565.04-123.145,565.294-120.73,565.559-118.307z M553.577-118.969c0.044,1.973,0.115,3.941,0.202,5.909
				c-0.087,0.173-0.178,0.351-0.26,0.528c-0.129,0.245-0.028,0.557,0.217,0.687c0.033,0.014,0.066,0.024,0.101,0.033
				c0.244,5.016,0.595,10.022,0.922,15.039c0.014,0.245,0.028,0.495,0.048,0.739c-0.044,0.053-0.087,0.105-0.13,0.158
				c-0.418,0.514-1.013,1.162-1.363,1.699c-0.168,0.207-0.135,0.528,0.077,0.696c0.206,0.168,0.527,0.134,0.695-0.072
				c0.192-0.297,0.48-0.585,0.701-0.864c0.033-0.053,0.072-0.096,0.11-0.144c0.158,2.544,0.316,5.093,0.471,7.637
				c-1.027,1.545-1.939,3.149-2.693,4.814c-0.058,0.101-0.076,0.207-0.071,0.322c-0.024-0.005-0.054-0.005-0.077-0.005
				c-0.183-0.02-0.355,0.062-0.461,0.197c-0.028-4.224-0.058-8.448-0.091-12.667c0.562-5.5,0.912-11.064,1.065-16.517
				c0.12-4.33,0.226-8.659,0.249-12.989c0.082-0.149,0.164-0.293,0.25-0.437C553.529-122.454,553.539-120.707,553.577-118.969z
				 M566.624-108.898l-0.01-0.048c-0.062,0.019-0.125,0.053-0.183,0.101c-0.695,0.609-1.435,1.157-2.141,1.79
				c-0.859,0.778-1.67,1.651-2.448,2.506c-1.66,1.819-3.254,3.72-4.775,5.664c-0.163,0.206-0.326,0.413-0.49,0.624
				c-0.014-0.528-0.033-1.042-0.048-1.56c-0.058-1.474-0.105-2.947-0.148-4.416c0.792-1.402,1.699-2.731,2.674-4.018
				c1.396-1.853,3.144-3.595,4.689-5.338c0.647-0.734,1.248-1.512,1.886-2.237c0.058-0.077,0.12-0.144,0.173-0.226
				C566.072-113.67,566.346-111.289,566.624-108.898z M566.792-107.564l0.005,0.034l0.427,3.307l-0.629-0.101
				c-0.407-0.072-0.888-0.188-1.363-0.269l-0.441-0.048l-0.902-0.072c-0.139,0.004-0.264,0.028-0.379,0.058
				c0.662-0.667,1.344-1.311,2.073-1.92C565.947-106.888,566.374-107.257,566.792-107.564z M570.161-105.121
				c0,0.427,0.005,0.854,0.01,1.282h-0.028l-0.14-1.311C570.056-105.14,570.104-105.131,570.161-105.121z M583.284-102.788
				c-2.078-0.048-4.142-0.13-6.201-0.264l-6.398-0.725l-0.043-0.009c0-0.417,0.005-0.84,0.01-1.253
				C574.855-104.358,579.061-103.547,583.284-102.788z M607.481-104.084l-0.648,0.878h-0.119c-0.576,0.734-0.303,0.471-0.034,0.202
				L607.481-104.084z M562.448-101.339c0.221,0.264,0.259,0.365,0.585,0.523c0.178,0.086,0.331,0.216,0.523,0.264
				c0.864,0.221,1.776,0.557,2.659,0.807c0.336,0.091,0.667,0.072,0.984,0.168l0.178,0.043c-3.797,3.024-7.488,6.528-10.479,10.449
				c-0.087-2.544-0.173-5.093-0.265-7.637c0.975-1.229,1.954-2.477,2.981-3.638c0.815-0.927,1.627-1.867,2.462-2.779
				C561.915-102.534,562.001-101.862,562.448-101.339z M628.141-97.096c-0.657,1.128-1.436,2.275-2.055,3.413
				c-0.667,1.233-1.584,2.376-2.318,3.562l-1.262,1.642l-0.61,0.48c-0.234,0.091-0.494,0.23-0.739,0.341
				c-0.921,0.394-1.943,0.638-2.913,0.893c-0.336,0.082-0.696,0.178-1.065,0.259c4.311-4.771,8.683-9.475,13.056-14.203
				C629.547-99.5,628.847-98.3,628.141-97.096z M570.833-98.775l5.779,0.998c2.228,0.322,4.575,0.571,6.821,0.739
				c0.763,0.058,1.526,0.12,2.289,0.178c-2.755,2.362-5.505,4.767-8.044,7.339c-1.819,1.843-3.668,3.725-5.223,5.793
				c-0.221,0.288-0.437,0.576-0.639,0.864c-1.944,0.019-3.888,0.014-5.817-0.024c-0.384-0.009-0.769-0.019-1.152-0.029
				c0.639-0.725,1.33-1.416,1.964-2.131c2.001-2.266,4.276-4.604,6.647-6.471c0.902-0.71,1.8-1.536,2.751-2.174
				c0.384-0.307,0.437-0.874,0.129-1.257c-0.307-0.379-0.873-0.437-1.258-0.13c-1.377,1.138-2.735,2.357-4.056,3.619
				c-0.038-0.6-0.077-1.205-0.11-1.81c0.312-0.297,0.476-0.744,0.413-1.195l-0.466-3.288l-0.168-1.19
				C570.689-99.169,570.68-99.399,570.833-98.775z M568.103-97.681l0.005,0.005l0.537,3.633c0.11,0.735,0.812,1.244,1.551,1.133
				c0.115-0.019,0.226-0.057,0.336-0.105c0.033,0.701,0.081,1.397,0.13,2.098c0,0.039,0.014,0.077,0.076,0.072
				c-3.076,2.779-3.94,3.71-4.767,4.646c-0.921,1.032-1.766,2.136-2.592,3.245c-0.859-0.024-1.714-0.053-2.567-0.082
				c-0.744-0.024-1.642-0.029-2.372-0.125c-0.441-0.053-0.897-0.072-1.344-0.101c-0.043-1.181-0.076-2.352-0.115-3.528
				c2.079-2.918,4.8-5.793,7.464-7.973c0.615-0.504,1.215-1.061,1.849-1.536C566.902-96.755,567.497-97.23,568.103-97.681z
				 M603.608-84.707c-0.706,0.072-1.412,0.139-2.117,0.216c-3.888,0.398-7.786,0.715-11.684,0.96
				c2.443-2.731,4.987-5.313,7.661-7.877c1.411-1.354,2.928-2.683,4.416-3.96c0.413-0.355,0.85-0.691,1.258-1.046l0.005-0.009
				c1.382-0.01,2.77-0.029,4.161-0.067c2.486-0.072,4.982-0.235,7.469-0.302C610.683-93.14,607.121-88.921,603.608-84.707z
				 M591.238-96.558c3.01,0.072,5.995,0.13,8.985,0.139c-0.883,0.821-1.752,1.699-2.592,2.482c-3.528,3.273-6.729,6.859-9.84,10.526
				c-3.283,0.187-6.571,0.322-9.85,0.417c-1.474,0.043-2.947,0.082-4.426,0.105c1.301-1.637,2.76-3.182,4.186-4.521
				c3.499-3.297,7.19-6.351,11.021-9.25C589.563-96.611,590.403-96.577,591.238-96.558z M623.739-84.332l-1.095,0.921l-2.016,1.311
				c-2.405,1.435-5.203,2.741-7.887,3.538c-1.143,0.336-2.241,0.614-3.369,0.897c1.19-1.382,2.386-2.75,3.585-4.114
				c3.235-0.427,6.466-0.945,9.514-2.03c0.476-0.173,0.912-0.384,1.358-0.614C623.797-84.395,623.768-84.366,623.739-84.332z
				 M550.453-80.948c-0.087,0.067-0.169,0.129-0.245,0.207c0.076-0.528,0.158-1.046,0.23-1.555
				C550.443-81.855,550.448-81.404,550.453-80.948z M554.441-81.62c-0.168-0.02-0.336-0.039-0.504-0.058
				c0.024-0.058,0.053-0.11,0.082-0.168C554.134-81.74,554.278-81.659,554.441-81.62z M607.299-77.219
				c-0.647,0.105-1.301,0.192-1.905,0.273c-1.521,0.202-3.043,0.37-4.579,0.423c-0.614,0.024-1.224,0.053-1.834,0.082
				c0.61-0.701,1.225-1.397,1.829-2.103c0.629-0.744,1.263-1.483,1.896-2.227c2.53-0.13,5.074-0.355,7.551-0.667
				c0.226-0.029,0.461-0.058,0.696-0.086C609.728-80.089,608.514-78.654,607.299-77.219z M559.088-81.174
				c0.94,0.058,1.892,0.101,2.847,0.149c-0.092,0.12-0.178,0.235-0.27,0.35c-1.502-0.226-3.004-0.446-4.502-0.629
				c-0.005-0.009-0.005-0.014-0.005-0.019C557.797-81.299,558.444-81.217,559.088-81.174z M570.358-80.685
				c-0.202,0.317-0.403,0.639-0.6,0.97c-0.062,0.096-0.097,0.202-0.097,0.312c-0.326-0.048-0.647-0.101-0.97-0.149
				c-1.943-0.312-3.902-0.633-5.865-0.945c0.125-0.154,0.259-0.307,0.389-0.461C565.587-80.828,567.973-80.751,570.358-80.685z
				 M580.904-80.502c1.469,0.019,2.942,0.034,4.416,0.039c-0.682,0.811-1.363,1.632-2.036,2.448
				c-0.139,0.163-0.182,0.37-0.153,0.562c-4.051-0.566-8.093-1.128-12.134-1.742c0.273-0.49,0.57-0.975,0.888-1.459
				C574.895-80.583,577.904-80.545,580.904-80.502z M597.085-77.012c-0.188,0.202-0.38,0.413-0.566,0.624
				c-3.955-0.005-8.127-0.36-12.024-0.878c0.835-1.09,1.752-2.146,2.649-3.202c4.157-0.01,8.314-0.082,12.471-0.183
				c0.206-0.009,0.408-0.009,0.614-0.014C599.192-79.437,598.146-78.212,597.085-77.012z M554.812-80.531
				c-0.015,0.519-0.02,1.037-0.015,1.56c0.015,2.625,0.24,5.337,0.374,7.973c0.283,5.568,0.581,11.126,0.807,16.699
				c0.226,5.419,0.254,10.848,0.053,16.263c-0.086,2.256-0.197,4.622-0.418,6.902l-1.502-0.739
				c-0.423-0.216-0.845-0.427-1.268-0.634c0.418-2.731,0.624-5.481,0.816-8.309c0.183-2.741,0.206-5.515,0.269-8.266
				c0.062-2.453,0.072-4.906,0.153-7.354c0.062-1.838,0.072-3.72,0.217-5.554c0.071-0.97,0.153-2.103,0.417-3.034
				c0.255-1.368-0.643-2.693-2.006-2.952c0.153-1.406,0.351-2.812,0.557-4.214c0.316-2.122,0.754-4.243,1.095-6.365
				c0.129-0.792-0.145-1.56-0.653-2.102C554.072-80.617,554.441-80.574,554.812-80.531z M340.146-41.214l0.581,6.427l-0.105-0.451
				l-0.11,0.029c0.067,0.312,0.154,0.629,0.24,0.945l0.038,0.188l0.634,6.653c0.096,0.955,0.187,1.91,0.283,2.87
				c-0.053-0.019-0.101-0.034-0.149-0.048c-0.432-0.144-0.917-0.297-1.416-0.475c-0.441-1.719-0.869-3.442-1.286-5.184
				c-0.226-0.951-0.432-1.906-0.629-2.861c-0.048-4.886-0.134-9.758-0.245-14.63c0.005-0.01,0.01-0.015,0.015-0.019
				c0.254,3.269,0.523,6.542,0.806,9.811c0.005,0.105,0.106,0.192,0.211,0.187c0.11-0.005,0.192-0.105,0.187-0.216
				c-0.341-4.008-0.653-8.006-0.945-12.01c0.048-4.886,0.115-9.744,0.043-14.602C338.835-56.804,339.44-48.995,340.146-41.214z
				 M341.019-33.016l0.288,1.714c0.105,0.677,0.197,1.358,0.25,2.035c0.125,1.474,0.197,2.957,0.278,4.43l0.015,0.327
				c-0.015-0.005-0.024-0.01-0.039-0.01l-0.451-4.627L341.019-33.016z M555.123-30.654c0.091,0.043,0.245,0.139,0.413,0.235
				c-0.02,0.178-0.043,0.36-0.062,0.547c-0.135,1.138-0.211,2.294-0.365,3.427c-0.168,1.219-0.341,2.438-0.514,3.658
				c-0.028,0.173-0.053,0.341-0.081,0.519c-0.782,0.12-1.565,0.235-2.348,0.35c-0.015-2.333-0.015-4.67-0.015-7.003
				c0.23-0.975,0.423-1.944,0.586-2.914C553.529-31.437,554.321-31.033,555.123-30.654z M336.018-28.681
				c0.12,0.576,0.235,1.152,0.35,1.738c-0.859-0.663-1.507-1.479-1.732-2.511C334.971-29.027,335.461-28.744,336.018-28.681z
				 M550.606-21.683c-0.437,0.058-0.874,0.12-1.311,0.182c0.058-0.096,0.11-0.187,0.158-0.269c0.471-0.797,0.884-1.623,1.233-2.472
				C550.664-23.392,550.635-22.537,550.606-21.683z M342.104-20.699c0.019,0.096,0.048,0.187,0.105,0.259
				c0-0.058-0.005-0.134-0.01-0.23c0.226,0.067,0.456,0.125,0.682,0.192c2.189,0.576,4.627,1.162,6.874,1.421
				c0.956,0.11,1.949,0.283,2.904,0.432c0.883,0.139,1.805,0.216,2.697,0.292c1.44,0.12,2.866,0.24,4.311,0.254
				c1.579,0.015,3.139,0.034,4.723,0.024c0.768-0.01,1.546-0.034,2.323-0.058c2.54,0.24,5.074,0.437,7.604,0.609
				c3.557,0.24,7.108,0.403,10.666,0.576c5.39,0.259,10.824,0.336,16.214,0.379c12.067,0.101,24.097-0.173,36.154-0.504
				c6.845-0.192,13.689-0.408,20.664-0.624c-11.323,0.61-22.518,1.219-33.716,1.627c-15.85,0.585-31.67,0.955-47.524,0.317
				c-4.642-0.188-9.332-0.442-13.963-0.807c-2.774-0.216-5.534-0.49-8.309-0.773c-4.378-0.734-8.746-1.637-13.032-2.75
				c-0.082-0.297-0.163-0.6-0.24-0.897C341.518-20.867,341.811-20.78,342.104-20.699z M553.798-18.208
				c-0.906-0.125-1.828-0.245-2.74-0.355c0.02-0.432,0.038-0.869,0.058-1.301c0.739-0.168,1.479-0.336,2.213-0.504
				c0.298-0.072,0.595-0.144,0.897-0.216C554.077-19.796,553.933-19.004,553.798-18.208z M550.481-18.63
				c-1.061-0.12-2.117-0.235-3.178-0.336c0.043-0.048,0.092-0.091,0.135-0.139c1.032-0.202,2.068-0.417,3.091-0.639
				C550.515-19.374,550.501-19,550.481-18.63z M501.521-15.913c-1.181,0.034-2.366,0.062-3.542,0.086
				c-2.103,0.043-4.205,0.12-6.303,0.129c-3.029,0.015-6.058,0.082-9.087,0.101c-8.942,0.072-17.89,0.014-26.827-0.034
				c8.881-0.451,17.766-0.907,26.654-1.253c11.516-0.446,23.041-0.763,34.565-0.84c1.032-0.01,2.06-0.015,3.105-0.015
				C513.905-17.036,507.699-16.456,501.521-15.913z M385.04-14.108c-0.6,0.048-1.239,0.096-1.892,0.154
				c-1.176-0.086-2.366-0.183-3.557-0.278c-0.48-0.043-0.955-0.086-1.454-0.125C380.456-14.262,382.76-14.18,385.04-14.108z
				 M446.581-12.673c-10.81,0.288-21.615,0.35-32.41,0.082c3.423-0.298,6.85-0.317,10.272-0.312
				C431.825-12.894,439.198-12.798,446.581-12.673z"/>
		</g>
	</g>
</g>
</svg>
